<?xml version="1.0" encoding="UTF-8" standalone="no"?>
<svg
   xmlns:dc="http://purl.org/dc/elements/1.1/"
   xmlns:cc="http://creativecommons.org/ns#"
   xmlns:rdf="http://www.w3.org/1999/02/22-rdf-syntax-ns#"
   xmlns:svg="http://www.w3.org/2000/svg"
   xmlns="http://www.w3.org/2000/svg"
   xmlns:sodipodi="http://sodipodi.sourceforge.net/DTD/sodipodi-0.dtd"
   xmlns:inkscape="http://www.inkscape.org/namespaces/inkscape"
   version="1.1"
   id="svg10"
   xml:space="preserve"
   width="1000"
   height="666.66669"
   viewBox="0 0 1000 666.66669"
   sodipodi:docname="hero.svg"
   inkscape:version="1.0.2 (e86c870879, 2021-01-15)"><metadata
     id="metadata16"><rdf:RDF><cc:Work
         rdf:about=""><dc:format>image/svg+xml</dc:format><dc:type
           rdf:resource="http://purl.org/dc/dcmitype/StillImage" /><dc:title></dc:title></cc:Work></rdf:RDF></metadata><defs
     id="defs14"><clipPath
       clipPathUnits="userSpaceOnUse"
       id="clipPath74"><path
         d="m 900.512,965.211 -38.731,2.23 c 0,0 102.477,654.319 141.319,757.509 38.83,103.09 630.42,284.26 630.42,284.26 0.21,-1.33 0.41,-2.54 0.71,-3.87 19.01,-112.95 38.43,-226.31 71.67,-336 15.35,-50.63 33.86,-100.75 62.23,-145.38 28.36,-44.63 67.29,-83.67 115.49,-105.42 65.36,-29.49 143.55,-24 208.1,7.11 64.56,31.11 116,85.9 150.57,148.74 29.08,52.96 46.97,111.42 57.65,171.1 l 19.92,265.85 c 44.73,7.73 221.53,31.52 469.39,-24.9 288.32,-65.58 464.1,-387.46 464.1,-387.46 l -23.28,-23.78 -330.62,-339.25 c 0,0 13.83,-64.26 26.64,-147.42 6,-38.73 11.69,-81.54 15.76,-123.831 12.71,-133.59 -115.19,-322.277 -115.19,-322.277 L 2916.43,0 H 1381.8 l 60.79,269.41 -40.97,667.031 z"
         id="path72" /></clipPath></defs><sodipodi:namedview
     pagecolor="#ffffff"
     bordercolor="#666666"
     borderopacity="1"
     objecttolerance="10"
     gridtolerance="10"
     guidetolerance="10"
     inkscape:pageopacity="0"
     inkscape:pageshadow="2"
     inkscape:window-width="1920"
     inkscape:window-height="1017"
     id="namedview12"
     showgrid="false"
     inkscape:zoom="0.87716594"
     inkscape:cx="611.60893"
     inkscape:cy="295.38895"
     inkscape:window-x="1912"
     inkscape:window-y="-8"
     inkscape:window-maximized="1"
     inkscape:current-layer="g18" /><g
     id="g18"
     inkscape:groupmode="layer"
     inkscape:label="ink_ext_XXXXXX"
     transform="matrix(1.3333333,0,0,-1.3333333,0,666.66667)"><g
       id="g20"
       transform="scale(0.1)"><path
         d="M 7500,0 H 0 V 5000 H 7500 V 0"
         style="fill:#ffffff;fill-opacity:1;fill-rule:nonzero;stroke:none"
         id="path22" /><path
         d="m 4976.53,3680.19 v -831.87 h -746.12 v -746.13 h -831.87 v 746.13 h -746.21 v 831.87 h 746.21 v 746.2 h 831.87 v -746.2 h 746.12"
         style="fill:#bde9ec;fill-opacity:1;fill-rule:nonzero;stroke:none"
         id="path24" /><path
         d="M 3441.17,1819.09 V 1291.66 H 2968.11 V 818.602 h -527.43 v 473.058 h -473.11 v 527.43 h 473.11 v 473.12 h 527.43 v -473.12 h 473.06"
         style="fill:#bde9ec;fill-opacity:1;fill-rule:nonzero;stroke:none"
         id="path26" /><path
         d="m 2626.24,4232.47 v -301.71 h -270.62 v -270.61 h -301.71 v 270.61 h -270.64 v 301.71 h 270.64 v 270.64 h 301.71 v -270.64 h 270.62"
         style="fill:#bde9ec;fill-opacity:1;fill-rule:nonzero;stroke:none"
         id="path28" /><path
         d="m 4322.46,2236.43 -82.25,-1151.97 -298.29,-162.569 -279.57,315.069 339.36,240.64 186.55,801.22 3.25,8.45 130.95,-50.84"
         style="fill:#f89a7e;fill-opacity:1;fill-rule:nonzero;stroke:none"
         id="path30" /><path
         d="M 3671.04,1255.75 3964.97,921.891 3628.65,704.789 3408.2,1052.27 3671.04,1255.75"
         style="fill:#6fcfd7;fill-opacity:1;fill-rule:nonzero;stroke:none"
         id="path32" /><path
         d="m 2659.53,3056.05 c 38.53,-201.8 39.64,-410.62 2.84,-612.63 -19.22,-105.53 -51.13,-213.8 -125.05,-291.57 -56.32,-59.38 -133.89,-95.68 -215.02,-107.88 v -0.09 l -2.44,-32.54 -19.92,-265.85 c -10.68,-59.68 -28.57,-118.14 -57.65,-171.1 -34.57,-62.84 -86.01,-117.63 -150.57,-148.74 -64.55,-31.11 -142.74,-36.6 -208.1,-7.11 -48.2,21.75 -87.13,60.79 -115.49,105.42 -28.37,44.63 -46.88,94.75 -62.23,145.38 -33.24,109.69 -52.66,223.05 -71.67,336 29.28,82.25 56.53,165.21 81.54,248.88 19.92,65.99 38.53,132.26 55.71,198.95 -94.35,53.59 -152.4,165.42 -141.52,273.39 3.25,32.02 13.42,65.57 38.74,85.39 29.48,23.08 73.4,20.95 105.42,1.63 32.13,-19.21 53.48,-52.56 66.9,-87.43 l 3.66,-1.93 c 32.02,63.94 68.42,125.76 108.47,184.93 246.95,-24.1 502.33,57.94 689.19,221.12 l 1.73,-1.94 c 5.7,-23.98 10.88,-48.08 15.46,-72.28"
         style="fill:#f89a7e;fill-opacity:1;fill-rule:nonzero;stroke:none"
         id="path34" /><path
         d="m 2642.34,3130.27 c -186.86,-163.18 -442.24,-245.22 -689.19,-221.12 -40.05,-59.17 -76.45,-120.99 -108.47,-184.93 l -3.66,1.93 c -13.42,34.87 -34.77,68.22 -66.9,87.43 -32.02,19.32 -75.94,21.45 -105.42,-1.63 -25.32,-19.82 -35.49,-53.37 -38.74,-85.39 -10.88,-107.97 47.17,-219.8 141.52,-273.39 -17.18,-66.69 -35.79,-132.96 -55.71,-198.95 -71.07,150.77 -237.49,255.99 -268.3,419.47 -0.51,2.75 -1.01,5.49 -1.42,8.34 -14.54,91.8 18.2,184.32 57.64,268.49 50.53,107.57 112.75,209.03 177.11,309.17 11.48,17.99 23.07,35.99 34.66,53.88 3.36,5.08 6.61,10.06 9.86,15.15 27.25,41.99 56.83,86.01 102.18,107.26 68.62,32.02 148.43,1.93 220.1,-22.58 205.97,-70.45 428.01,-93.22 643.95,-66.08 24.29,3.05 49,6.71 73.09,2.44 24.1,-4.27 47.99,-18.09 57.44,-40.66 10.68,-25.52 0.62,-54.8 -11.68,-79.71 -34.37,-69.34 -86.93,-129.62 -150.87,-173.34 -4.58,24.2 -9.76,48.3 -15.46,72.28 l -1.73,1.94"
         style="fill:#272736;fill-opacity:1;fill-rule:nonzero;stroke:none"
         id="path36" /><path
         d="m 1712.11,3315.7 3.35,-2.13 c -11.59,-17.89 -23.18,-35.89 -34.66,-53.88 -121.4,-60.49 -229.87,-160.23 -265.66,-290.76 -26.63,-97.5 -10.47,-199.47 9.46,-299.71 4.67,-23.39 9.56,-46.56 14.13,-69.64 24.3,-122.21 38.53,-256.91 -24.4,-364.47 -48.9,-83.57 -145.38,-139.08 -241.96,-132.38 -96.69,6.72 -187.065,79 -208.417,173.45 -17.387,76.76 8.641,156.47 41.277,228.03 32.64,71.68 72.69,141.62 85.4,219.19 23.69,144.27 -50.12,292.9 -18.61,435.54 28.27,127.99 143.15,227.83 271.55,253.76 128.51,25.92 265.35,-16.17 368.54,-97"
         style="fill:#272736;fill-opacity:1;fill-rule:nonzero;stroke:none"
         id="path38" /><path
         d="m 2523.36,2796.01 c -0.96,12.96 -21.3,13.07 -20.33,0 8.36,-113.33 19.13,-226.45 32.23,-339.33 -41.8,-5.82 -83.93,-8.55 -126.14,-8.16 -13.09,0.11 -13.1,-20.22 0,-20.34 46.91,-0.42 93.59,3.03 139.98,9.98 3.95,0.6 7.94,5.8 7.47,9.81 -13.57,115.76 -24.64,231.8 -33.21,348.04"
         style="fill:#272736;fill-opacity:1;fill-rule:nonzero;stroke:none"
         id="path40" /><path
         d="m 1771.7,2533.77 c -19.27,-9.77 -26.98,18.53 -26.23,31.74 0.99,17.43 8.74,40.4 30.05,38.72 5.21,-0.41 10.53,5 10.16,10.17 -1.79,24.93 -5.04,49.76 -10,74.26 -4.1,20.26 -7.49,44.95 -19.9,62.16 -10.51,14.57 -28.62,19.51 -44.95,11.66 -19.49,-9.37 -26.66,-30.26 -29.49,-50.28 -1.81,-12.8 17.78,-18.32 19.6,-5.4 1.97,13.91 5.32,33.16 20.8,38.28 16.13,5.34 22.36,-13.77 25.72,-25.62 8.81,-31.16 14.15,-63.27 16.99,-95.52 -27.77,-5.25 -40.71,-39.08 -39.36,-65.67 1.46,-28.76 26.73,-57.33 56.88,-42.05 11.67,5.91 1.39,23.46 -10.27,17.55"
         style="fill:#272736;fill-opacity:1;fill-rule:nonzero;stroke:none"
         id="path42" /><path
         d="m 2355.82,2720.68 c -0.07,-32.12 -21.32,-58.11 -47.45,-58.04 -26.13,0.06 -47.25,26.15 -47.17,58.27 0.08,32.12 21.32,58.11 47.45,58.05 26.13,-0.06 47.25,-26.16 47.17,-58.28"
         style="fill:#272736;fill-opacity:1;fill-rule:nonzero;stroke:none"
         id="path44" /><path
         d="m 2204.75,2471.6 c -0.17,-69.82 -56.91,-126.29 -126.73,-126.12 -69.82,0.17 -126.29,56.91 -126.12,126.74 0.17,69.82 56.9,126.28 126.73,126.11 69.82,-0.17 126.29,-56.9 126.12,-126.73"
         style="fill:#f57a7f;fill-opacity:1;fill-rule:nonzero;stroke:none"
         id="path46" /><path
         d="m 2350.49,2860.33 c -34.86,1.43 -70.36,-3.52 -103.49,-14.52 -12.6,-4.17 -22.13,-17.73 -17.75,-31.26 4.06,-12.55 17.75,-22.24 31.26,-17.75 15.17,5.03 30.61,8.53 46.38,11.04 0.61,0.08 1.22,0.15 1.83,0.22 1.81,0.21 3.61,0.39 5.43,0.56 3.92,0.36 7.86,0.64 11.79,0.83 8.19,0.39 16.37,0.38 24.55,0.05 13.3,-0.54 26.02,12.08 25.42,25.42 -0.64,14.23 -11.16,24.83 -25.42,25.41"
         style="fill:#272736;fill-opacity:1;fill-rule:nonzero;stroke:none"
         id="path48" /><path
         d="m 2576.71,2720.68 c 0.08,-32.12 21.33,-58.11 47.46,-58.04 26.12,0.06 47.24,26.15 47.17,58.27 -0.08,32.12 -21.33,58.11 -47.45,58.05 -26.14,-0.06 -47.25,-26.16 -47.18,-58.28"
         style="fill:#272736;fill-opacity:1;fill-rule:nonzero;stroke:none"
         id="path50" /><path
         d="m 2582.04,2860.33 c 34.87,1.43 70.37,-3.52 103.5,-14.52 12.59,-4.17 22.13,-17.73 17.75,-31.26 -4.06,-12.55 -17.75,-22.24 -31.26,-17.75 -15.18,5.03 -30.62,8.53 -46.39,11.04 -0.61,0.08 -1.22,0.15 -1.82,0.22 -1.81,0.21 -3.62,0.39 -5.43,0.56 -3.93,0.36 -7.86,0.64 -11.8,0.83 -8.18,0.39 -16.37,0.38 -24.55,0.05 -13.3,-0.54 -26.01,12.08 -25.41,25.42 0.63,14.23 11.16,24.83 25.41,25.41"
         style="fill:#272736;fill-opacity:1;fill-rule:nonzero;stroke:none"
         id="path52" /><path
         d="M 3230.17,1575.1 4506.17,0 h -582.14 l -997.94,1088.53 c -12.81,83.16 -26.64,147.42 -26.64,147.42 l 330.62,339.25 0.1,-0.1"
         style="fill:#f89a7e;fill-opacity:1;fill-rule:nonzero;stroke:none"
         id="path54" /><path
         d="M 1401.62,936.441 1292.74,0 H 835.449 l 65.063,965.211 501.108,-28.77"
         style="fill:#f89a7e;fill-opacity:1;fill-rule:nonzero;stroke:none"
         id="path56" /><path
         d="m 2311.63,2057.29 c -140.38,-15.39 -284.62,27.1 -393.37,117.46 -10,8.31 -24.46,-6 -14.38,-14.38 112.75,-93.68 261.85,-139.4 407.75,-123.42 12.87,1.41 13.01,21.76 0,20.34"
         style="fill:#272736;fill-opacity:1;fill-rule:nonzero;stroke:none"
         id="path58" /><path
         d="m 2466.46,2540.66 c -159.09,4.37 -376.48,-19.51 -422.28,-24.81 -63.98,91.99 -127.96,183.96 -191.95,275.94 -7.84,11.27 -26.5,0.59 -18.58,-10.8 66.79,-96.01 133.58,-192.02 200.37,-288.03 l -16.41,-269.68 c -124.85,-18.06 -226.84,-42.18 -350.83,-65.46 -13.58,-2.55 -7.88,-23.28 5.66,-20.73 123.88,23.26 225.77,47.35 350.51,65.42 30.88,-27.46 175.43,-144.9 385.61,-141.26 237.94,4.13 245.25,149.45 245.25,149.45 l 40.34,214.92 c 0,0 -49.01,110.13 -227.69,115.04"
         style="fill:#9cdedd;fill-opacity:1;fill-rule:nonzero;stroke:none"
         id="path60" /><path
         d="m 2642.14,2387.74 c -145.04,72.58 -309.95,48.06 -463.52,23.03 -12.88,-2.1 -7.41,-21.7 5.41,-19.61 147.58,24.06 308.3,48.86 447.85,-20.97 11.67,-5.84 21.98,11.69 10.26,17.55"
         style="fill:#53c7db;fill-opacity:1;fill-rule:nonzero;stroke:none"
         id="path62" /><path
         d="m 2587.36,2213.24 c -132.26,-9.66 -265.9,12.26 -387.81,64.65 -11.9,5.11 -22.27,-12.4 -10.27,-17.56 125.27,-53.83 262.02,-77.35 398.08,-67.42 12.98,0.95 13.08,21.29 0,20.33"
         style="fill:#53c7db;fill-opacity:1;fill-rule:nonzero;stroke:none"
         id="path64" /><path
         d="m 900.512,965.211 -38.731,2.23 c 0,0 102.477,654.319 141.319,757.509 38.83,103.09 630.42,284.26 630.42,284.26 0.21,-1.33 0.41,-2.54 0.71,-3.87 19.01,-112.95 38.43,-226.31 71.67,-336 15.35,-50.63 33.86,-100.75 62.23,-145.38 28.36,-44.63 67.29,-83.67 115.49,-105.42 65.36,-29.49 143.55,-24 208.1,7.11 64.56,31.11 116,85.9 150.57,148.74 29.08,52.96 46.97,111.42 57.65,171.1 l 19.92,265.85 c 44.73,7.73 221.53,31.52 469.39,-24.9 288.32,-65.58 464.1,-387.46 464.1,-387.46 l -23.28,-23.78 -330.62,-339.25 c 0,0 13.83,-64.26 26.64,-147.42 6,-38.73 11.69,-81.54 15.76,-123.831 12.71,-133.59 -115.19,-322.277 -115.19,-322.277 L 2916.43,0 H 1381.8 l 60.79,269.41 -40.97,667.031 -501.108,28.77"
         style="fill:#6fcfd7;fill-opacity:1;fill-rule:nonzero;stroke:none"
         id="path66" /><g
         id="g68"><g
           id="g70"
           clip-path="url(#clipPath74)"><path
             d="m 3337.98,1893.93 c -332.05,-2.98 -664.05,-10.69 -995.88,-23.19 -330.14,-12.43 -660.1,-29.59 -989.75,-51.45 -185.01,-12.27 -369.916,-26.04 -554.709,-41.26 -13.68,-1.13 -25.414,-10.88 -25.414,-25.42 0,-12.87 11.656,-26.55 25.414,-25.41 330.939,27.26 662.269,49.82 993.849,67.59 329.91,17.68 660.06,30.64 990.34,38.89 185.35,4.62 370.75,7.76 556.15,9.42 32.69,0.29 32.78,51.13 0,50.83"
             style="fill:#53c7db;fill-opacity:1;fill-rule:nonzero;stroke:none"
             id="path76" /><path
             d="m 3451.45,1629.55 c -362.22,-34.52 -723.97,-73.8 -1085.14,-117.91 -361.6,-44.16 -722.63,-93.09 -1082.94,-146.81 -202.54,-30.18 -404.854,-61.9 -606.925,-95.11 -13.554,-2.23 -21.113,-19.04 -17.754,-31.26 3.961,-14.4 17.672,-19.99 31.27,-17.76 359.029,59 718.839,113.27 1079.319,162.73 358.22,49.15 717.1,93.46 1076.5,133.07 201.73,22.24 403.63,42.96 605.67,62.22 13.66,1.3 25.41,10.74 25.41,25.41 0,12.74 -11.67,26.73 -25.41,25.42"
             style="fill:#53c7db;fill-opacity:1;fill-rule:nonzero;stroke:none"
             id="path78" /><path
             d="m 3285.33,1203.93 c -323.5,-5.59 -646.95,-13.93 -970.31,-25.06 -322.51,-11.1 -644.93,-24.95 -967.2,-41.57 -181.38,-9.34 -362.722,-19.58 -544.011,-30.66 -32.5,-1.99 -32.723,-52.84 0,-50.84 322.941,19.76 646.051,36.77 969.291,50.99 322.39,14.19 644.9,25.62 967.49,34.29 181.56,4.88 363.14,8.88 544.74,12.02 32.67,0.56 32.78,51.39 0,50.83"
             style="fill:#53c7db;fill-opacity:1;fill-rule:nonzero;stroke:none"
             id="path80" /><path
             d="m 3310.03,920.051 c -284.83,-18.59 -569.54,-39.102 -854.1,-61.559 -284.55,-22.453 -568.96,-46.851 -853.18,-73.183 -159.77,-14.789 -319.49,-30.207 -479.14,-46.227 -13.66,-1.363 -25.42,-10.703 -25.42,-25.422 0,-12.668 11.68,-26.781 25.42,-25.41 284.02,28.492 568.22,55.07 852.6,79.699 284.38,24.641 568.92,47.332 853.6,68.102 160.03,11.668 320.11,22.711 480.22,33.168 13.7,0.89 25.42,11.031 25.42,25.41 0,13.07 -11.65,26.32 -25.42,25.422"
             style="fill:#53c7db;fill-opacity:1;fill-rule:nonzero;stroke:none"
             id="path82" /><path
             d="m 3172.43,552.461 c -262.1,-13.93 -524.1,-29.66 -785.98,-47.199 -261.04,-17.481 -521.96,-36.75 -782.73,-57.832 -147.21,-11.891 -294.37,-24.371 -441.49,-37.399 -13.68,-1.211 -25.42,-10.82 -25.42,-25.422 0,-12.808 11.67,-26.629 25.42,-25.418 261.44,23.161 523.04,44.547 784.78,64.11 260.9,19.488 521.93,37.199 783.06,53.109 147.42,8.969 294.88,17.371 442.36,25.211 32.54,1.731 32.74,52.578 0,50.84"
             style="fill:#53c7db;fill-opacity:1;fill-rule:nonzero;stroke:none"
             id="path84" /><path
             d="m 3090.46,178.012 c -236.55,9.039 -473.1,18.078 -709.65,27.117 -234.87,8.98 -469.73,17.961 -704.59,26.93 -133.49,5.101 -266.97,10.211 -400.45,15.3 -32.71,1.25 -32.66,-49.578 0,-50.828 236.55,-9.043 473.1,-18.082 709.65,-27.121 234.87,-8.98 469.73,-17.949 704.59,-26.93 133.49,-5.101 266.97,-10.199 400.45,-15.3 32.72,-1.25 32.67,49.582 0,50.832"
             style="fill:#53c7db;fill-opacity:1;fill-rule:nonzero;stroke:none"
             id="path86" /></g></g><path
         d="m 1381.29,1230.39 c -1.37,12.87 -21.71,13.02 -20.33,0 9.85,-92.33 19.68,-184.66 29.53,-276.992 1.37,-12.867 21.72,-13.019 20.33,0 -9.84,92.332 -19.68,184.662 -29.53,276.992"
         style="fill:#272736;fill-opacity:1;fill-rule:nonzero;stroke:none"
         id="path88" /><path
         d="m 2884.17,1531.85 c -0.6,13.02 -20.93,13.1 -20.33,0 3.53,-76.6 7.06,-153.19 10.6,-229.78 -51.82,120.16 -103.63,240.32 -155.46,360.49 -5.16,11.98 -22.68,1.64 -17.55,-10.26 58.98,-136.77 117.95,-273.54 176.93,-410.31 4.05,-9.39 19.38,-4.45 18.94,5.14 -4.37,94.9 -8.75,189.81 -13.13,284.72"
         style="fill:#272736;fill-opacity:1;fill-rule:nonzero;stroke:none"
         id="path90" /><path
         d="m 2519.31,716.609 c -176.19,-41.668 -351.09,-88.668 -524.43,-140.929 -12.5,-3.77 -7.17,-23.391 5.41,-19.598 173.34,52.25 348.24,99.25 524.42,140.918 12.73,3.012 7.34,22.629 -5.4,19.609"
         style="fill:#272736;fill-opacity:1;fill-rule:nonzero;stroke:none"
         id="path92" /><path
         d="m 2341.29,583.809 c -80.59,-14.84 -161.18,-29.688 -241.77,-44.528 -12.85,-2.383 -7.41,-21.98 5.41,-19.609 80.59,14.84 161.17,29.687 241.76,44.539 12.86,2.359 7.41,21.961 -5.4,19.598"
         style="fill:#272736;fill-opacity:1;fill-rule:nonzero;stroke:none"
         id="path94" /><path
         d="m 3298.29,642.422 c -11.9,-12.301 -31.32,-13.621 -48.29,-10.883 -41.08,6.711 -76.66,32.231 -106.55,61.113 -41.99,40.657 -75.53,88.95 -108.78,136.938 -36.4,52.461 -73.61,106.949 -85.81,169.57 -3.35,17.39 -4.68,35.79 1.53,52.46 6.1,16.57 21.05,30.91 38.83,31.72 17.69,0.71 35.38,-15.86 32.13,-33.24 10.57,14.33 23.48,29.99 41.28,31.21 16.97,1.32 32.43,-12.1 39.14,-27.85 6.71,-15.76 6.6,-33.45 6.4,-50.53 10.07,13.52 30.8,15.45 45.85,7.93 15.05,-7.63 25.12,-22.68 31.72,-38.13 21.86,-51.031 12.81,-109.39 1.63,-163.781 16.37,13.223 39.85,15.153 59.68,7.731 31.15,-4.641 53.37,-70.969 53.88,-74.731 4.47,-16.98 7.32,-34.25 8.64,-51.648 1.32,-16.871 0.51,-35.68 -11.28,-47.879"
         style="fill:#6fcfd7;fill-opacity:1;fill-rule:nonzero;stroke:none"
         id="path96" /><path
         d="m 3185.33,808.34 c -4.42,2.582 -11.57,1.34 -13.91,-3.649 -15.92,-33.832 -24.58,-70.41 -25.11,-107.82 -0.19,-13.09 20.14,-13.101 20.33,0 0.48,33.668 7.99,67.07 22.33,97.551 2.34,4.969 1.39,10.969 -3.64,13.918"
         style="fill:#272736;fill-opacity:1;fill-rule:nonzero;stroke:none"
         id="path98" /><path
         d="m 3095.48,1006.21 c -30.73,-65.851 -41.37,-138.472 -31.13,-210.378 1.84,-12.902 21.43,-7.41 19.61,5.406 -9.4,66.004 0.9,134.332 29.08,194.723 5.5,11.769 -12.02,22.119 -17.56,10.249"
         style="fill:#272736;fill-opacity:1;fill-rule:nonzero;stroke:none"
         id="path100" /><path
         d="m 3017.8,1051.57 c -5.74,1.58 -10.51,-1.95 -12.5,-7.1 -16.49,-42.63 -23.89,-88.54 -21.79,-134.208 0.6,-13.02 20.93,-13.102 20.33,0 -2.02,44.078 5.16,87.668 21.06,128.808 1.98,5.12 -2.18,11.15 -7.1,12.5"
         style="fill:#272736;fill-opacity:1;fill-rule:nonzero;stroke:none"
         id="path102" /><path
         d="M 6364.71,1992.13 6202.66,1972.2 6320.59,0 H 4162.84 l 77.37,1084.46 82.25,1151.97 -130.95,50.84 -58.35,22.66 c 0,0 289.64,634.49 373.01,723.55 83.36,88.96 449.26,183.71 449.26,183.71 h 0.51 c 0.2,-66.59 0.4,-133.18 0.71,-199.77 l 660.31,364.57 119.56,65.98 c 0,0 64.05,-57.44 109.29,-133.79 0,0 388.56,-146.5 469.18,-413.57 80.52,-267.08 152.2,-895.87 152.2,-895.87 l -102.48,-12.61"
         style="fill:#53c7db;fill-opacity:1;fill-rule:nonzero;stroke:none"
         id="path104" /><path
         d="m 6357.3,2005.91 c -200.68,-27.44 -401.36,-54.89 -602.05,-82.34 -52.73,-7.21 -105.47,-14.42 -158.21,-21.64 -24.84,158.88 -49.69,317.77 -74.54,476.64 -2.01,12.89 -21.61,7.42 -19.6,-5.41 24.95,-159.59 49.91,-319.19 74.87,-478.78 -0.81,-3.15 0.08,-6.8 2.36,-9.63 0.13,-0.21 0.32,-0.33 0.48,-0.51 0.62,-0.7 1.28,-1.34 2.08,-1.87 0.16,-0.08 0.33,-0.16 0.49,-0.24 1.95,-1.15 4.21,-1.87 6.9,-1.49 200.68,27.44 401.36,54.89 602.05,82.33 56.85,7.78 113.72,15.56 170.57,23.33 12.91,1.77 7.42,21.36 -5.4,19.61"
         style="fill:#272736;fill-opacity:1;fill-rule:nonzero;stroke:none"
         id="path106" /><path
         d="m 4496.4,2812.3 c -79.94,-181.99 -143.09,-371.01 -188.18,-564.61 -2.97,-12.74 16.63,-18.17 19.61,-5.41 44.67,191.83 106.91,379.42 186.13,559.76 5.2,11.87 -12.31,22.23 -17.56,10.26"
         style="fill:#272736;fill-opacity:1;fill-rule:nonzero;stroke:none"
         id="path108" /><path
         d="m 4305.84,2517.59 c -9.54,-77.86 -16.12,-156.05 -19.72,-234.41 -0.59,-13.08 19.74,-13.05 20.34,0 3.59,78.36 10.17,156.55 19.71,234.41 1.59,12.96 -18.75,12.84 -20.33,0"
         style="fill:#272736;fill-opacity:1;fill-rule:nonzero;stroke:none"
         id="path110" /><path
         d="m 4940.82,2158.47 c -154.51,-42.36 -309.02,-84.71 -463.53,-127.06 -12.6,-3.46 -7.25,-23.08 5.41,-19.61 154.51,42.35 309.02,84.7 463.53,127.06 12.6,3.45 7.25,23.07 -5.41,19.61"
         style="fill:#272736;fill-opacity:1;fill-rule:nonzero;stroke:none"
         id="path112" /><path
         d="m 4800.47,2004.57 c -85.83,-13.48 -171.66,-26.96 -257.49,-40.44 -12.89,-2.02 -7.42,-21.62 5.4,-19.61 85.83,13.49 171.66,26.96 257.49,40.45 12.89,2.02 7.42,21.61 -5.4,19.6"
         style="fill:#272736;fill-opacity:1;fill-rule:nonzero;stroke:none"
         id="path114" /><path
         d="m 5846.61,3310.16 c -130.48,-65.68 -263.06,-127.11 -397.52,-184.19 -12.01,-5.1 -1.66,-22.62 10.27,-17.55 134.46,57.07 267.04,118.5 397.52,184.18 11.68,5.88 1.4,23.43 -10.27,17.56"
         style="fill:#272736;fill-opacity:1;fill-rule:nonzero;stroke:none"
         id="path116" /><path
         d="m 4710.42,2989.52 c -10.32,9.47 -25.68,9.84 -35.95,0 -22.59,-21.68 -45.19,-43.35 -67.8,-65.03 -9.61,-9.22 -9.97,-26.79 0,-35.94 10.32,-9.48 25.68,-9.84 35.95,0 22.59,21.67 45.2,43.35 67.8,65.02 9.62,9.23 9.97,26.8 0,35.95"
         style="fill:#6fcfd7;fill-opacity:1;fill-rule:nonzero;stroke:none"
         id="path118" /><path
         d="m 4813.58,2822.62 c -4.7,32.98 -9.41,65.94 -14.12,98.92 -0.84,5.85 -6.84,12.36 -11.68,15.19 -5.45,3.19 -13.47,4.54 -19.59,2.56 -6.14,-1.99 -12.08,-5.8 -15.18,-11.68 -3.42,-6.46 -3.59,-12.42 -2.56,-19.58 l 14.12,-98.92 c 0.83,-5.85 6.84,-12.36 11.68,-15.19 5.45,-3.19 13.48,-4.54 19.59,-2.56 6.14,1.98 12.08,5.8 15.19,11.68 3.4,6.46 3.58,12.41 2.55,19.58"
         style="fill:#6fcfd7;fill-opacity:1;fill-rule:nonzero;stroke:none"
         id="path120" /><path
         d="m 4864.45,2978.44 c -14.13,30.15 -28.26,60.3 -42.39,90.44 -2.56,5.47 -9.58,10.14 -15.18,11.68 -6.09,1.68 -14.19,0.92 -19.59,-2.56 -12.44,-8.01 -15.18,-21.86 -9.13,-34.77 14.13,-30.15 28.27,-60.3 42.4,-90.44 2.57,-5.47 9.59,-10.14 15.19,-11.69 6.09,-1.67 14.18,-0.91 19.58,2.57 12.43,8.01 15.18,21.86 9.12,34.77"
         style="fill:#6fcfd7;fill-opacity:1;fill-rule:nonzero;stroke:none"
         id="path122" /><path
         d="m 4683.79,2793.98 c -1.62,5.9 -6.18,12.29 -11.68,15.19 -12.97,6.86 -26.65,2.58 -34.78,-9.11 -18.47,-26.63 -36.96,-53.26 -55.45,-79.88 -3.58,-5.17 -4.17,-13.72 -2.55,-19.58 1.62,-5.9 6.18,-12.29 11.68,-15.19 12.96,-6.86 26.66,-2.58 34.77,9.11 18.49,26.63 36.96,53.25 55.45,79.88 3.59,5.17 4.18,13.72 2.56,19.58"
         style="fill:#6fcfd7;fill-opacity:1;fill-rule:nonzero;stroke:none"
         id="path124" /><path
         d="m 4827.86,2697.05 c -4.01,12.38 -17.83,22.45 -31.27,17.75 -32.91,-11.48 -65.81,-22.97 -98.72,-34.46 -12.53,-4.38 -22.18,-17.6 -17.75,-31.27 4,-12.38 17.82,-22.44 31.27,-17.75 32.9,11.49 65.81,22.98 98.72,34.47 12.52,4.37 22.18,17.59 17.75,31.26"
         style="fill:#6fcfd7;fill-opacity:1;fill-rule:nonzero;stroke:none"
         id="path126" /><path
         d="m 4969.16,2828.63 c -3.09,5.27 -9.13,10.3 -15.2,11.68 -12.33,2.81 -28.83,-3.74 -31.25,-17.75 -2.83,-16.37 -6.77,-32.52 -11.92,-48.31 -2.52,-7.75 -5.32,-15.41 -8.4,-22.97 -0.18,-0.45 -0.26,-0.65 -0.38,-0.94 -0.04,-0.1 -0.05,-0.12 -0.11,-0.23 -0.83,-1.86 -1.64,-3.73 -2.48,-5.59 -1.81,-3.97 -3.71,-7.91 -5.66,-11.81 -5.95,-11.88 -3.55,-28.08 9.11,-34.78 11.52,-6.08 28.43,-3.57 34.78,9.12 16.12,32.22 27.94,66.47 34.07,102 1.19,6.9 1.09,13.33 -2.56,19.58"
         style="fill:#6fcfd7;fill-opacity:1;fill-rule:nonzero;stroke:none"
         id="path128" /><path
         d="m 6361.5,2189.35 c -24.61,35.72 -49.22,71.44 -73.82,107.16 -7.52,10.93 -22.64,16.94 -34.77,9.13 -10.87,-7.02 -17.19,-23.07 -9.12,-34.78 24.61,-35.72 49.21,-71.45 73.82,-107.17 7.53,-10.93 22.64,-16.93 34.77,-9.12 10.87,7.01 17.19,23.07 9.12,34.78"
         style="fill:#6fcfd7;fill-opacity:1;fill-rule:nonzero;stroke:none"
         id="path130" /><path
         d="m 6246.36,2170.45 c -12.5,6.61 -27.22,2.93 -34.78,-9.11 -17.09,-27.24 -34.17,-54.48 -51.26,-81.72 -7.08,-11.28 -2.75,-28.5 9.12,-34.78 12.5,-6.6 27.22,-2.92 34.78,9.13 17.08,27.23 34.17,54.47 51.26,81.71 7.08,11.28 2.75,28.5 -9.12,34.77"
         style="fill:#6fcfd7;fill-opacity:1;fill-rule:nonzero;stroke:none"
         id="path132" /><path
         d="m 6079.83,2211.01 c -0.28,13.28 -11.49,26.03 -25.42,25.42 -13.53,-0.62 -25.71,-11.19 -25.42,-25.42 0.76,-35.8 1.51,-71.62 2.26,-107.42 0.28,-13.28 11.49,-26.03 25.42,-25.41 13.52,0.61 25.71,11.18 25.41,25.41 -0.75,35.8 -1.5,71.62 -2.25,107.42"
         style="fill:#6fcfd7;fill-opacity:1;fill-rule:nonzero;stroke:none"
         id="path134" /><path
         d="m 6220.9,2376.73 c -7.78,12.04 -22.14,15.68 -34.78,9.12 -30.29,-15.74 -60.58,-31.48 -90.88,-47.22 -11.81,-6.13 -16.3,-23.63 -9.11,-34.76 7.77,-12.05 22.13,-15.7 34.78,-9.12 30.28,15.73 60.57,31.47 90.87,47.2 11.81,6.15 16.3,23.64 9.12,34.78"
         style="fill:#6fcfd7;fill-opacity:1;fill-rule:nonzero;stroke:none"
         id="path136" /><path
         d="m 6335.3,2496.51 c -0.59,6.86 -2.43,12.96 -7.44,17.98 -4.4,4.41 -11.64,7.72 -17.97,7.44 -12.78,-0.57 -26.66,-11.23 -25.42,-25.42 2.8,-32.03 5.61,-64.06 8.41,-96.09 0.61,-6.87 2.43,-12.96 7.44,-17.98 4.42,-4.4 11.65,-7.72 17.98,-7.44 12.77,0.58 26.66,11.23 25.42,25.42 -2.81,32.03 -5.62,64.06 -8.42,96.09"
         style="fill:#6fcfd7;fill-opacity:1;fill-rule:nonzero;stroke:none"
         id="path138" /><path
         d="m 6220.1,2597.75 c -12.99,6.86 -26.63,2.55 -34.78,-9.12 l -65.03,-93.24 c -7.62,-10.95 -2.35,-28.72 9.12,-34.78 13,-6.87 26.63,-2.55 34.78,9.12 21.68,31.08 43.35,62.16 65.03,93.24 7.63,10.94 2.35,28.72 -9.12,34.78"
         style="fill:#6fcfd7;fill-opacity:1;fill-rule:nonzero;stroke:none"
         id="path140" /><path
         d="m 4321.45,522.02 c -8.94,39.46 -17.87,78.929 -26.8,118.39 -2.94,12.988 -18.62,21.852 -31.27,17.75 -13.59,-4.398 -20.9,-17.351 -17.75,-31.262 8.93,-39.468 17.87,-78.929 26.8,-118.386 2.94,-12.981 18.62,-21.852 31.26,-17.762 13.6,4.41 20.9,17.371 17.76,31.27"
         style="fill:#6fcfd7;fill-opacity:1;fill-rule:nonzero;stroke:none"
         id="path142" /><path
         d="m 4427.64,813.609 c -4.85,4.461 -11.21,7.762 -17.98,7.45 -7.2,-0.317 -12.34,-3.067 -17.97,-7.45 -28.15,-21.8 -56.31,-43.609 -84.45,-65.418 -4.78,-3.699 -7.45,-12.269 -7.45,-17.972 0,-6.239 2.77,-13.688 7.45,-17.969 4.84,-4.449 11.2,-7.75 17.97,-7.449 7.19,0.328 12.33,3.078 17.96,7.449 28.16,21.801 56.31,43.621 84.47,65.43 4.76,3.691 7.44,12.261 7.44,17.961 0,6.238 -2.78,13.691 -7.44,17.968"
         style="fill:#6fcfd7;fill-opacity:1;fill-rule:nonzero;stroke:none"
         id="path144" /><path
         d="m 4327.01,983.199 c -3.08,5.281 -9.13,10.301 -15.19,11.68 -6.51,1.492 -13.81,1.172 -19.58,-2.57 -5.13,-3.297 -10.82,-8.829 -11.68,-15.18 -4.71,-34.848 -9.43,-69.719 -14.13,-104.57 -0.96,-7.098 -1.22,-13.129 2.56,-19.59 3.09,-5.258 9.14,-10.289 15.19,-11.68 6.5,-1.48 13.81,-1.148 19.58,2.57 5.14,3.301 10.83,8.84 11.69,15.18 4.71,34.871 9.41,69.723 14.12,104.57 0.96,7.102 1.22,13.133 -2.56,19.59"
         style="fill:#6fcfd7;fill-opacity:1;fill-rule:nonzero;stroke:none"
         id="path146" /><path
         d="m 4492.22,998.582 c -1.1,13.228 -10.91,26.068 -25.42,25.418 -12.84,-0.57 -26.59,-11.23 -25.42,-25.418 2.95,-35.793 5.91,-71.57 8.85,-107.363 1.1,-13.207 10.91,-26.059 25.42,-25.418 12.84,0.578 26.59,11.23 25.41,25.418 -2.94,35.793 -5.89,71.57 -8.84,107.363"
         style="fill:#6fcfd7;fill-opacity:1;fill-rule:nonzero;stroke:none"
         id="path148" /><path
         d="m 4491.4,683.551 c -6.85,10.629 -23.27,17.48 -34.78,9.121 -28.35,-20.613 -56.7,-41.211 -85.05,-61.813 -5.51,-4 -9.8,-8.398 -11.68,-15.199 -1.67,-6.078 -0.92,-14.18 2.57,-19.578 6.85,-10.633 23.27,-17.48 34.78,-9.121 28.35,20.609 56.7,41.211 85.05,61.82 5.5,4 9.8,8.391 11.67,15.188 1.67,6.082 0.92,14.179 -2.56,19.582"
         style="fill:#6fcfd7;fill-opacity:1;fill-rule:nonzero;stroke:none"
         id="path150" /><path
         d="m 4599.43,814.852 c -14.5,-0.653 -24.51,-11.18 -25.42,-25.422 l -6.51,-101.692 c -0.85,-13.289 12.29,-25.996 25.41,-25.418 14.5,0.66 24.51,11.192 25.42,25.418 l 6.51,101.692 c 0.85,13.289 -12.29,26.011 -25.41,25.422"
         style="fill:#6fcfd7;fill-opacity:1;fill-rule:nonzero;stroke:none"
         id="path152" /><path
         d="m 4482.87,535.109 c -14.66,-0.66 -24.31,-11.179 -25.42,-25.41 -2.57,-33 -5.15,-65.988 -7.71,-98.988 -1.04,-13.281 12.43,-25.992 25.42,-25.41 14.64,0.66 24.29,11.179 25.41,25.41 2.57,33 5.14,65.988 7.72,98.988 1.04,13.281 -12.43,25.992 -25.42,25.41"
         style="fill:#6fcfd7;fill-opacity:1;fill-rule:nonzero;stroke:none"
         id="path154" /><path
         d="m 4386.73,296.742 c -14.42,13.11 -28.03,27.11 -40.68,41.938 -3.12,3.66 -6.18,7.371 -9.17,11.121 -0.68,0.84 -1.34,1.668 -2,2.508 -0.11,0.14 -0.22,0.281 -0.33,0.41 -1.15,1.551 -2.33,3.082 -3.49,4.621 -5.89,7.93 -11.51,16.058 -16.89,24.351 -7.23,11.141 -22.86,16.801 -34.78,9.118 -11.12,-7.18 -16.85,-22.848 -9.11,-34.77 22.68,-34.949 49.68,-67.207 80.51,-95.25 9.84,-8.937 26.36,-10.437 35.94,0 8.95,9.75 10.51,26.391 0,35.953"
         style="fill:#6fcfd7;fill-opacity:1;fill-rule:nonzero;stroke:none"
         id="path156" /><path
         d="m 5671.96,1906.93 692.75,85.2 C 6364.4,1887.51 6358,1164.78 6255.21,1011.47 6091.74,767.57 4592.89,1196.4 4592.89,1196.4 l 88.75,451.79 981.38,-137.14 9.45,391.92 -0.51,3.96"
         style="fill:#f89a7e;fill-opacity:1;fill-rule:nonzero;stroke:none"
         id="path158" /><path
         d="m 4711.03,3422.86 c -124.34,145.48 -153.22,604.5 -150.68,788.31 0.52,38.43 2.55,77.06 6.31,115.49 202.82,43.01 414.18,33.25 618.02,-4.67 36.5,-6.81 72.79,-14.44 108.88,-22.98 40.97,-60.08 77.78,-123.01 110.41,-188.18 l 3.67,1.93 c 13.41,34.87 34.86,68.22 66.89,87.43 24.09,14.44 54.89,19.21 81.12,10.88 8.75,-2.75 16.99,-6.91 24.41,-12.71 25.21,-19.82 35.38,-53.47 38.63,-85.4 10.68,-108.07 -47.48,-219.8 -141.82,-273.27 16.47,-64.46 34.36,-128.71 53.47,-192.45 26.44,-89.16 55.3,-177.62 86.62,-265.25 l -660.31,-364.57 c -0.31,66.59 -0.51,133.18 -0.71,199.77 -0.21,43.51 -0.31,87.13 -0.51,130.64 -88.65,-8.13 -187.17,7.93 -244.4,75.03"
         style="fill:#f89a7e;fill-opacity:1;fill-rule:nonzero;stroke:none"
         id="path160" /><path
         d="m 5293.56,4299.01 c -36.09,8.54 -72.38,16.17 -108.88,22.98 -203.84,37.92 -415.2,47.68 -618.02,4.67 14.34,145.18 53.48,288.12 129.32,411.95 35.38,57.64 81.13,112.75 143.85,137.96 62.12,24.91 132.06,17.28 197.94,5.49 181.99,-32.33 358.88,-92.82 522.56,-178.73 66.8,-34.97 134.3,-77.06 171.11,-142.84 35.07,-62.31 37.61,-137.04 39.24,-208.51 1.62,-65.37 2.85,-132.17 -4.17,-197.13 -68.52,24.1 -137.35,47.68 -206.58,69.74 -87.95,28.06 -176.59,53.58 -266.37,74.42"
         style="fill:#6fcfd7;fill-opacity:1;fill-rule:nonzero;stroke:none"
         id="path162" /><path
         d="m 5766.51,4154.85 c -6.4,-59.58 -19.72,-117.63 -46.05,-171.41 -57.04,-116.71 -172.83,-209.12 -190.12,-336.2 -19.11,63.74 -37,127.99 -53.47,192.45 94.34,53.47 152.5,165.2 141.82,273.27 -3.25,31.93 -13.42,65.58 -38.63,85.4 -7.42,5.8 -15.66,9.96 -24.41,12.71 -26.23,8.33 -57.03,3.56 -81.12,-10.88 -32.03,-19.21 -53.48,-52.56 -66.89,-87.43 l -3.67,-1.93 c -32.63,65.17 -69.44,128.1 -110.41,188.18 89.78,-20.84 178.43,-46.36 266.36,-74.42 69.24,-22.06 138.07,-45.64 206.59,-69.74"
         style="fill:#272736;fill-opacity:1;fill-rule:nonzero;stroke:none"
         id="path164" /><path
         d="m 4895.84,3750.46 c -45.58,-13.56 -91.15,-27.12 -136.74,-40.68 -8.53,135.43 -10.41,271.2 -5.49,406.8 0.48,13.09 -19.85,13.07 -20.33,0 -5.09,-140.08 -2.99,-280.33 6.3,-420.19 0.42,-6.4 6.17,-11.8 12.86,-9.8 l 148.8,44.26 c 12.51,3.73 7.19,23.35 -5.4,19.61"
         style="fill:#272736;fill-opacity:1;fill-rule:nonzero;stroke:none"
         id="path166" /><path
         d="m 5300.25,3549.63 c -83.79,-105.47 -208.05,-176.4 -341.95,-193.07 -12.81,-1.6 -12.97,-21.95 0,-20.33 139.15,17.32 268.97,89.06 356.33,199.02 8.06,10.15 -6.23,24.63 -14.38,14.38"
         style="fill:#272736;fill-opacity:1;fill-rule:nonzero;stroke:none"
         id="path168" /><path
         d="m 5540.64,4172.73 c -18.77,1.99 -34.59,-10.44 -44.71,-25.15 -26.24,-38.15 -23.84,-88.97 -21.45,-132.97 0.62,-11.25 16.68,-14.04 19.97,-2.7 2.89,9.98 14.04,15.68 24.05,13 11.51,-3.07 18.65,-15.15 19.76,-26.36 2.82,-28.55 -23.26,-49.16 -44.5,-62.92 -10.95,-7.09 -0.77,-24.7 10.25,-17.56 32.79,21.23 70.02,59.37 48.91,101.63 -7.81,15.65 -23.94,27.13 -41.83,26.05 -6.27,-0.38 -12.21,-2.16 -17.47,-5.06 -0.68,22.95 0.12,46.02 6.67,68.08 3.87,13.02 9.92,27.53 20.38,36.73 7.82,6.86 29.95,12.46 31.53,-3.97 1.23,-12.91 21.58,-13.04 20.33,0 -1.64,17.14 -14.77,29.38 -31.89,31.2"
         style="fill:#272736;fill-opacity:1;fill-rule:nonzero;stroke:none"
         id="path170" /><path
         d="m 4900.21,4062.7 c -0.07,-32.12 21.05,-58.21 47.18,-58.27 26.13,-0.07 47.38,25.92 47.45,58.04 0.08,32.12 -21.04,58.21 -47.17,58.28 -26.13,0.06 -47.38,-25.93 -47.46,-58.05"
         style="fill:#272736;fill-opacity:1;fill-rule:nonzero;stroke:none"
         id="path172" /><path
         d="m 5050.09,3812.9 c -0.17,-69.83 56.3,-126.57 126.12,-126.73 69.83,-0.17 126.56,56.3 126.73,126.12 0.18,69.82 -56.3,126.56 -126.12,126.73 -69.82,0.16 -126.56,-56.3 -126.73,-126.12"
         style="fill:#f57a7f;fill-opacity:1;fill-rule:nonzero;stroke:none"
         id="path174" /><path
         d="m 4906.22,4202.32 c 34.87,1.26 70.35,-3.86 103.42,-15.02 12.58,-4.23 22.05,-17.84 17.61,-31.35 -4.12,-12.53 -17.87,-22.15 -31.35,-17.59 -15.16,5.1 -30.58,8.67 -46.33,11.26 -0.61,0.08 -1.22,0.15 -1.83,0.23 -1.8,0.21 -3.61,0.41 -5.43,0.58 -3.92,0.39 -7.85,0.68 -11.78,0.89 -8.19,0.43 -16.37,0.46 -24.55,0.17 -13.31,-0.48 -25.96,12.2 -25.3,25.54 0.71,14.23 11.28,24.78 25.54,25.29"
         style="fill:#272736;fill-opacity:1;fill-rule:nonzero;stroke:none"
         id="path176" /><path
         d="m 4679.33,4063.77 c -0.23,-32.13 -21.61,-58.01 -47.73,-57.83 -26.13,0.19 -47.12,26.38 -46.89,58.5 0.23,32.13 21.6,58.01 47.73,57.83 26.12,-0.2 47.12,-26.39 46.89,-58.5"
         style="fill:#272736;fill-opacity:1;fill-rule:nonzero;stroke:none"
         id="path178" /><path
         d="m 4674.68,4203.44 c -34.88,1.59 -70.39,-3.19 -103.57,-14.03 -12.61,-4.11 -22.21,-17.62 -17.91,-31.17 4.01,-12.58 17.65,-22.32 31.18,-17.91 15.2,4.96 30.66,8.39 46.44,10.83 0.61,0.07 1.22,0.14 1.83,0.21 1.8,0.19 3.62,0.37 5.43,0.53 3.92,0.34 7.86,0.6 11.8,0.77 8.19,0.36 16.37,0.31 24.55,-0.07 13.29,-0.6 26.07,11.95 25.54,25.29 -0.57,14.24 -11.04,24.9 -25.29,25.55"
         style="fill:#272736;fill-opacity:1;fill-rule:nonzero;stroke:none"
         id="path180" /><path
         d="m 5451.75,4739.53 c -4.27,12.29 -23.92,7.01 -19.61,-5.4 49.58,-142.73 64.99,-296.33 43.69,-445.99 -1.83,-12.8 17.76,-18.34 19.6,-5.41 21.83,153.35 7.17,310.41 -43.68,456.8"
         style="fill:#53c7db;fill-opacity:1;fill-rule:nonzero;stroke:none"
         id="path182" /><path
         d="m 4078.72,1868.9 -552.02,-437.21 -115.24,145.51 552.01,437.2 115.25,-145.5"
         style="fill:#ffffff;fill-opacity:1;fill-rule:nonzero;stroke:none"
         id="path184" /><path
         d="m 3509.55,1453.35 -43.66,-34.58 -77.75,98.16 43.66,34.58 77.75,-98.16"
         style="fill:#53c7db;fill-opacity:1;fill-rule:nonzero;stroke:none"
         id="path186" /><path
         d="m 3436.7,1455.63 -248.37,-196.73 -14.55,18.37 248.38,196.71 14.54,-18.35"
         style="fill:#272736;fill-opacity:1;fill-rule:nonzero;stroke:none"
         id="path188" /><path
         d="m 4063.1,1856.52 -523.53,-414.64 -100.36,126.69 523.53,414.66 100.36,-126.71"
         style="fill:#e8d0b8;fill-opacity:1;fill-rule:nonzero;stroke:none"
         id="path190" /><path
         d="m 3847.12,1724.7 -305.08,-241.63 c -10.33,-8.19 2.36,-24.25 12.71,-16.06 l 305.08,241.64 c 10.33,8.18 -2.36,24.24 -12.71,16.05"
         style="fill:#272736;fill-opacity:1;fill-rule:nonzero;stroke:none"
         id="path192" /><path
         d="m 3475.4,1616.04 c -4.2,-3.65 -5.23,-9.89 -1.67,-14.39 l 33.57,-42.39 c 3.33,-4.19 10.2,-5.29 14.38,-1.67 4.19,3.64 5.23,9.88 1.67,14.38 l -33.57,42.4 c -3.32,4.19 -10.2,5.29 -14.38,1.67"
         style="fill:#272736;fill-opacity:1;fill-rule:nonzero;stroke:none"
         id="path194" /><path
         d="m 3528.6,1658.16 c -4.2,-3.63 -5.23,-9.87 -1.67,-14.37 l 18.99,-23.99 c 3.33,-4.19 10.21,-5.29 14.39,-1.66 4.19,3.64 5.23,9.88 1.67,14.38 l -19,23.98 c -3.32,4.19 -10.2,5.3 -14.38,1.66"
         style="fill:#272736;fill-opacity:1;fill-rule:nonzero;stroke:none"
         id="path196" /><path
         d="m 3584.89,1702.75 c -4.19,-3.63 -5.23,-9.88 -1.66,-14.37 l 33.57,-42.39 c 3.32,-4.2 10.2,-5.3 14.38,-1.67 4.2,3.64 5.23,9.88 1.67,14.38 l -33.57,42.38 c -3.33,4.2 -10.2,5.31 -14.39,1.67"
         style="fill:#272736;fill-opacity:1;fill-rule:nonzero;stroke:none"
         id="path198" /><path
         d="m 3638.1,1744.89 c -4.2,-3.64 -5.23,-9.88 -1.67,-14.38 l 18.99,-23.98 c 3.33,-4.2 10.21,-5.3 14.38,-1.67 4.2,3.64 5.23,9.89 1.67,14.38 l -18.99,23.98 c -3.32,4.2 -10.2,5.3 -14.38,1.67"
         style="fill:#272736;fill-opacity:1;fill-rule:nonzero;stroke:none"
         id="path200" /><path
         d="m 3681.79,1782.23 c -4.19,-3.65 -5.23,-9.89 -1.67,-14.39 l 33.58,-42.38 c 3.32,-4.2 10.2,-5.3 14.38,-1.67 4.19,3.63 5.23,9.88 1.67,14.37 l -33.58,42.4 c -3.32,4.2 -10.2,5.29 -14.38,1.67"
         style="fill:#272736;fill-opacity:1;fill-rule:nonzero;stroke:none"
         id="path202" /><path
         d="m 3735,1824.37 c -4.2,-3.65 -5.24,-9.89 -1.67,-14.39 l 18.99,-23.98 c 3.32,-4.2 10.2,-5.3 14.38,-1.67 4.2,3.64 5.23,9.88 1.67,14.38 l -18.99,23.99 c -3.33,4.19 -10.21,5.29 -14.38,1.67"
         style="fill:#272736;fill-opacity:1;fill-rule:nonzero;stroke:none"
         id="path204" /><path
         d="m 3791.29,1868.95 c -4.19,-3.64 -5.24,-9.88 -1.67,-14.38 l 33.57,-42.39 c 3.32,-4.2 10.21,-5.29 14.39,-1.67 4.19,3.64 5.22,9.88 1.67,14.38 l -33.58,42.4 c -3.33,4.18 -10.2,5.29 -14.38,1.66"
         style="fill:#272736;fill-opacity:1;fill-rule:nonzero;stroke:none"
         id="path206" /><path
         d="m 3844.49,1911.08 c -4.2,-3.63 -5.23,-9.88 -1.67,-14.37 l 19,-23.99 c 3.33,-4.19 10.2,-5.29 14.38,-1.67 4.19,3.65 5.24,9.89 1.67,14.39 l -18.99,23.97 c -3.33,4.2 -10.21,5.31 -14.39,1.67"
         style="fill:#272736;fill-opacity:1;fill-rule:nonzero;stroke:none"
         id="path208" /><path
         d="m 4698.37,1659.9 -102.2,-493.64 -382.02,175.22 c 0,0 -283.56,54.36 -314.66,122.81 -31.08,68.43 -47.1,274.75 -47.1,274.75 0,0 -81.01,62.88 -99.39,128.59 -18.37,65.71 5.65,229.64 59.35,230.34 53.7,0.7 96.1,-179.46 96.1,-179.46 l 174.49,-92.02 c 0,0 -154,217.07 -137.75,271.48 16.25,54.4 257.18,-153.59 257.18,-153.59 0,0 187.04,-100.06 209.05,-236.43 l 286.95,-48.05"
         style="fill:#6fcfd7;fill-opacity:1;fill-rule:nonzero;stroke:none"
         id="path210" /><path
         d="m 4787.9,3870.47 c 159.08,4.37 376.48,-19.51 422.28,-24.81 63.98,91.98 127.96,183.97 191.95,275.94 7.83,11.27 26.49,0.59 18.57,-10.8 -66.78,-96.01 -133.58,-192.02 -200.37,-288.04 l 16.42,-269.66 c 124.85,-18.08 226.84,-42.19 350.83,-65.47 13.57,-2.55 7.88,-23.27 -5.67,-20.74 -123.87,23.27 -225.76,47.36 -350.5,65.42 -30.88,-27.45 -175.43,-144.89 -385.62,-141.25 -237.93,4.13 -245.24,149.45 -245.24,149.45 l -40.34,214.93 c 0,0 49.01,110.12 227.69,115.03"
         style="fill:#9cdedd;fill-opacity:1;fill-rule:nonzero;stroke:none"
         id="path212" /><path
         d="m 4612.22,3717.55 c 145.04,72.58 309.95,48.07 463.51,23.03 12.89,-2.1 7.42,-21.7 -5.4,-19.61 -147.59,24.06 -308.3,48.85 -447.85,-20.97 -11.67,-5.84 -21.98,11.69 -10.26,17.55"
         style="fill:#53c7db;fill-opacity:1;fill-rule:nonzero;stroke:none"
         id="path214" /><path
         d="m 4666.99,3543.05 c 132.27,-9.66 265.91,12.26 387.82,64.65 11.9,5.11 22.26,-12.4 10.27,-17.56 -125.28,-53.83 -262.02,-77.36 -398.09,-67.43 -12.97,0.95 -13.07,21.29 0,20.34"
         style="fill:#53c7db;fill-opacity:1;fill-rule:nonzero;stroke:none"
         id="path216" /></g></g></svg>
