<?xml version="1.0" encoding="UTF-8" standalone="no"?>
<svg
   xmlns:dc="http://purl.org/dc/elements/1.1/"
   xmlns:cc="http://creativecommons.org/ns#"
   xmlns:rdf="http://www.w3.org/1999/02/22-rdf-syntax-ns#"
   xmlns:svg="http://www.w3.org/2000/svg"
   xmlns="http://www.w3.org/2000/svg"
   xmlns:sodipodi="http://sodipodi.sourceforge.net/DTD/sodipodi-0.dtd"
   xmlns:inkscape="http://www.inkscape.org/namespaces/inkscape"
   version="1.1"
   id="svg10"
   xml:space="preserve"
   width="666.66669"
   height="666.66669"
   viewBox="0 0 666.66669 666.66669"
   sodipodi:docname="hero.svg"
   inkscape:version="1.0.2 (e86c870879, 2021-01-15)"><metadata
     id="metadata16"><rdf:RDF><cc:Work
         rdf:about=""><dc:format>image/svg+xml</dc:format><dc:type
           rdf:resource="http://purl.org/dc/dcmitype/StillImage" /><dc:title></dc:title></cc:Work></rdf:RDF></metadata><defs
     id="defs14"><clipPath
       clipPathUnits="userSpaceOnUse"
       id="clipPath328"><path
         d="M 2767.77,3164.91 H 331.324 c -22.285,0 -40.351,18.06 -40.351,40.34 v 1196.16 c 0,22.28 18.066,40.35 40.351,40.35 H 2767.77 c 22.28,0 40.35,-18.07 40.35,-40.35 V 3205.25 c 0,-22.28 -18.07,-40.34 -40.35,-40.34"
         id="path326" /></clipPath></defs><sodipodi:namedview
     pagecolor="#ffffff"
     bordercolor="#666666"
     borderopacity="1"
     objecttolerance="10"
     gridtolerance="10"
     guidetolerance="10"
     inkscape:pageopacity="0"
     inkscape:pageshadow="2"
     inkscape:window-width="743"
     inkscape:window-height="480"
     id="namedview12"
     showgrid="false"
     inkscape:zoom="1.275"
     inkscape:cx="333.33334"
     inkscape:cy="333.33334"
     inkscape:window-x="1975"
     inkscape:window-y="128"
     inkscape:window-maximized="0"
     inkscape:current-layer="g18" /><g
     id="g18"
     inkscape:groupmode="layer"
     inkscape:label="ink_ext_XXXXXX"
     transform="matrix(1.3333333,0,0,-1.3333333,0,666.66667)"><g
       id="g20"
       transform="scale(0.1)"><path
         d="M 0,0 H 5000 V 5000 H 0 Z"
         style="fill:#86d7e1;fill-opacity:1;fill-rule:nonzero;stroke:none"
         id="path22" /><path
         d="m 711.645,1475.47 -396.856,-557.29 31.672,-52.77 432.734,593.16 -67.55,16.9"
         style="fill:#213046;fill-opacity:1;fill-rule:nonzero;stroke:none"
         id="path24" /><path
         d="m 281.02,386.238 h 65.4414 V 932.961 H 281.02 Z"
         style="fill:#213046;fill-opacity:1;fill-rule:nonzero;stroke:none"
         id="path26" /><path
         d="M 456.227,351.051 H 173.363 v 158.32 h 282.864 v -158.32"
         style="fill:#374868;fill-opacity:1;fill-rule:nonzero;stroke:none"
         id="path28" /><path
         d="M 136.422,194.852 H 70.9805 c -37.8789,0 -68.60159,30.718 -68.60159,68.609 V 596.98 c 0,37.879 30.72269,68.61 68.60159,68.61 h 65.4415 c 37.891,0 68.601,-30.731 68.601,-68.61 V 263.461 c 0,-37.891 -30.71,-68.609 -68.601,-68.609"
         style="fill:#213046;fill-opacity:1;fill-rule:nonzero;stroke:none"
         id="path30" /><path
         d="m 558.598,194.852 h -65.426 c -37.895,0 -68.606,30.718 -68.606,68.609 V 596.98 c 0,37.879 30.711,68.61 68.606,68.61 h 65.426 c 37.89,0 68.617,-30.731 68.617,-68.61 V 263.461 c 0,-37.891 -30.727,-68.609 -68.617,-68.609"
         style="fill:#213046;fill-opacity:1;fill-rule:nonzero;stroke:none"
         id="path32" /><path
         d="m 314.789,789.422 h -6.324 c -38.469,0 -69.66,31.187 -69.66,69.66 V 1549.35 H 384.461 V 859.082 c 0,-38.473 -31.195,-69.66 -69.672,-69.66"
         style="fill:#374868;fill-opacity:1;fill-rule:nonzero;stroke:none"
         id="path34" /><path
         d="m 3361.83,1475.47 396.85,-557.29 -31.66,-52.77 -432.74,593.16 67.55,16.9"
         style="fill:#213046;fill-opacity:1;fill-rule:nonzero;stroke:none"
         id="path36" /><path
         d="m 3727.02,386.238 h 65.4414 V 932.961 H 3727.02 Z"
         style="fill:#213046;fill-opacity:1;fill-rule:nonzero;stroke:none"
         id="path38" /><path
         d="m 3617.25,351.051 h 282.86 v 158.32 h -282.86 v -158.32"
         style="fill:#374868;fill-opacity:1;fill-rule:nonzero;stroke:none"
         id="path40" /><path
         d="m 3937.06,194.852 h 65.43 c 37.89,0 68.6,30.718 68.6,68.609 V 596.98 c 0,37.879 -30.71,68.61 -68.6,68.61 h -65.43 c -37.89,0 -68.62,-30.731 -68.62,-68.61 V 263.461 c 0,-37.891 30.73,-68.609 68.62,-68.609"
         style="fill:#213046;fill-opacity:1;fill-rule:nonzero;stroke:none"
         id="path42" /><path
         d="m 3514.87,194.852 h 65.44 c 37.89,0 68.6,30.718 68.6,68.609 V 596.98 c 0,37.879 -30.71,68.61 -68.6,68.61 h -65.44 c -37.88,0 -68.6,-30.731 -68.6,-68.61 V 263.461 c 0,-37.891 30.72,-68.609 68.6,-68.609"
         style="fill:#213046;fill-opacity:1;fill-rule:nonzero;stroke:none"
         id="path44" /><path
         d="m 3758.68,789.422 h 6.33 c 38.47,0 69.66,31.187 69.66,69.66 V 1549.35 H 3689.02 V 859.082 c 0,-38.473 31.19,-69.66 69.66,-69.66"
         style="fill:#374868;fill-opacity:1;fill-rule:nonzero;stroke:none"
         id="path46" /><path
         d="m 2055.93,622.609 h -44.14 V 253.82 h 44.14 v 368.789"
         style="fill:#213046;fill-opacity:1;fill-rule:nonzero;stroke:none"
         id="path48" /><path
         d="m 1937.75,230.09 h 190.8 v 106.781 h -190.8 V 230.09"
         style="fill:#374868;fill-opacity:1;fill-rule:nonzero;stroke:none"
         id="path50" /><path
         d="m 2153.47,124.719 h 44.14 c 25.56,0 46.28,20.722 46.28,46.281 v 224.969 c 0,25.562 -20.72,46.281 -46.28,46.281 h -44.14 c -25.55,0 -46.28,-20.719 -46.28,-46.281 V 171 c 0,-25.559 20.73,-46.281 46.28,-46.281"
         style="fill:#213046;fill-opacity:1;fill-rule:nonzero;stroke:none"
         id="path52" /><path
         d="m 1868.69,124.719 h 44.14 c 25.55,0 46.28,20.722 46.28,46.281 v 224.969 c 0,25.562 -20.73,46.281 -46.28,46.281 h -44.14 c -25.56,0 -46.27,-20.719 -46.27,-46.281 V 171 c 0,-25.559 20.71,-46.281 46.27,-46.281"
         style="fill:#213046;fill-opacity:1;fill-rule:nonzero;stroke:none"
         id="path54" /><path
         d="m 2033.15,525.781 h 4.27 c 25.95,0 46.99,21.039 46.99,46.989 v 465.62 h -98.25 V 572.77 c 0,-25.95 21.04,-46.989 46.99,-46.989"
         style="fill:#374868;fill-opacity:1;fill-rule:nonzero;stroke:none"
         id="path56" /><path
         d="m -49.2031,2551.86 v -105.8 C 523.453,2343.35 1536.6,2170.13 1536.6,2170.13 l 48.03,57.4 -26.88,69.86 c 0,0 -1035.168,167.1 -1606.9531,254.47"
         style="fill:#e3ebec;fill-opacity:1;fill-rule:nonzero;stroke:none"
         id="path58" /><path
         d="m 4774.16,2616.68 c -23.3,7.82 -117.42,17.59 -496.81,-38.46 -497.85,-73.55 -1781.91,-280.83 -1781.91,-280.83 l -26.88,-69.86 48.04,-57.4 c 0,0 1282.06,219.21 1776.94,310.63 377.14,69.69 463.03,109.37 482.55,124.31 4.2,3.21 3.08,9.93 -1.93,11.61"
         style="fill:#e3ebec;fill-opacity:1;fill-rule:nonzero;stroke:none"
         id="path60" /><path
         d="m 1232.43,1237.14 c 0,0 151.9,544.97 -88.62,599.38 -54.9,12.43 -515.259,54.28 -1193.0131,111.47 V 1533.94 C 688.539,1382.88 1232.43,1237.14 1232.43,1237.14"
         style="fill:#e3ebec;fill-opacity:1;fill-rule:nonzero;stroke:none"
         id="path62" /><path
         d="m 2929.65,1836.52 c -240.5,-54.41 -88.6,-599.38 -88.6,-599.38 0,0 1096.37,293.78 2287.37,479.46 v 314.66 C 3928.89,1933.36 3008.74,1854.41 2929.65,1836.52"
         style="fill:#e3ebec;fill-opacity:1;fill-rule:nonzero;stroke:none"
         id="path64" /><path
         d="m 2075.99,4573.3 c -6.9,383.46 -31.97,474.69 -43.5,496.4 -2.48,4.67 -9.3,4.67 -11.77,0 -11.54,-21.71 -36.6,-112.94 -43.52,-496.4 -9.06,-503.17 -15.11,-1803.83 -15.11,-1803.83 l 64.51,-37.97 64.51,37.97 c 0,0 -6.05,1300.66 -15.12,1803.83"
         style="fill:#e3ebec;fill-opacity:1;fill-rule:nonzero;stroke:none"
         id="path66" /><path
         d="m 2963.74,1361.47 c 60.68,117 94.77,253.3 94.77,407.56 0,569.92 -462,1031.92 -1031.91,1031.92 -569.91,0 -1031.909,-462 -1031.909,-1031.92 0,-154.26 34.089,-290.56 94.779,-407.56 5.24,-57.07 62.61,-459.779 636.89,-456.829 95.03,-21.45 195.79,-32.539 300.24,-32.539 104.44,0 205.21,11.089 300.23,32.539 574.29,-2.95 631.66,399.759 636.91,456.829"
         style="fill:#ffffff;fill-opacity:1;fill-rule:nonzero;stroke:none"
         id="path68" /><path
         d="m 2396.57,2175.71 c 30.58,-3.73 85.62,-48.44 150.85,-50.3 6.27,-0.18 12.3,0.52 18.31,1.25 l -124.75,284.16 c -43.6,-4.76 -85.12,-8.48 -124.27,-11.27 l 67.89,-223.94 c 5.19,0.29 9.52,0.4 11.97,0.1"
         style="fill:#213046;fill-opacity:1;fill-rule:nonzero;stroke:none"
         id="path70" /><path
         d="m 1505.78,2125.41 c 65.23,1.86 120.26,46.57 150.84,50.3 4.39,0.53 13.78,-0.03 26.53,-1.23 l 67.93,224.01 c -39.14,2.6 -80.86,6.16 -124.68,10.77 l -124.49,-283.59 c 1.32,-0.01 2.54,-0.3 3.87,-0.26"
         style="fill:#213046;fill-opacity:1;fill-rule:nonzero;stroke:none"
         id="path72" /><path
         d="m 1952.19,2395.56 v -4.23 c -46.61,0.1 -103.19,1.51 -166.95,5.1 l -68.4,-225.56 c 72.31,-8.33 194.29,-24.04 300.57,-24.16 v 245.7 c -41.65,1.28 -65.22,3.15 -65.22,3.15"
         style="fill:#213046;fill-opacity:1;fill-rule:nonzero;stroke:none"
         id="path74" /><path
         d="m 1509.85,2423.51 c 0,0 -120.27,-149.06 -122.31,-247.8 0,0 33.7,-32.58 80.18,-45.18 l 124.01,282.56 c -26.68,3.09 -53.82,6.45 -81.88,10.42"
         style="fill:#213046;fill-opacity:1;fill-rule:nonzero;stroke:none"
         id="path76" /><path
         d="m 2665.65,2175.71 c -2.04,98.74 -122.3,247.8 -122.3,247.8 -23.01,-3.27 -45.58,-6.2 -67.69,-8.85 l 122.94,-280.11 c 39.53,14.48 67.05,41.16 67.05,41.16"
         style="fill:#213046;fill-opacity:1;fill-rule:nonzero;stroke:none"
         id="path78" /><path
         d="m 2100.99,2391.33 v 4.23 c 0,0 -18.04,-1.43 -50.28,-2.64 V 2146.8 c 110.06,1.57 233.51,18.36 300.06,25.71 l -68.15,224.74 c -69.91,-4.25 -131.43,-5.81 -181.63,-5.92"
         style="fill:#213046;fill-opacity:1;fill-rule:nonzero;stroke:none"
         id="path80" /><path
         d="m 2373.32,1508.97 c 0,194.8 -157.92,352.73 -352.74,352.73 -194.8,0 -352.72,-157.93 -352.72,-352.73 0,-194.81 157.92,-271.83 352.72,-271.83 194.82,0 352.74,77.02 352.74,271.83"
         style="fill:#e3ebec;fill-opacity:1;fill-rule:nonzero;stroke:none"
         id="path82" /><path
         d="m 3021.3,2043.54 c -34.36,124.77 -91.33,240.16 -166.6,341.22 -5.03,-136.71 -46.69,-378.76 -259.43,-548.24 -300.14,-239.09 274.16,-164.71 426.03,207.02"
         style="fill:#f14972;fill-opacity:1;fill-rule:nonzero;stroke:none"
         id="path84" /><path
         d="m 1457.93,1836.52 c -212.74,169.47 -254.41,411.53 -259.45,548.23 -75.25,-101.06 -132.22,-216.44 -166.59,-341.21 151.88,-371.72 726.17,-446.11 426.04,-207.02"
         style="fill:#f14972;fill-opacity:1;fill-rule:nonzero;stroke:none"
         id="path86" /><path
         d="m 2798.93,2510.13 65.77,61.61 c 0,0 1198.98,164.09 2191.11,84.89 V 1427.09 l -2012.6,22.7 37.58,372.9 -97.93,368.77 -183.93,318.67"
         style="fill:#374868;fill-opacity:1;fill-rule:nonzero;stroke:none"
         id="path88" /><path
         d="m 3087.05,1429.67 h 1968.76 l 6.45,55.75 H 3069.21 l 17.84,-55.75"
         style="fill:#2c7c89;fill-opacity:1;fill-rule:nonzero;stroke:none"
         id="path90" /><path
         d="m 2713.62,2489.41 c 0,0 32.08,77.31 100.98,49.13 68.89,-28.18 400.85,-603.92 272.45,-1108.87 0,0 -90.81,-56.88 -128.4,0 -37.58,56.87 186.39,362.6 -245.03,1041.58 v 18.16"
         style="fill:#213046;fill-opacity:1;fill-rule:nonzero;stroke:none"
         id="path92" /><path
         d="m 4131.97,2672.82 148.03,351.36 21.29,0.45 0.47,0.99 h 168.22 l -156.02,-348.54 c -61.3,-0.92 -122,-2.37 -181.99,-4.26"
         style="fill:#8bd9e2;fill-opacity:1;fill-rule:nonzero;stroke:none"
         id="path94" /><path
         d="m 3780.54,1485.42 h -3.04 v 346.03 l 354.47,841.37 c 59.99,1.89 120.69,3.34 181.99,4.26 L 3780.54,1485.42"
         style="fill:#425170;fill-opacity:1;fill-rule:nonzero;stroke:none"
         id="path96" /><path
         d="m 3777.5,1478.62 v 6.8 h 3.04 l -3.04,-6.8"
         style="fill:#35838f;fill-opacity:1;fill-rule:nonzero;stroke:none"
         id="path98" /><path
         d="m 3834.67,933.672 v 386.738 l 52.04,109.26 h 645.76 L 4301.29,943.699 3834.67,933.672"
         style="fill:#94dce4;fill-opacity:1;fill-rule:nonzero;stroke:none"
         id="path100" /><path
         d="m 3777.5,932.441 v 267.929 l 57.17,120.04 V 933.672 l -57.17,-1.231"
         style="fill:#52617b;fill-opacity:1;fill-rule:nonzero;stroke:none"
         id="path102" /><path
         d="m 5000,2660.81 c -170,11.95 -345.05,17.08 -518.58,17.4 l 165.66,347.78 352.92,3.1 v -368.28"
         style="fill:#94dce4;fill-opacity:1;fill-rule:nonzero;stroke:none"
         id="path104" /><path
         d="m 4558.99,1485.42 h -645.72 l 568.15,1192.79 c 173.53,-0.32 348.58,-5.45 518.58,-17.4 v -248.3 l -441.01,-927.09"
         style="fill:#52617b;fill-opacity:1;fill-rule:nonzero;stroke:none"
         id="path106" /><path
         d="m 4532.47,1429.67 h -645.76 l 26.56,55.75 h 645.72 l -26.52,-55.75"
         style="fill:#478f97;fill-opacity:1;fill-rule:nonzero;stroke:none"
         id="path108" /><path
         d="m 4522.34,1006.74 -65.65,11.26 191.55,411.67 h 66.01 l -191.91,-422.93"
         style="fill:#8bd9e2;fill-opacity:1;fill-rule:nonzero;stroke:none"
         id="path110" /><path
         d="m 4739.55,1485.42 h -65.37 L 5000,2185.64 v -126.26 l -260.45,-573.96"
         style="fill:#425170;fill-opacity:1;fill-rule:nonzero;stroke:none"
         id="path112" /><path
         d="m 4714.25,1429.67 h -66.01 l 25.94,55.75 h 65.37 l -25.3,-55.75"
         style="fill:#35838f;fill-opacity:1;fill-rule:nonzero;stroke:none"
         id="path114" /><path
         d="m 2469.42,1478.62 v 352.83 l 138.21,306.7 c 34.63,14.89 58.02,37.56 58.02,37.56 -0.4,19.34 -5.33,40.61 -13.01,62.31 l 86.58,192.13 c 38.72,-63.45 71.6,-123.48 99.49,-180.26 L 2678.7,1915.71 c -24.38,-27.6 -52.03,-54.17 -83.43,-79.19 -115.59,-92.08 -101.46,-137.66 -31.73,-137.68 3.68,0 7.53,0.13 11.51,0.39 l -105.63,-220.61"
         style="fill:#ffffff;fill-opacity:1;fill-rule:nonzero;stroke:none"
         id="path116" /><path
         d="m 2607.63,2138.15 45.01,99.87 c 7.68,-21.7 12.61,-42.97 13.01,-62.31 0,0 -23.39,-22.67 -58.02,-37.56"
         style="fill:#404b60;fill-opacity:1;fill-rule:nonzero;stroke:none"
         id="path118" /><path
         d="m 2563.54,1698.84 c -69.73,0.02 -83.86,45.6 31.73,137.68 31.4,25.02 59.05,51.59 83.43,79.19 l -103.65,-216.48 c -3.98,-0.26 -7.83,-0.39 -11.51,-0.39"
         style="fill:#f35c83;fill-opacity:1;fill-rule:nonzero;stroke:none"
         id="path120" /><path
         d="m 2823.43,2533.08 c -3.29,2.57 -6.25,4.4 -8.83,5.46 -8.51,3.48 -16.45,5.35 -23.85,5.96 l 216.17,479.68 22.78,0.45 0.5,0.99 h 179.93 l -209.25,-437.03 c -86.87,-10.1 -136.18,-16.85 -136.18,-16.85 l -41.27,-38.66"
         style="fill:#94dce4;fill-opacity:1;fill-rule:nonzero;stroke:none"
         id="path122" /><path
         d="m 2914.12,2407.39 c -36.95,65.2 -70.24,109.73 -90.69,125.69 l 41.27,38.66 c 0,0 49.31,6.75 136.18,16.85 l -86.76,-181.2"
         style="fill:#52617b;fill-opacity:1;fill-rule:nonzero;stroke:none"
         id="path124" /><path
         d="m 2838.71,2249.89 c -27.89,56.78 -60.77,116.81 -99.49,180.26 l 51.53,114.35 c 7.4,-0.61 15.34,-2.48 23.85,-5.96 2.58,-1.06 5.54,-2.89 8.83,-5.46 20.45,-15.96 53.74,-60.49 90.69,-125.69 l -75.41,-157.5"
         style="fill:#404b60;fill-opacity:1;fill-rule:nonzero;stroke:none"
         id="path126" /><path
         d="m 2577.19,934.609 c 237.37,65.223 329.32,222.711 364.86,328.811 66.65,17.06 164.22,41.6 286.52,71.12 l -198.87,-390.841 -452.51,-9.09"
         style="fill:#92dbe4;fill-opacity:1;fill-rule:nonzero;stroke:none"
         id="path128" /><path
         d="m 2942.05,1263.42 c 15.67,46.78 20.35,83.55 21.69,98.05 7.87,15.18 15.3,30.68 22.26,46.51 7.21,-2.54 14.87,-3.59 22.64,-3.59 38.04,0 78.41,25.28 78.41,25.28 v 0 h 189.92 l -48.4,-95.13 c -122.3,-29.52 -219.87,-54.06 -286.52,-71.12"
         style="fill:#e5edee;fill-opacity:1;fill-rule:nonzero;stroke:none"
         id="path130" /><path
         d="m 2469.42,932.441 v 267.929 l 284.4,558.21 c 71.43,38.63 145.58,95.92 202.63,171.61 72.06,-308.03 -23.36,-461.84 2.2,-500.52 7.41,-11.22 16.9,-18.01 27.35,-21.69 -6.96,-15.83 -14.39,-31.33 -22.26,-46.51 -1.34,-14.5 -6.02,-51.27 -21.69,-98.05 -35.54,-106.1 -127.49,-263.588 -364.86,-328.811 l -107.77,-2.168"
         style="fill:#ffffff;fill-opacity:1;fill-rule:nonzero;stroke:none"
         id="path132" /><path
         d="m 3187.01,2608.8 212.55,417.19 377.5,3.1 0.26,-372.6 c -229.21,-13.7 -433.51,-31.76 -590.31,-47.69"
         style="fill:#92dbe4;fill-opacity:1;fill-rule:nonzero;stroke:none"
         id="path134" /><path
         d="m 2753.82,1758.58 160.21,314.44 c 18.19,-50.89 32.05,-98.46 42.42,-142.83 -57.05,-75.69 -131.2,-132.98 -202.63,-171.61"
         style="fill:#f2577f;fill-opacity:1;fill-rule:nonzero;stroke:none"
         id="path136" /><path
         d="m 3305.34,1485.42 h -206 c 50.04,266.4 -18.63,545.93 -102.48,750.18 l 190.15,373.2 c 156.8,15.93 361.1,33.99 590.31,47.69 l 0.18,-243.12 -472.16,-927.95"
         style="fill:#4c5b78;fill-opacity:1;fill-rule:nonzero;stroke:none"
         id="path138" /><path
         d="m 3276.97,1429.67 h -189.92 c 4.7,18.49 8.79,37.1 12.29,55.75 h 206 l -28.37,-55.75"
         style="fill:#418a95;fill-opacity:1;fill-rule:nonzero;stroke:none"
         id="path140" /><path
         d="m 3008.64,1404.39 c -7.77,0 -15.43,1.05 -22.64,3.59 -10.45,3.68 -19.94,10.47 -27.35,21.69 -25.56,38.68 69.86,192.49 -2.2,500.52 -10.37,44.37 -24.23,91.94 -42.42,142.83 l 82.83,162.58 c 83.85,-204.25 152.52,-483.78 102.48,-750.18 -3.5,-18.65 -7.59,-37.26 -12.29,-55.75 v 0 c 0,0 -40.37,-25.28 -78.41,-25.28"
         style="fill:#39465c;fill-opacity:1;fill-rule:nonzero;stroke:none"
         id="path142" /><path
         d="m 3266.13,1006.74 -70.23,11.26 170.25,342.06 42.92,-58.83 -142.94,-294.49 m 174.08,358.66 -11.77,16.53 c 7.38,1.72 14.82,3.45 22.32,5.19 l -10.55,-21.72"
         style="fill:#94dce4;fill-opacity:1;fill-rule:nonzero;stroke:none"
         id="path144" /><path
         d="m 3409.07,1301.23 -42.92,58.83 4.11,8.25 c 18.97,4.47 38.39,9.01 58.18,13.62 l 11.77,-16.53 -31.14,-64.17"
         style="fill:#404b60;fill-opacity:1;fill-rule:nonzero;stroke:none"
         id="path146" /><path
         d="m 3370.26,1368.31 30.54,61.36 h 70.61 l -20.65,-42.55 c -7.5,-1.74 -14.94,-3.47 -22.32,-5.19 -19.79,-4.61 -39.21,-9.15 -58.18,-13.62"
         style="fill:#e7eeee;fill-opacity:1;fill-rule:nonzero;stroke:none"
         id="path148" /><path
         d="m 3498.47,1485.42 h -69.92 l 348.51,700.22 v -126.26 l -278.59,-573.96"
         style="fill:#52617b;fill-opacity:1;fill-rule:nonzero;stroke:none"
         id="path150" /><path
         d="m 3471.41,1429.67 h -70.61 l 27.75,55.75 h 69.92 l -27.06,-55.75"
         style="fill:#478f97;fill-opacity:1;fill-rule:nonzero;stroke:none"
         id="path152" /><path
         d="m 1544.49,2681.64 154.37,342.54 22.78,0.45 0.5,0.99 h 179.92 l -121.74,-254.24 c -82.99,-20.32 -162.08,-50.7 -235.83,-89.74"
         style="fill:#92dbe4;fill-opacity:1;fill-rule:nonzero;stroke:none"
         id="path154" /><path
         d="m 1161.35,1478.62 v 352.83 l 8.5,18.85 c 40.18,-36.61 83.7,-66.62 126.37,-90 l -134.87,-281.68 m 210.64,439.94 c -43.51,49.86 -76.39,102.93 -101.14,155.86 l 273.64,607.22 c 73.75,39.04 152.84,69.42 235.83,89.74 l -408.33,-852.82 m 137.86,504.95 c 0,0 -120.27,-149.06 -122.31,-247.8 0,0 33.7,-32.58 80.18,-45.18 l 124.01,282.56 c -26.68,3.09 -53.82,6.45 -81.88,10.42"
         style="fill:#ffffff;fill-opacity:1;fill-rule:nonzero;stroke:none"
         id="path156" /><path
         d="m 1467.72,2130.53 c -46.48,12.6 -80.18,45.18 -80.18,45.18 2.04,98.74 122.31,247.8 122.31,247.8 28.06,-3.97 55.2,-7.33 81.88,-10.42 l -124.01,-282.56"
         style="fill:#39465c;fill-opacity:1;fill-rule:nonzero;stroke:none"
         id="path158" /><path
         d="m 1296.22,1760.3 c -42.67,23.38 -86.19,53.39 -126.37,90 l 101,224.12 c 24.75,-52.93 57.63,-106 101.14,-155.86 l -75.77,-158.26"
         style="fill:#f2577f;fill-opacity:1;fill-rule:nonzero;stroke:none"
         id="path160" /><path
         d="m 1161.35,932.441 v 224.609 c 52.78,-84.12 143.94,-171.921 301.09,-218.562 l -301.09,-6.047 M 2469.22,2701.47 c -115.84,55.08 -243.53,89.22 -378.25,97.5 -0.2,40.22 -0.6,119.32 -1.18,223.68 l 1.7,3.34 377.5,3.1 0.23,-327.62"
         style="fill:#98dde5;fill-opacity:1;fill-rule:nonzero;stroke:none"
         id="path162" /><path
         d="m 2090.97,2798.97 c -21.28,1.31 -42.77,1.98 -64.37,1.98 -16.91,0 -33.68,-0.41 -50.38,-1.21 l 113.57,222.91 c 0.58,-104.36 0.98,-183.46 1.18,-223.68"
         style="fill:#e8eeee;fill-opacity:1;fill-rule:nonzero;stroke:none"
         id="path164" /><path
         d="m 1462.44,938.488 c -157.15,46.641 -248.31,134.442 -301.09,218.562 v 43.32 l 259.29,508.91 c 26.2,-6.95 49.74,-10.43 69.02,-10.43 65.58,-0.01 81.96,40.3 -12.36,121.64 l 181.05,355.36 c 0.78,0.04 1.65,0.06 2.61,0.06 5.09,0 12.71,-0.53 22.19,-1.43 l 37.49,123.62 255.58,501.64 c 16.7,0.8 33.47,1.21 50.38,1.21 21.6,0 43.09,-0.67 64.37,-1.98 134.72,-8.28 262.41,-42.42 378.25,-97.5 l 0.2,-288.1 -15.87,-31.18 -12.57,28.63 c -43.6,-4.76 -85.12,-8.48 -124.27,-11.27 l 54.39,-179.42 -21.79,-42.82 -66.69,219.94 c -69.91,-4.25 -131.43,-5.81 -181.63,-5.92 v 4.23 c 0,0 -18.04,-1.43 -50.28,-2.64 V 2146.8 c 107.81,1.54 228.49,17.68 295.92,25.25 l -175.12,-344.18 c -45.76,21.7 -96.92,33.83 -150.93,33.83 -194.8,0 -352.72,-157.93 -352.72,-352.73 0,-144.5 86.9,-224.2 211.28,-255.72 l -157.5,-309.551 -259.2,-5.211 m 322.8,1457.942 -68.4,-225.56 c 72.31,-8.33 194.29,-24.04 300.57,-24.16 v 245.7 c -41.65,1.28 -65.22,3.15 -65.22,3.15 v -4.23 c -46.61,0.1 -103.19,1.51 -166.95,5.1"
         style="fill:#ffffff;fill-opacity:1;fill-rule:nonzero;stroke:none"
         id="path166" /><path
         d="m 2371.1,2220.13 -54.39,179.42 c 39.15,2.79 80.67,6.51 124.27,11.27 l 12.57,-28.63 -82.45,-162.06"
         style="fill:#455165;fill-opacity:1;fill-rule:nonzero;stroke:none"
         id="path168" /><path
         d="m 1683.15,2174.48 c -9.48,0.9 -17.1,1.43 -22.19,1.43 -0.96,0 -1.83,-0.02 -2.61,-0.06 l 62.29,122.25 -37.49,-123.62"
         style="fill:#455165;fill-opacity:1;fill-rule:nonzero;stroke:none"
         id="path170" /><path
         d="m 2017.41,2146.71 c -106.28,0.12 -228.26,15.83 -300.57,24.16 l 68.4,225.56 c 63.76,-3.59 120.34,-5 166.95,-5.1 v 4.23 c 0,0 23.57,-1.87 65.22,-3.15 v -245.7"
         style="fill:#455165;fill-opacity:1;fill-rule:nonzero;stroke:none"
         id="path172" /><path
         d="m 2050.71,2146.8 v 246.12 c 32.24,1.21 50.28,2.64 50.28,2.64 v -4.23 c 50.2,0.11 111.72,1.67 181.63,5.92 l 66.69,-219.94 -2.68,-5.26 c -67.43,-7.57 -188.11,-23.71 -295.92,-25.25"
         style="fill:#455165;fill-opacity:1;fill-rule:nonzero;stroke:none"
         id="path174" /><path
         d="m 1879.14,1253.25 c -124.38,31.52 -211.28,111.22 -211.28,255.72 0,194.8 157.92,352.73 352.72,352.73 54.01,0 105.17,-12.13 150.93,-33.83 l -292.37,-574.62"
         style="fill:#e8eeee;fill-opacity:1;fill-rule:nonzero;stroke:none"
         id="path176" /><path
         d="m 1489.66,1698.85 c -19.28,0 -42.82,3.48 -69.02,10.43 l 56.66,111.21 c 94.32,-81.34 77.94,-121.65 12.36,-121.64"
         style="fill:#f35f86;fill-opacity:1;fill-rule:nonzero;stroke:none"
         id="path178" /><path
         d="m 1958.06,1006.74 -70.22,11.26 109.26,219.52 c 7.76,-0.26 15.59,-0.38 23.48,-0.38 17.04,0 33.79,0.59 50.18,1.79 l -112.7,-232.19 m 345.8,712.44 c -12.88,17.32 -27.31,33.44 -43.09,48.11 l 191.89,385.54 c 5.25,-2.49 10.7,-5.01 16.33,-7.45 v -86 l -165.13,-340.2"
         style="fill:#ffffff;fill-opacity:1;fill-rule:nonzero;stroke:none"
         id="path180" /><path
         d="m 2468.99,2145.38 c -5.63,2.44 -11.08,4.96 -16.33,7.45 l 16.33,32.81 v -40.26"
         style="fill:#5d697a;fill-opacity:1;fill-rule:nonzero;stroke:none"
         id="path182" /><path
         d="m 2020.58,1237.14 c -7.89,0 -15.72,0.12 -23.48,0.38 l 263.67,529.77 c 15.78,-14.67 30.21,-30.79 43.09,-48.11 l -233.1,-480.25 c -16.39,-1.2 -33.14,-1.79 -50.18,-1.79"
         style="fill:#ebf1f1;fill-opacity:1;fill-rule:nonzero;stroke:none"
         id="path184" /><path
         d="m 73.0625,1937.64 c -24.0156,2.04 -48.4375,4.11 -73.06640625,6.19 V 2157 L 116.922,2416.46 c 55.023,-9.75 112.308,-19.85 170.961,-30.16 L 73.0625,1937.64 m 265.2895,554.07 c -59.926,9.4 -118.614,18.58 -175.18,27.38 l 227.617,505.09 22.774,0.45 0.5,0.99 H 593.988 L 338.352,2491.71"
         style="fill:#92dbe4;fill-opacity:1;fill-rule:nonzero;stroke:none"
         id="path186" /><path
         d="m 287.883,2386.3 c -58.653,10.31 -115.938,20.41 -170.961,30.16 l 46.25,102.63 c 56.566,-8.8 115.254,-17.98 175.18,-27.38 L 287.883,2386.3"
         style="fill:#e5edee;fill-opacity:1;fill-rule:nonzero;stroke:none"
         id="path188" /><path
         d="m -0.00390625,1785.03 v 158.8 C 24.625,1941.75 49.0469,1939.68 73.0625,1937.64 L -0.00390625,1785.03"
         style="fill:#e5edee;fill-opacity:1;fill-rule:nonzero;stroke:none"
         id="path190" /><path
         d="M -0.00390625,935.391 V 1488.32 L 16.3516,1520.42 c 76.5547,-15.88 150.8514,-31.66 222.4534,-47.17 V 940.191 l -238.80890625,-4.8 M 403.43,943.5 436.574,988.93 413.563,943.699 403.43,943.5 m -18.969,72.52 v 425.25 c 89.855,-19.99 174.562,-39.32 252.98,-57.56 l -22.164,-43.57 -230.816,-324.12 m 498.312,849.85 c -159.929,15.35 -385.671,35.45 -660.351,59.02 l 221.183,434.12 c 218.739,-38.23 444.797,-77.37 634.105,-110.03 L 882.773,1865.87 m 253.977,499.14 c -187.094,29.94 -415.168,66.3 -638.367,101.52 l 285.039,559.46 377.488,3.1 0.44,-615.72 -24.6,-48.36"
         style="fill:#a5e1e8;fill-opacity:1;fill-rule:nonzero;stroke:none"
         id="path192" /><path
         d="m 384.461,943.121 v 72.899 L 615.277,1340.14 436.574,988.93 403.43,943.5 384.461,943.121"
         style="fill:#5d697a;fill-opacity:1;fill-rule:nonzero;stroke:none"
         id="path194" /><path
         d="m 238.805,940.191 v 533.059 c 49.929,-10.82 98.472,-21.48 145.656,-31.98 v -425.25 -72.899 l -145.656,-2.93"
         style="fill:#6d7a91;fill-opacity:1;fill-rule:nonzero;stroke:none"
         id="path196" /><path
         d="m 1077.71,2248.98 c -189.308,32.66 -415.366,71.8 -634.105,110.03 l 54.778,107.52 c 223.199,-35.22 451.273,-71.58 638.367,-101.52 l -59.04,-116.03"
         style="fill:#ebf1f1;fill-opacity:1;fill-rule:nonzero;stroke:none"
         id="path198" /><path
         d="m 637.441,1383.71 c -78.418,18.24 -163.125,37.57 -252.98,57.56 -47.184,10.5 -95.727,21.16 -145.656,31.98 -71.602,15.51 -145.8987,31.29 -222.4534,47.17 l 206.0704,404.47 c 274.68,-23.57 500.422,-43.67 660.351,-59.02 L 637.441,1383.71"
         style="fill:#ebf1f1;fill-opacity:1;fill-rule:nonzero;stroke:none"
         id="path200" /><path
         d="m 649.996,1006.74 -70.234,11.26 169,339.55 c 21.98,-5.21 43.371,-10.32 64.086,-15.29 L 649.996,1006.74 m 348.18,847.69 c -0.653,0.07 -1.352,0.14 -2.008,0.21 l 2.437,4.9 c -0.144,-1.7 -0.289,-3.41 -0.429,-5.11"
         style="fill:#8bd9e2;fill-opacity:1;fill-rule:nonzero;stroke:none"
         id="path202" /><path
         d="m 812.848,1342.26 c -20.715,4.97 -42.106,10.08 -64.086,15.29 l 247.406,497.09 c 0.656,-0.07 1.355,-0.14 2.008,-0.21 -2.309,-28.17 -3.485,-56.63 -3.485,-85.4 0,-16.76 0.403,-33.31 1.2,-49.64 L 812.848,1342.26"
         style="fill:#e4eced;fill-opacity:1;fill-rule:nonzero;stroke:none"
         id="path204" /><path
         d="m 995.891,1719.39 c -0.797,16.33 -1.2,32.88 -1.2,49.64 0,28.77 1.176,57.23 3.485,85.4 0.14,1.7 0.285,3.41 0.429,5.11 l 62.195,124.96 c 11.2,-19.47 23.57,-37.99 36.83,-55.49 L 995.891,1719.39"
         style="fill:#ffffff;fill-opacity:1;fill-rule:nonzero;stroke:none"
         id="path206" /><path
         d="m 1097.63,1929.01 c -13.26,17.5 -25.63,36.02 -36.83,55.49 l 100.11,201.14 v -126.26 l -63.28,-130.37"
         style="fill:#f25078;fill-opacity:1;fill-rule:nonzero;stroke:none"
         id="path208" /><path
         d="m 3777.5,3559.56 v 352.83 L 4235.72,5000 h 186.56 L 3777.5,3559.56"
         style="fill:#a5e1e8;fill-opacity:1;fill-rule:nonzero;stroke:none"
         id="path210" /><path
         d="m 3777.5,3013.37 v 267.94 L 4596.15,5000 H 5000 V 4493.45 L 4301.76,3025.62 h -21.15 l -0.61,-1.44 -502.5,-10.81"
         style="fill:#94dce4;fill-opacity:1;fill-rule:nonzero;stroke:none"
         id="path212" /><path
         d="m 4280,3024.18 0.61,1.44 h 21.15 l -0.47,-0.99 -21.29,-0.45"
         style="fill:#9adee5;fill-opacity:1;fill-rule:nonzero;stroke:none"
         id="path214" /><path
         d="m 4522.34,3087.68 -65.65,11.26 L 5000,4266.59 V 4140.32 L 4522.34,3087.68"
         style="fill:#a5e1e8;fill-opacity:1;fill-rule:nonzero;stroke:none"
         id="path216" /><path
         d="m 2469.42,3559.56 v 352.83 L 2959.56,5000 h 199.55 L 2469.42,3559.56"
         style="fill:#92dbe4;fill-opacity:1;fill-rule:nonzero;stroke:none"
         id="path218" /><path
         d="m 2469.42,3013.37 v 267.94 L 3345.08,5000 h 432.05 l 0.37,-505.69 -747.3,-1468.69 h -22.63 l -0.65,-1.44 -537.5,-10.81"
         style="fill:#a5e1e8;fill-opacity:1;fill-rule:nonzero;stroke:none"
         id="path220" /><path
         d="m 3006.92,3024.18 0.65,1.44 h 22.63 l -0.5,-0.99 -22.78,-0.45"
         style="fill:#b0e5ea;fill-opacity:1;fill-rule:nonzero;stroke:none"
         id="path222" /><path
         d="m 3266.13,3087.68 -70.23,11.26 581.16,1167.65 V 4140.32 L 3266.13,3087.68"
         style="fill:#92dbe4;fill-opacity:1;fill-rule:nonzero;stroke:none"
         id="path224" /><path
         d="m 1161.35,3559.56 v 352.83 L 1651.49,5000 h 199.55 L 1161.35,3559.56"
         style="fill:#8fdae3;fill-opacity:1;fill-rule:nonzero;stroke:none"
         id="path226" /><path
         d="m 1161.35,3013.37 v 267.94 l 831.33,1631.68 c -6.76,-74.33 -12.64,-182.43 -15.48,-339.69 -4.44,-246.64 -8.16,-684.84 -10.79,-1067.6 l -244.27,-480.08 h -22.63 l -0.65,-1.44 -537.51,-10.81 m 923.74,725.6 c -2.44,316.4 -5.54,636.8 -9.1,834.33 -4.22,234.66 -15.25,359.88 -25.81,426.7 h 418.89 l 0.35,-505.69 -384.33,-755.34"
         style="fill:#8fdae3;fill-opacity:1;fill-rule:nonzero;stroke:none"
         id="path228" /><path
         d="m 1966.41,3505.7 c 2.63,382.76 6.35,820.96 10.79,1067.6 2.84,157.26 8.72,265.36 15.48,339.69 l 44.33,87.01 h 13.17 v 0 c 10.56,-66.82 21.59,-192.04 25.81,-426.7 3.56,-197.53 6.66,-517.93 9.1,-834.33 L 1966.41,3505.7"
         style="fill:#e6eced;fill-opacity:1;fill-rule:nonzero;stroke:none"
         id="path230" /><path
         d="m 1698.86,3024.18 0.65,1.44 h 22.63 l -0.5,-0.99 -22.78,-0.45"
         style="fill:#9adee5;fill-opacity:1;fill-rule:nonzero;stroke:none"
         id="path232" /><path
         d="m 1958.06,3087.68 -70.22,11.26 76.93,154.56 c -0.34,-54.43 -0.65,-106.07 -0.92,-153.9 l -5.79,-11.92 m 129.74,267.29 c -0.3,46.65 -0.62,94.76 -0.96,143.81 l 382.15,767.81 V 4140.32 L 2087.8,3354.97"
         style="fill:#a5e1e8;fill-opacity:1;fill-rule:nonzero;stroke:none"
         id="path234" /><path
         d="m 1963.85,3099.6 c 0.27,47.83 0.58,99.47 0.92,153.9 l 122.07,245.28 c 0.34,-49.05 0.66,-97.16 0.96,-143.81 L 1963.85,3099.6"
         style="fill:#ebf1f1;fill-opacity:1;fill-rule:nonzero;stroke:none"
         id="path236" /><path
         d="m -0.00390625,3865.97 v 371.97 L 343.422,5000 H 542.973 L -0.00390625,3865.97"
         style="fill:#94dce4;fill-opacity:1;fill-rule:nonzero;stroke:none"
         id="path238" /><path
         d="m -0.00390625,3016.32 v 552.94 L 728.945,5000 h 432.045 l 0.36,-505.69 -747.287,-1468.69 h -22.622 l -0.652,-1.44 -390.79290625,-7.86"
         style="fill:#a5e1e8;fill-opacity:1;fill-rule:nonzero;stroke:none"
         id="path240" /><path
         d="m 390.789,3024.18 0.652,1.44 h 22.622 l -0.5,-0.99 -22.774,-0.45"
         style="fill:#ade4ea;fill-opacity:1;fill-rule:nonzero;stroke:none"
         id="path242" /><path
         d="m 649.996,3087.68 -70.234,11.26 581.148,1167.65 V 4140.32 L 649.996,3087.68"
         style="fill:#a5e1e8;fill-opacity:1;fill-rule:nonzero;stroke:none"
         id="path244" /><path
         d="m 5000,3066.28 v -55.47 H -0.00390625 v 55.47 H 5000"
         style="fill:#a3afac;fill-opacity:1;fill-rule:nonzero;stroke:none"
         id="path246" /><path
         d="m 1189.1,1077.09 h -55.48 V 5000 h 55.48 V 1077.09"
         style="fill:#a3afac;fill-opacity:1;fill-rule:nonzero;stroke:none"
         id="path248" /><path
         d="m 2497.16,1077.09 h -55.47 V 5000 h 55.47 V 1077.09"
         style="fill:#a3afac;fill-opacity:1;fill-rule:nonzero;stroke:none"
         id="path250" /><path
         d="m 3805.23,1077.09 h -55.48 V 5000 h 55.48 V 1077.09"
         style="fill:#a3afac;fill-opacity:1;fill-rule:nonzero;stroke:none"
         id="path252" /><path
         d="m 483.598,3174.12 h -19.539 v -78.19 h 19.539 v 78.19"
         style="fill:#213046;fill-opacity:1;fill-rule:nonzero;stroke:none"
         id="path254" /><path
         d="m 990.766,3174.12 h -19.547 v -78.19 h 19.547 v 78.19"
         style="fill:#213046;fill-opacity:1;fill-rule:nonzero;stroke:none"
         id="path256" /><path
         d="M 1042.86,2837.49 H 423.375 c -13.43,0 -24.309,10.88 -24.309,24.3 v 219.95 c 0,13.43 10.879,24.3 24.309,24.3 h 619.485 c 13.42,0 24.3,-10.87 24.3,-24.3 v -219.95 c 0,-13.42 -10.88,-24.3 -24.3,-24.3"
         style="fill:#fbc963;fill-opacity:1;fill-rule:nonzero;stroke:none"
         id="path258" /><path
         d="m 619.234,3066.24 v -24.77 H 492.68 l 154.308,-154.31 -17.511,-17.51 -154.305,154.32 v -126.56 h -24.766 v 168.83 h 168.828"
         style="fill:#213046;fill-opacity:1;fill-rule:nonzero;stroke:none"
         id="path260" /><g
         id="g262"
         transform="scale(10)"><text
           transform="matrix(1,0,0,-1,67.5422,300.992)"
           style="font-variant:normal;font-weight:500;font-size:7.7751px;font-family:Lato;-inkscape-font-specification:Lato-Medium;writing-mode:lr-tb;fill:#213046;fill-opacity:1;fill-rule:nonzero;stroke:none"
           id="text266"><tspan
             x="0 5.6523376 9.4863234 12.277338 16.394535"
             y="0"
             sodipodi:role="line"
             id="tspan264">Gates</tspan></text><text
           transform="matrix(1,0,0,-1,67.130091,286.9647)"
           style="font-variant:normal;font-weight:900;font-size:16.2977px;font-family:Lato;-inkscape-font-specification:Lato-Black;writing-mode:lr-tb;fill:#213046;fill-opacity:1;fill-rule:nonzero;stroke:none"
           id="text270"><tspan
             x="0 9.4521475 15.547487 24.999634"
             y="0"
             sodipodi:role="line"
             id="tspan268">1-20</tspan></text></g><path
         d="m 2250.69,3174.12 h -19.55 v -78.19 h 19.55 v 78.19"
         style="fill:#213046;fill-opacity:1;fill-rule:nonzero;stroke:none"
         id="path272" /><path
         d="m 2585.44,3174.12 h -19.55 v -78.19 h 19.55 v 78.19"
         style="fill:#213046;fill-opacity:1;fill-rule:nonzero;stroke:none"
         id="path274" /><path
         d="m 2639.95,2837.49 h -449.5 c -13.41,0 -24.29,10.88 -24.29,24.3 v 219.95 c 0,13.43 10.88,24.3 24.29,24.3 h 449.5 c 13.41,0 24.29,-10.87 24.29,-24.3 v -219.95 c 0,-13.42 -10.88,-24.3 -24.29,-24.3"
         style="fill:#fbc963;fill-opacity:1;fill-rule:nonzero;stroke:none"
         id="path276" /><path
         d="m 2449.66,2869.65 v 24.77 h 126.57 l -154.32,154.31 17.51,17.51 154.32,-154.32 v 126.57 h 24.75 v -168.84 h -168.83"
         style="fill:#213046;fill-opacity:1;fill-rule:nonzero;stroke:none"
         id="path278" /><g
         id="g280"
         transform="scale(10)"><text
           transform="matrix(1,0,0,-1,222.247,300.992)"
           style="font-variant:normal;font-weight:500;font-size:7.7751px;font-family:Lato;-inkscape-font-specification:Lato-Medium;writing-mode:lr-tb;fill:#213046;fill-opacity:1;fill-rule:nonzero;stroke:none"
           id="text284"><tspan
             x="0 5.6523495 9.4863234 12.27735"
             y="0"
             sodipodi:role="line"
             id="tspan282">Gate</tspan></text><text
           transform="matrix(1,0,0,-1,221.44114,286.9647)"
           style="font-variant:normal;font-weight:900;font-size:16.2977px;font-family:Lato;-inkscape-font-specification:Lato-Black;writing-mode:lr-tb;fill:#213046;fill-opacity:1;fill-rule:nonzero;stroke:none"
           id="text288"><tspan
             x="0"
             y="0"
             id="tspan286">E</tspan></text></g><path
         d="m 1295.39,3191.45 h 20.99 v -95.52 h -20.99 v 95.52"
         style="fill:#213046;fill-opacity:1;fill-rule:nonzero;stroke:none"
         id="path290" /><path
         d="m 1901.66,3191.45 h 20.99 v -95.52 h -20.99 v 95.52"
         style="fill:#213046;fill-opacity:1;fill-rule:nonzero;stroke:none"
         id="path292" /><path
         d="m 1977.36,2838.72 h -736.68 c -10.48,0 -18.98,8.5 -18.98,18.99 v 226.68 c 0,10.48 8.5,18.98 18.98,18.98 h 736.68 c 10.48,0 18.98,-8.5 18.98,-18.98 v -226.68 c 0,-10.49 -8.5,-18.99 -18.98,-18.99"
         style="fill:#213046;fill-opacity:1;fill-rule:nonzero;stroke:none"
         id="path294" /><path
         d="m 1417.2,2894.22 h -126.59 v 18.49 h 126.59 v -18.49"
         style="fill:#fbc963;fill-opacity:1;fill-rule:nonzero;stroke:none"
         id="path296" /><path
         d="m 1306.71,3019.05 c -9.79,0 -17.74,-7.95 -17.74,-17.75 v -58.28 c 0,-9.8 7.95,-17.74 17.74,-17.74 h 13.86 v 93.77 h -13.86"
         style="fill:#ffffff;fill-opacity:1;fill-rule:nonzero;stroke:none"
         id="path298" /><path
         d="m 1328.86,3019.05 v -93.77 h 51.04 v 93.77 h -51.04"
         style="fill:#ffffff;fill-opacity:1;fill-rule:nonzero;stroke:none"
         id="path300" /><path
         d="m 1402.05,3019.05 h -13.87 v -93.77 h 13.87 c 9.79,0 17.74,7.94 17.74,17.74 v 58.28 c 0,9.8 -7.95,17.75 -17.74,17.75"
         style="fill:#ffffff;fill-opacity:1;fill-rule:nonzero;stroke:none"
         id="path302" /><path
         d="m 1379.9,3044.92 h -51.04 v -19.3 h 7.34 v 11.24 h 36.36 v -11.24 h 7.34 v 19.3"
         style="fill:#ffffff;fill-opacity:1;fill-rule:nonzero;stroke:none"
         id="path304" /><path
         d="m 1845.03,3067.32 -14.59,-14.59 74.56,-74.56 h -181.82 v -20.63 H 1905 l -74.56,-74.56 14.59,-14.58 99.46,99.46 -99.46,99.46"
         style="fill:#ffffff;fill-opacity:1;fill-rule:nonzero;stroke:none"
         id="path306" /><g
         id="g308"
         transform="scale(10)"><text
           transform="matrix(1,0,0,-1,147.745,294.47)"
           style="font-variant:normal;font-weight:500;font-size:7.7751px;font-family:Lato;-inkscape-font-specification:Lato-Medium;writing-mode:lr-tb;fill:#ffffff;fill-opacity:1;fill-rule:nonzero;stroke:none"
           id="text312"><tspan
             x="0 4.9872994 8.8710909 12.867168 16.984371"
             y="0"
             sodipodi:role="line"
             id="tspan310">Bages</tspan></text></g><path
         d="m 765.008,4476.01 h -63.781 v 547.01 h 63.781 v -547.01"
         style="fill:#213046;fill-opacity:1;fill-rule:nonzero;stroke:none"
         id="path314" /><path
         d="m 2427.31,4476.01 h -63.78 v 547.01 h 63.78 v -547.01"
         style="fill:#213046;fill-opacity:1;fill-rule:nonzero;stroke:none"
         id="path316" /><path
         d="M 2560.85,4510.07 H 561.297 c -25.688,0 -46.504,-20.82 -46.504,-46.5 v -28.3 c 0,-25.69 20.816,-46.5 46.504,-46.5 H 2560.85 c 25.68,0 46.5,20.81 46.5,46.5 v 28.3 c 0,25.68 -20.82,46.5 -46.5,46.5"
         style="fill:#374868;fill-opacity:1;fill-rule:nonzero;stroke:none"
         id="path318" /><path
         d="M 2767.77,3164.91 H 331.324 c -22.285,0 -40.351,18.06 -40.351,40.34 v 1196.16 c 0,22.28 18.066,40.35 40.351,40.35 H 2767.77 c 22.28,0 40.35,-18.07 40.35,-40.35 V 3205.25 c 0,-22.28 -18.07,-40.34 -40.35,-40.34"
         style="fill:#374868;fill-opacity:1;fill-rule:nonzero;stroke:none"
         id="path320" /><g
         id="g322"><g
           id="g324"
           clip-path="url(#clipPath328)"><path
             d="m 275.98,4220.86 h 2574.64 v 257.07 H 254.723 l 21.257,-257.07"
             style="fill:#213046;fill-opacity:1;fill-rule:nonzero;stroke:none"
             id="path330" /></g></g><g
         id="g332"
         transform="scale(10)"><text
           transform="matrix(1,0,0,-1,201.482,406.17)"
           style="font-variant:normal;font-weight:bold;font-size:12.7358px;font-family:BPdotsPlus;-inkscape-font-specification:BPdotsPlus-Bold;writing-mode:lr-tb;fill:#f14972;fill-opacity:1;fill-rule:nonzero;stroke:none"
           id="text336"><tspan
             x="0 7.64148 15.282105 22.923586 30.565065 38.206547 45.847172 53.488651 61.130131"
             y="0"
             sodipodi:role="line"
             id="tspan334">CANCELLED</tspan></text></g><g
         id="g338"
         transform="scale(10)"><text
           transform="matrix(1,0,0,-1,89.0605,406.17)"
           style="font-variant:normal;font-weight:bold;font-size:12.7358px;font-family:BPdotsPlus;-inkscape-font-specification:BPdotsPlus-Bold;writing-mode:lr-tb;fill:#fbc963;fill-opacity:1;fill-rule:nonzero;stroke:none"
           id="text352"><tspan
             x="0 7.64148 15.282105 22.923586 30.565065 38.206547 45.847172 53.488651 61.130131 -47.7547 -40.11322 -32.472588 -24.831108 -17.189629"
             y="0"
             sodipodi:role="line"
             id="tspan340">HONG KONG00:00</tspan><tspan
             x="-47.7547 -40.11322 -32.472588 -24.831108 -17.189629"
             y="14.518"
             sodipodi:role="line"
             id="tspan342">00:00</tspan><tspan
             x="-47.7547 -40.11322 -32.472588 -24.831108 -17.189629"
             y="29.927799"
             sodipodi:role="line"
             id="tspan344">00:00</tspan><tspan
             x="-47.7547 -40.11322 -32.472588 -24.831108 -17.189629"
             y="46.798901"
             sodipodi:role="line"
             id="tspan346">00:00</tspan><tspan
             x="-47.7547 -40.11322 -32.472588 -24.831108 -17.189629"
             y="63.0821"
             sodipodi:role="line"
             id="tspan348">00:00</tspan><tspan
             x="-47.7547 -40.11322 -32.472588 -24.831108 -17.189629"
             y="79.861"
             sodipodi:role="line"
             id="tspan350">00:00</tspan></text></g><g
         id="g354"
         transform="scale(10)"><text
           transform="matrix(1,0,0,-1,201.482,390.197)"
           style="font-variant:normal;font-weight:bold;font-size:12.7358px;font-family:BPdotsPlus;-inkscape-font-specification:BPdotsPlus-Bold;writing-mode:lr-tb;fill:#f14972;fill-opacity:1;fill-rule:nonzero;stroke:none"
           id="text358"><tspan
             x="0 7.64148 15.282105 22.923586 30.565065 38.206547 45.847172 53.488651 61.130131"
             y="0"
             sodipodi:role="line"
             id="tspan356">CANCELLED</tspan></text></g><g
         id="g360"
         transform="scale(10)"><text
           transform="matrix(1,0,0,-1,89.0605,390.197)"
           style="font-variant:normal;font-weight:bold;font-size:12.7358px;font-family:BPdotsPlus;-inkscape-font-specification:BPdotsPlus-Bold;writing-mode:lr-tb;fill:#fbc963;fill-opacity:1;fill-rule:nonzero;stroke:none"
           id="text364"><tspan
             x="0 7.64148 15.282105 22.923586 30.565065 38.206547 45.847172 53.488651 61.130131"
             y="0"
             sodipodi:role="line"
             id="tspan362">BARCELONA</tspan></text></g><g
         id="g366"
         transform="scale(10)"><text
           transform="matrix(1,0,0,-1,201.482,374.226)"
           style="font-variant:normal;font-weight:bold;font-size:12.7358px;font-family:BPdotsPlus;-inkscape-font-specification:BPdotsPlus-Bold;writing-mode:lr-tb;fill:#f14972;fill-opacity:1;fill-rule:nonzero;stroke:none"
           id="text370"><tspan
             x="0 7.64148 15.282105 22.923586 30.565065 38.206547 45.847172 53.488651 61.130131"
             y="0"
             sodipodi:role="line"
             id="tspan368">CANCELLED</tspan></text></g><g
         id="g372"
         transform="scale(10)"><text
           transform="matrix(1,0,0,-1,89.0605,374.226)"
           style="font-variant:normal;font-weight:bold;font-size:12.7358px;font-family:BPdotsPlus;-inkscape-font-specification:BPdotsPlus-Bold;writing-mode:lr-tb;fill:#fbc963;fill-opacity:1;fill-rule:nonzero;stroke:none"
           id="text378"><tspan
             x="0 7.64148 15.282105 22.923586 30.565065 38.206547 45.847172 53.488651 61.130131 68.77076 76.412239 84.053719"
             y="0"
             sodipodi:role="line"
             id="tspan374">BUENOS AIRES</tspan><tspan
             x="0 7.64148 15.282105 22.923586 30.565065 38.206547"
             y="15.973"
             sodipodi:role="line"
             id="tspan376">MADRID</tspan></text></g><g
         id="g380"
         transform="scale(10)"><text
           transform="matrix(1,0,0,-1,201.482,358.253)"
           style="font-variant:normal;font-weight:bold;font-size:12.7358px;font-family:BPdotsPlus;-inkscape-font-specification:BPdotsPlus-Bold;writing-mode:lr-tb;fill:#f14972;fill-opacity:1;fill-rule:nonzero;stroke:none"
           id="text386"><tspan
             x="0 7.64148 15.282105 22.923586 30.565065 38.206547 45.847172 53.488651 61.130131"
             y="0"
             sodipodi:role="line"
             id="tspan382">CANCELLED</tspan><tspan
             x="0 7.64148 15.282105 22.923586 30.565065 38.206547 45.847172 53.488651 61.130131"
             y="15.9723"
             sodipodi:role="line"
             id="tspan384">CANCELLED</tspan></text></g><g
         id="g388"
         transform="scale(10)"><text
           transform="matrix(1,0,0,-1,89.0605,342.281)"
           style="font-variant:normal;font-weight:bold;font-size:12.7358px;font-family:BPdotsPlus;-inkscape-font-specification:BPdotsPlus-Bold;writing-mode:lr-tb;fill:#fbc963;fill-opacity:1;fill-rule:nonzero;stroke:none"
           id="text392"><tspan
             x="0 7.64148 15.282105 22.923586 30.565065"
             y="0"
             sodipodi:role="line"
             id="tspan390">TOKIO</tspan></text></g><g
         id="g394"
         transform="scale(10)"><text
           transform="matrix(1,0,0,-1,201.482,326.309)"
           style="font-variant:normal;font-weight:bold;font-size:12.7358px;font-family:BPdotsPlus;-inkscape-font-specification:BPdotsPlus-Bold;writing-mode:lr-tb;fill:#f14972;fill-opacity:1;fill-rule:nonzero;stroke:none"
           id="text398"><tspan
             x="0 7.64148 15.282105 22.923586 30.565065 38.206547 45.847172 53.488651 61.130131"
             y="0"
             sodipodi:role="line"
             id="tspan396">CANCELLED</tspan></text></g><g
         id="g400"
         transform="scale(10)"><text
           transform="matrix(1,0,0,-1,89.0605,326.309)"
           style="font-variant:normal;font-weight:bold;font-size:12.7358px;font-family:BPdotsPlus;-inkscape-font-specification:BPdotsPlus-Bold;writing-mode:lr-tb;fill:#fbc963;fill-opacity:1;fill-rule:nonzero;stroke:none"
           id="text404"><tspan
             x="0 7.64148 15.282105 22.923586 30.565065 38.206547 45.847172 53.488651"
             y="0"
             sodipodi:role="line"
             id="tspan402">NEW YORK</tspan></text></g><g
         id="g406"
         transform="scale(10)"><text
           transform="matrix(1,0,0,-1,47.9055,428.597)"
           style="font-variant:normal;font-weight:900;font-size:7.27968px;font-family:Lato;-inkscape-font-specification:Lato-Black;writing-mode:lr-tb;fill:#ffffff;fill-opacity:1;fill-rule:nonzero;stroke:none"
           id="text410"><tspan
             x="0 5.6563115 11.585999 17.038479 70.851982 76.391823 80.56308 84.596024 89.028641 91.293289 96.9496 101.6078 106.04113 108.30511 114.23479 174.843 178.87595 182.79196 187.45114 191.88448 197.33694"
             y="0"
             sodipodi:role="line"
             id="tspan408">HOURDESTINATIONSTATUS</tspan></text></g><path
         d="M 5000,1078.29 H -0.00390625 V 0 H 5000 v 1078.29"
         style="fill:#374868;fill-opacity:1;fill-rule:nonzero;stroke:none"
         id="path412" /><path
         d="m 2654.79,1980.34 c -21.12,-10.01 -52.25,-20.97 -63.44,-5.31 -11.02,15.45 4.29,38.74 17.19,53.92 -60.57,50.85 -130.65,73.59 -130.65,73.59 -12.43,-53.53 -14.66,-100.57 -10.08,-141.73 18.39,-2.64 50.09,-8.25 54.35,-16.23 4.29,-8.01 -26.15,-25.98 -44.34,-35.82 2.56,-9.11 5.46,-17.86 8.64,-26.26 17.16,2.77 54,7.78 60.93,0.86 7.09,-7.09 -22.8,-38.04 -36.24,-51.26 53.2,-87.23 134.02,-121.45 134.02,-121.45 74.24,118.79 55.7,207.21 9.62,269.69"
         style="fill:#2c7c89;fill-opacity:1;fill-rule:nonzero;stroke:none"
         id="path414" /><path
         d="m 2818.42,1964.15 c 4.54,6.49 20.68,9.72 34.05,11.31 5.67,38.65 6.23,65.76 6.23,65.76 -76.01,-17.87 -126.12,-51.96 -158.9,-91.7 10.62,-18.11 25.65,-46.56 18.61,-51.65 -7.33,-5.3 -31.58,4.83 -45.45,11.36 -7.73,-14.61 -13.73,-29.47 -18.35,-44.17 19.34,-14.34 43.72,-34.22 37.44,-39.28 -7.27,-5.87 -33.15,-3.29 -47.1,-1.39 -10.45,-62.72 0.22,-113.74 0.22,-113.74 129.24,1.41 180.33,129.97 200.48,226.32 -15.21,8.86 -31.87,20.57 -27.23,27.18"
         style="fill:#74cfb4;fill-opacity:1;fill-rule:nonzero;stroke:none"
         id="path416" /><path
         d="m 2822.69,783.301 h -321.07 c -16.34,0 -29.58,13.25 -29.58,29.59 v 818.119 c 0,50.08 40.6,90.69 90.69,90.69 h 198.85 c 50.09,0 90.7,-40.61 90.7,-90.69 V 812.891 c 0,-16.34 -13.25,-29.59 -29.59,-29.59"
         style="fill:#b1d4ce;fill-opacity:1;fill-rule:nonzero;stroke:none"
         id="path418" /><path
         d="m 2757.25,1491.25 h -190.19 c -36.68,0 -66.43,29.74 -66.43,66.43 0,36.68 29.75,66.42 66.43,66.42 h 190.19 c 36.68,0 66.43,-29.74 66.43,-66.42 0,-36.69 -29.75,-66.43 -66.43,-66.43"
         style="fill:#213046;fill-opacity:1;fill-rule:nonzero;stroke:none"
         id="path420" /><path
         d="M 2866.01,1433.25 H 2458.3 c -8.66,0 -15.68,7.02 -15.68,15.69 0,8.66 7.02,15.68 15.68,15.68 h 407.71 c 8.65,0 15.68,-7.02 15.68,-15.68 0,-8.67 -7.03,-15.69 -15.68,-15.69"
         style="fill:#d63358;fill-opacity:1;fill-rule:nonzero;stroke:none"
         id="path422" /><path
         d="M 484.262,1004.81 H 360.758 c -82.039,0 -148.543,66.51 -148.543,148.55 v 78.58 h 40 v -78.58 c 0,-59.95 48.59,-108.55 108.543,-108.55 h 163.504 c 0,-22.09 -17.91,-40 -40,-40"
         style="fill:#213046;fill-opacity:1;fill-rule:nonzero;stroke:none"
         id="path424" /><path
         d="m 270.648,1210.44 h -72.351 c -8.75,0 -15.828,7.09 -15.828,15.83 0,28.72 23.277,52.01 52,52.01 28.73,0 52.011,-23.29 52.011,-52.01 0,-8.74 -7.082,-15.83 -15.832,-15.83"
         style="fill:#d63358;fill-opacity:1;fill-rule:nonzero;stroke:none"
         id="path426" /><path
         d="m 660.68,1004.81 h 123.504 c 82.043,0 148.546,66.51 148.546,148.55 v 78.58 h -40 v -78.58 c 0,-59.95 -48.601,-108.55 -108.546,-108.55 H 620.68 c 0,-22.09 17.91,-40 40,-40"
         style="fill:#213046;fill-opacity:1;fill-rule:nonzero;stroke:none"
         id="path428" /><path
         d="m 874.281,1210.44 h 72.364 c 8.742,0 15.832,7.09 15.832,15.83 0,28.72 -23.293,52.01 -52.012,52.01 -28.723,0 -52.012,-23.29 -52.012,-52.01 0,-8.74 7.09,-15.83 15.828,-15.83"
         style="fill:#d63358;fill-opacity:1;fill-rule:nonzero;stroke:none"
         id="path430" /><path
         d="m 423.211,789.422 h -46.027 v 297.058 h 46.027 V 789.422"
         style="fill:#213046;fill-opacity:1;fill-rule:nonzero;stroke:none"
         id="path432" /><path
         d="M 783.766,789.422 H 737.73 v 297.058 h 46.036 V 789.422"
         style="fill:#213046;fill-opacity:1;fill-rule:nonzero;stroke:none"
         id="path434" /><path
         d="m 837.906,768.121 h -539.07 c 0,26.828 21.758,48.59 48.582,48.59 H 789.32 c 26.836,0 48.586,-21.762 48.586,-48.59"
         style="fill:#213046;fill-opacity:1;fill-rule:nonzero;stroke:none"
         id="path436" /><path
         d="m 573.227,1153.11 264.679,19.38 c 0,0 0,523.44 -97.511,553.18 -77.325,23.6 -266.727,23.6 -344.051,0 -97.508,-29.74 -97.508,-553.18 -97.508,-553.18 l 264.676,-19.38 v -0.72 l 4.863,0.35 4.852,-0.35 v 0.72"
         style="fill:#f14972;fill-opacity:1;fill-rule:nonzero;stroke:none"
         id="path438" /><path
         d="M 853.258,1046.24 H 290.289 c -15.383,0 -27.851,12.47 -27.851,27.86 v 52.79 c 0,35.3 28.601,63.9 63.898,63.9 0,0 174.656,-16.45 233.816,-16.69 64.141,-0.25 257.063,16.69 257.063,16.69 35.293,0 63.902,-28.6 63.902,-63.9 v -52.79 c 0,-15.39 -12.48,-27.86 -27.859,-27.86"
         style="fill:#d63358;fill-opacity:1;fill-rule:nonzero;stroke:none"
         id="path440" /><path
         d="m 1163.16,1004.81 h -123.51 c -82.037,0 -148.541,66.51 -148.541,148.55 v 78.58 h 40 v -78.58 c 0,-59.95 48.594,-108.55 108.541,-108.55 h 163.51 c 0,-22.09 -17.91,-40 -40,-40"
         style="fill:#213046;fill-opacity:1;fill-rule:nonzero;stroke:none"
         id="path442" /><path
         d="m 949.555,1210.44 h -72.364 c -8.738,0 -15.828,7.09 -15.828,15.83 0,28.72 23.282,52.01 52.012,52.01 28.719,0 52.004,-23.29 52.004,-52.01 0,-8.74 -7.082,-15.83 -15.824,-15.83"
         style="fill:#d63358;fill-opacity:1;fill-rule:nonzero;stroke:none"
         id="path444" /><path
         d="m 1339.58,1004.81 h 123.5 c 82.04,0 148.55,66.51 148.55,148.55 v 78.58 h -40 v -78.58 c 0,-59.95 -48.61,-108.55 -108.55,-108.55 h -163.5 c 0,-22.09 17.91,-40 40,-40"
         style="fill:#213046;fill-opacity:1;fill-rule:nonzero;stroke:none"
         id="path446" /><path
         d="m 1553.18,1210.44 h 72.36 c 8.74,0 15.83,7.09 15.83,15.83 0,28.72 -23.28,52.01 -52.01,52.01 -28.72,0 -52.01,-23.29 -52.01,-52.01 0,-8.74 7.09,-15.83 15.83,-15.83"
         style="fill:#d63358;fill-opacity:1;fill-rule:nonzero;stroke:none"
         id="path448" /><path
         d="m 1102.11,789.422 h -46.03 v 297.058 h 46.03 V 789.422"
         style="fill:#213046;fill-opacity:1;fill-rule:nonzero;stroke:none"
         id="path450" /><path
         d="m 1462.66,789.422 h -46.02 v 297.058 h 46.02 V 789.422"
         style="fill:#213046;fill-opacity:1;fill-rule:nonzero;stroke:none"
         id="path452" /><path
         d="M 1516.8,768.121 H 977.73 c 0,26.828 21.758,48.59 48.58,48.59 h 441.91 c 26.83,0 48.58,-21.762 48.58,-48.59"
         style="fill:#213046;fill-opacity:1;fill-rule:nonzero;stroke:none"
         id="path454" /><path
         d="m 1252.12,1153.11 264.68,19.38 c 0,0 0,523.44 -97.51,553.18 -77.32,23.6 -266.73,23.6 -344.04,0 -97.52,-29.74 -97.52,-553.18 -97.52,-553.18 l 264.69,-19.38 v -0.72 l 4.85,0.35 4.85,-0.35 v 0.72"
         style="fill:#f14972;fill-opacity:1;fill-rule:nonzero;stroke:none"
         id="path456" /><path
         d="M 1532.15,1046.24 H 969.184 c -15.379,0 -27.848,12.47 -27.848,27.86 v 52.79 c 0,35.3 28.602,63.9 63.894,63.9 0,0 174.66,-16.45 233.82,-16.69 64.14,-0.25 257.06,16.69 257.06,16.69 35.29,0 63.91,-28.6 63.91,-63.9 v -52.79 c 0,-15.39 -12.49,-27.86 -27.87,-27.86"
         style="fill:#d63358;fill-opacity:1;fill-rule:nonzero;stroke:none"
         id="path458" /><path
         d="m 1842.06,1004.81 h -123.51 c -82.04,0 -148.54,66.51 -148.54,148.55 v 78.58 h 40 v -78.58 c 0,-59.95 48.59,-108.55 108.54,-108.55 h 163.51 c 0,-22.09 -17.91,-40 -40,-40"
         style="fill:#213046;fill-opacity:1;fill-rule:nonzero;stroke:none"
         id="path460" /><path
         d="m 1628.45,1210.44 h -72.36 c -8.74,0 -15.83,7.09 -15.83,15.83 0,28.72 23.28,52.01 52.01,52.01 28.72,0 52,-23.29 52,-52.01 0,-8.74 -7.08,-15.83 -15.82,-15.83"
         style="fill:#d63358;fill-opacity:1;fill-rule:nonzero;stroke:none"
         id="path462" /><path
         d="m 2018.47,1004.81 h 123.51 c 82.04,0 148.54,66.51 148.54,148.55 v 78.58 h -40 v -78.58 c 0,-59.95 -48.59,-108.55 -108.54,-108.55 h -163.51 c 0,-22.09 17.91,-40 40,-40"
         style="fill:#213046;fill-opacity:1;fill-rule:nonzero;stroke:none"
         id="path464" /><path
         d="m 2232.08,1210.44 h 72.36 c 8.74,0 15.83,7.09 15.83,15.83 0,28.72 -23.28,52.01 -52.01,52.01 -28.72,0 -52,-23.29 -52,-52.01 0,-8.74 7.08,-15.83 15.82,-15.83"
         style="fill:#d63358;fill-opacity:1;fill-rule:nonzero;stroke:none"
         id="path466" /><path
         d="m 1781,789.422 h -46.02 V 1086.48 H 1781 V 789.422"
         style="fill:#213046;fill-opacity:1;fill-rule:nonzero;stroke:none"
         id="path468" /><path
         d="m 2141.56,789.422 h -46.03 v 297.058 h 46.03 V 789.422"
         style="fill:#213046;fill-opacity:1;fill-rule:nonzero;stroke:none"
         id="path470" /><path
         d="m 2195.7,768.121 h -539.06 c 0,26.828 21.74,48.59 48.58,48.59 h 441.89 c 26.84,0 48.59,-21.762 48.59,-48.59"
         style="fill:#213046;fill-opacity:1;fill-rule:nonzero;stroke:none"
         id="path472" /><path
         d="m 1931.02,1153.11 264.68,19.38 c 0,0 0,523.44 -97.51,553.18 -77.32,23.6 -266.73,23.6 -344.04,0 -97.51,-29.74 -97.51,-553.18 -97.51,-553.18 l 264.67,-19.38 v -0.72 l 4.86,0.35 4.85,-0.35 v 0.72"
         style="fill:#f14972;fill-opacity:1;fill-rule:nonzero;stroke:none"
         id="path474" /><path
         d="m 2211.05,1046.24 h -562.96 c -15.39,0 -27.86,12.47 -27.86,27.86 v 52.79 c 0,35.3 28.6,63.9 63.9,63.9 0,0 174.65,-16.45 233.81,-16.69 64.15,-0.25 257.07,16.69 257.07,16.69 35.29,0 63.9,-28.6 63.9,-63.9 v -52.79 c 0,-15.39 -12.47,-27.86 -27.86,-27.86"
         style="fill:#d63358;fill-opacity:1;fill-rule:nonzero;stroke:none"
         id="path476" /><path
         d="m 4271.94,1858.59 c 0,0 27.32,37.44 111.31,38.66 0,0 268.17,323.99 273.15,366.19 13.75,116.56 -525.31,446.01 -525.31,446.01 0,0 46.6,202.78 98.64,219.96 52.04,17.19 681.01,-450.24 711.94,-556.78 30.93,-106.55 -254.48,-747.95 -655.44,-949.35 0,0 -101.59,294.4 -14.29,435.31"
         style="fill:#f14972;fill-opacity:1;fill-rule:nonzero;stroke:none"
         id="path478" /><path
         d="m 2161.38,916.09 c -2.09,1.949 -2.92,4.859 -2.77,7.711 0.64,12.211 4.83,52.16 31.75,96.879 32.38,53.8 95.22,15.53 95.22,15.53 0,0 -50.21,-26.1 -69.92,-68.03 -22.21,-47.239 -42.07,-63.399 -54.28,-52.09"
         style="fill:#f89b94;fill-opacity:1;fill-rule:nonzero;stroke:none"
         id="path480" /><path
         d="m 2210.99,916.09 c -2.1,1.949 -2.93,4.859 -2.77,7.711 0.64,12.211 4.83,52.16 31.75,96.879 32.38,53.8 95.21,15.53 95.21,15.53 0,0 -50.21,-26.1 -69.92,-68.03 -22.2,-47.239 -42.06,-63.399 -54.27,-52.09"
         style="fill:#f89b94;fill-opacity:1;fill-rule:nonzero;stroke:none"
         id="path482" /><path
         d="m 2275.28,918.398 c -2.46,1.454 -3.9,4.122 -4.36,6.942 -1.95,12.058 -6.33,51.992 10.48,101.42 20.24,59.44 89.76,35.37 89.76,35.37 0,0 -43.54,-36.16 -53.9,-81.321 -11.68,-50.879 -27.65,-70.879 -41.98,-62.411"
         style="fill:#f89b94;fill-opacity:1;fill-rule:nonzero;stroke:none"
         id="path484" /><path
         d="m 2190.36,1020.68 c 0,0 53.42,119.71 328.23,67.58 l 10.28,-94.76 -297.62,-4.539 -40.89,31.719"
         style="fill:#f89b94;fill-opacity:1;fill-rule:nonzero;stroke:none"
         id="path486" /><path
         d="M 2449.09,1027.03 H 2326.8 c -3.74,0 -6.76,3.03 -6.76,6.76 0,3.73 3.02,6.76 6.76,6.76 h 122.29 c 3.73,0 6.75,-3.03 6.75,-6.76 0,-3.73 -3.02,-6.76 -6.75,-6.76"
         style="fill:#213046;fill-opacity:1;fill-rule:nonzero;stroke:none"
         id="path488" /><path
         d="m 2238.63,1004.05 h 25.52 V 567.52 h -25.52 v 436.53"
         style="fill:#a3afac;fill-opacity:1;fill-rule:nonzero;stroke:none"
         id="path490" /><path
         d="m 2513.59,1004.05 h 25.52 V 567.52 h -25.52 v 436.53"
         style="fill:#a3afac;fill-opacity:1;fill-rule:nonzero;stroke:none"
         id="path492" /><path
         d="m 2546.27,979.961 h -314.8 c -14.48,0 -11.74,11.738 -11.74,26.219 0,14.48 11.74,26.22 26.22,26.22 h 285.84 c 14.48,0 26.21,-11.74 26.21,-26.22 0,-14.481 2.75,-26.219 -11.73,-26.219"
         style="fill:#f14972;fill-opacity:1;fill-rule:nonzero;stroke:none"
         id="path494" /><path
         d="m 2215.11,592.012 c 0,0 4.28,43.367 39.71,53.148 35.43,9.77 243.75,10.379 262.69,5.488 18.94,-4.878 49.48,-60.468 44.6,-65.367 -4.9,-4.883 -34.83,-3.039 -34.83,-3.039 0,0 -7.94,43.977 -23.83,40.918 -15.88,-3.051 -226.02,6.32 -247.41,-5.39 -21.38,-11.719 -19.55,-40.43 -19.55,-40.43 l -21.38,14.672"
         style="fill:#f14972;fill-opacity:1;fill-rule:nonzero;stroke:none"
         id="path496" /><path
         d="m 2743.6,603.449 h -709.46 c -65.51,0 -115.28,-25.25 -115.28,-90.758 l -21.11,-611.6598 c 0,-65.5192 70.88,-105.2812 136.39,-105.2812 h 709.46 c 65.51,0 128.61,54 128.61,119.5117 l -22.25,604.2503 c 0,65.519 -40.85,83.937 -106.36,83.937"
         style="fill:#2c7c89;fill-opacity:1;fill-rule:nonzero;stroke:none"
         id="path498" /><path
         d="m 2788.45,-134.238 h -799.17 v 522.527 c 0,31.922 25.88,57.781 57.8,57.781 h 683.59 c 31.91,0 57.78,-25.859 57.78,-57.781 v -522.527"
         style="fill:#f14972;fill-opacity:1;fill-rule:nonzero;stroke:none"
         id="path500" /><path
         d="m 1994.28,-129.238 h 789.17 v 517.527 c 0,29.102 -23.68,52.781 -52.78,52.781 h -683.59 c -29.12,0 -52.8,-23.679 -52.8,-52.781 z m 799.17,-10 h -809.17 v 527.527 c 0,34.621 28.17,62.781 62.8,62.781 h 683.59 c 34.62,0 62.78,-28.16 62.78,-62.781 v -527.527"
         style="fill:#86d7e1;fill-opacity:1;fill-rule:nonzero;stroke:none"
         id="path502" /><path
         d="m 1980.79,343.68 -4.48,-59.16 c -0.33,-4.29 3.07,-7.95 7.38,-7.95 h 11.2 c 4.45,0 7.89,3.91 7.33,8.321 l -7.26,57.441 -14.17,1.348"
         style="fill:#a3afac;fill-opacity:1;fill-rule:nonzero;stroke:none"
         id="path504" /><path
         d="m 1994,341.082 h -11.62 c -2.77,0 -5,2.25 -5,5 v 14.789 c 0,2.758 2.23,5 5,5 H 1994 c 2.76,0 5,-2.242 5,-5 v -14.789 c 0,-2.75 -2.24,-5 -5,-5"
         style="fill:#b1d4ce;fill-opacity:1;fill-rule:nonzero;stroke:none"
         id="path506" /><path
         d="m 2065.67,-186.648 c 0,0 -3,461.218 19.51,481.488 22.53,20.269 550.25,31.539 573.89,10.148 23.65,-21.398 22.52,-481.496 13.51,-507.398 -9.01,-25.899 -606.91,15.762 -606.91,15.762"
         style="fill:#86d7e1;fill-opacity:1;fill-rule:nonzero;stroke:none"
         id="path508" /><path
         d="m 2668.44,-199.809 z m -597.8,17.829 c 221.66,-15.348 574.4,-33.532 597.43,-18.11 8.94,32.61 7.79,481.492 -12.36,501.379 -23.02,18.633 -542.52,9.332 -567.2,-10.187 -15.01,-15.95 -18.91,-296.60981 -17.87,-473.082 z m 510.62,-33.911 c -45.93,0 -114.15,1.813 -215.76,6.653 -148.92,7.097 -298.68,17.5 -300.18,17.597 l -4.62,0.321 -0.03,4.64 c -0.51,77.391 -1.85,464.512 21.17,485.239 24.95,22.461 556.7,31.742 580.58,10.14 27.03,-24.449 23.44,-488.148 14.89,-512.75 -1.6,-4.597 -4.14,-11.84 -96.05,-11.84"
         style="fill:#213046;fill-opacity:1;fill-rule:nonzero;stroke:none"
         id="path510" /><path
         d="m 2348.79,311.898 44.53,-39.207 c 3.23,-2.851 8.2,-2.339 10.79,1.09 l 6.75,8.938 c 2.68,3.562 1.64,8.66 -2.22,10.871 l -50.23,28.808 -9.62,-10.5"
         style="fill:#a3afac;fill-opacity:1;fill-rule:nonzero;stroke:none"
         id="path512" /><path
         d="m 2361.63,319.699 -0.96,-11.578 c -0.23,-2.762 -2.64,-4.812 -5.39,-4.582 l -14.74,1.223 c -2.75,0.218 -4.79,2.629 -4.57,5.39 l 0.96,11.578 c 0.22,2.75 2.64,4.79 5.39,4.571 l 14.74,-1.211 c 2.74,-0.231 4.79,-2.641 4.57,-5.391"
         style="fill:#b1d4ce;fill-opacity:1;fill-rule:nonzero;stroke:none"
         id="path514" /><path
         d="m 2320.44,311.898 -44.52,-39.207 c -3.22,-2.851 -8.19,-2.339 -10.78,1.09 l -6.76,8.938 c -2.67,3.562 -1.63,8.66 2.23,10.871 l 50.22,28.808 9.61,-10.5"
         style="fill:#a3afac;fill-opacity:1;fill-rule:nonzero;stroke:none"
         id="path516" /><path
         d="m 2307.62,319.699 0.96,-11.578 c 0.22,-2.762 2.64,-4.812 5.39,-4.582 l 14.74,1.223 c 2.74,0.218 4.79,2.629 4.57,5.39 l -0.96,11.578 c -0.22,2.75 -2.64,4.79 -5.39,4.571 l -14.74,-1.211 c -2.75,-0.231 -4.79,-2.641 -4.57,-5.391"
         style="fill:#b1d4ce;fill-opacity:1;fill-rule:nonzero;stroke:none"
         id="path518" /><path
         d="m 2331.3,956.191 c 0,0 -8.36,-32.05 115.85,20.719 0,0 91.4,-11.582 140.31,44.42 48.91,55.98 -68.87,66.93 -68.87,66.93 0,0 -200.8,-86.51 -187.29,-132.069"
         style="fill:#f89b94;fill-opacity:1;fill-rule:nonzero;stroke:none"
         id="path520" /><path
         d="m 2101.32,961.672 c 0,0 27.88,-8.133 120.77,44.508 16.64,9.44 46.63,15.36 63.49,26.22 80.78,52 -37.46,39.95 -37.46,39.95 0,0 -217.19,-111.998 -146.8,-110.678"
         style="fill:#f89b94;fill-opacity:1;fill-rule:nonzero;stroke:none"
         id="path522" /><path
         d="m 2475.45,1106.67 c 0,0 -42.58,7.43 -35.65,-10.9 6.93,-18.32 27.73,-132.598 52.99,-130.231 25.25,2.352 31.69,-9.91 52.99,4.449 21.29,14.371 -67.36,134.702 -67.36,134.702 l -2.97,1.98"
         style="fill:#ffffff;fill-opacity:1;fill-rule:nonzero;stroke:none"
         id="path524" /><path
         d="m 3385.87,1801.14 c -138.89,-9.89 -352.35,-525.6 -491.31,-594.24 -113.49,-56.05 -275.16,-59.87 -393.85,-65.56 -20.93,-1.01 -38.13,-19.82 -26.74,-49.52 l 37.04,-109.488 c 9.12,-26.961 35.11,-44.492 63.53,-42.891 144.76,8.168 401.6,38.5 494.35,116.369 227.08,190.66 312.43,299.05 312.43,299.05 0,0 120.76,454.56 4.55,446.28"
         style="fill:#f14972;fill-opacity:1;fill-rule:nonzero;stroke:none"
         id="path526" /><path
         d="m 3428.39,799.969 v -949.778 h 240.85 l 53.23,633.52 232.11,9.141 86.11,-676.161 h 237.52 L 4248.1,895.48 3428.39,799.969"
         style="fill:#213046;fill-opacity:1;fill-rule:nonzero;stroke:none"
         id="path528" /><path
         d="m 3861.57,505.59 c -17.59,0 -33.13,6.64 -46.24,19.75 -58.83,58.89 -50.73,230.469 -50.35,237.75 0.13,2.75 2.11,5.129 5.24,4.73 2.76,-0.129 4.88,-2.488 4.74,-5.238 -0.09,-1.742 -8.26,-174.434 47.45,-230.172 10.88,-10.89 23.16,-16.398 37.44,-16.801 -0.47,32.633 -2.78,206.192 0.09,237.563 0.24,2.75 2.78,4.719 5.44,4.527 2.74,-0.258 4.77,-2.687 4.52,-5.437 -3.06,-33.391 -0.01,-239.442 0.02,-241.512 0.04,-2.691 -2.06,-4.93 -4.75,-5.07 -1.21,-0.059 -2.41,-0.09 -3.6,-0.09"
         style="fill:#374868;fill-opacity:1;fill-rule:nonzero;stroke:none"
         id="path530" /><path
         d="m 4202.66,592.832 c -114.41,0 -149.03,83.238 -149.36,84.09 -1.03,2.558 0.21,5.457 2.77,6.5 2.55,1.008 5.46,-0.223 6.5,-2.781 1.29,-3.192 32.68,-77.809 140.04,-77.809 l 1.64,0.008 c 2.75,0 4.98,-2.219 5,-4.961 0.02,-2.758 -2.2,-5.02 -4.96,-5.039 l -1.63,-0.008"
         style="fill:#374868;fill-opacity:1;fill-rule:nonzero;stroke:none"
         id="path532" /><path
         d="m 3469.56,559.371 c -2.1,0 -4.06,1.328 -4.75,3.438 -0.87,2.621 0.56,5.453 3.18,6.312 127.64,42.051 145.91,128.539 146.08,129.41 0.53,2.688 3.11,4.551 5.86,3.949 2.7,-0.519 4.48,-3.128 3.96,-5.839 -0.72,-3.782 -19.21,-93.02 -152.77,-137.012 l -1.56,-0.258"
         style="fill:#374868;fill-opacity:1;fill-rule:nonzero;stroke:none"
         id="path534" /><path
         d="m 3659.67,455.648 -0.27,0.012 c -2.75,0.149 -4.87,2.512 -4.72,5.27 l 0.82,14.98 c 0.16,2.75 2.43,4.93 5.27,4.711 2.75,-0.141 4.87,-2.5 4.71,-5.262 l -0.82,-14.98 c -0.14,-2.668 -2.35,-4.731 -4.99,-4.731"
         style="fill:#374868;fill-opacity:1;fill-rule:nonzero;stroke:none"
         id="path536" /><path
         d="m 3656.27,392.98 -0.28,0.012 c -2.75,0.137 -4.87,2.508 -4.71,5.258 l 1.7,31.34 c 0.15,2.75 2.22,4.93 5.27,4.719 2.75,-0.149 4.87,-2.508 4.71,-5.27 l -1.7,-31.328 c -0.15,-2.672 -2.36,-4.731 -4.99,-4.731 z m -3.41,-62.691 -0.28,0.012 c -2.75,0.148 -4.87,2.508 -4.71,5.269 l 1.71,31.328 c 0.15,2.762 2.29,4.961 5.26,4.723 2.75,-0.152 4.87,-2.512 4.72,-5.262 l -1.71,-31.339 c -0.15,-2.668 -2.36,-4.731 -4.99,-4.731 z m -3.41,-62.68 -0.27,0.012 c -2.76,0.141 -4.88,2.508 -4.72,5.258 l 1.71,31.351 c 0.15,2.75 2.37,4.961 5.26,4.719 2.76,-0.148 4.87,-2.508 4.72,-5.269 l -1.71,-31.348 c -0.15,-2.66 -2.35,-4.723 -4.99,-4.723 z m -3.41,-62.687 -0.27,0.008 c -2.76,0.152 -4.88,2.511 -4.72,5.269 l 1.71,31.34 c 0.16,2.762 2.45,4.981 5.26,4.723 2.76,-0.153 4.88,-2.512 4.72,-5.262 l -1.71,-31.352 c -0.15,-2.668 -2.35,-4.726 -4.99,-4.726 z m -3.41,-62.672 -0.27,0.012 c -2.75,0.136 -4.87,2.5 -4.72,5.258 l 1.7,31.339 c 0.15,2.75 2.24,5 5.27,4.711 2.75,-0.14 4.87,-2.5 4.71,-5.261 l -1.7,-31.34 c -0.14,-2.66 -2.35,-4.719 -4.99,-4.719 z m -3.41,-62.6914 -0.27,0.0117 c -2.75,0.1485 -4.87,2.5 -4.72,5.2617 l 1.7,31.34 c 0.16,2.758 2.38,4.918 5.27,4.719 2.75,-0.149 4.87,-2.5 4.71,-5.27 l -1.7,-31.3319 c -0.14,-2.668 -2.35,-4.7305 -4.99,-4.7305 z m -3.4,-62.6875 -0.28,0.0078 c -2.75,0.1524 -4.87,2.5 -4.71,5.2695 l 1.7,31.3516 c 0.15,2.75 2.39,5.0313 5.26,4.7109 2.75,-0.1406 4.87,-2.5 4.72,-5.2617 l -1.7,-31.3476 c -0.15,-2.6602 -2.35,-4.7305 -4.99,-4.7305 z m -3.42,-62.6719 -0.28,0.0117 c -2.75,0.1485 -4.87,2.5078 -4.71,5.2578 l 1.71,31.33989 c 0.15,2.75 2.16,4.89063 5.26,4.72266 2.75,-0.15234 4.87,-2.51172 4.72,-5.26953 l -1.71,-31.33202 c -0.15,-2.668 -2.36,-4.7305 -4.99,-4.7305 z m -3.41,-62.6872 -0.27,0.008 c -2.76,0.152 -4.88,2.511 -4.72,5.269 l 1.71,31.3321 c 0.15,2.7578 2.24,4.918 5.26,4.7187 2.76,-0.1406 4.88,-2.5078 4.72,-5.2578 l -1.71,-31.344 c -0.15,-2.668 -2.35,-4.726 -4.99,-4.726"
         style="fill:#374868;fill-opacity:1;fill-rule:nonzero;stroke:none"
         id="path538" /><path
         d="m 4205.69,535.629 c -2.66,0 -4.86,2.082 -4.99,4.762 l -1.44,29.961 c -0.13,2.769 2,5.109 4.76,5.238 2.87,0.359 5.09,-2 5.22,-4.758 l 1.44,-29.953 c 0.14,-2.758 -1.99,-5.109 -4.75,-5.238 z m 2.88,-59.93 c -2.66,0 -4.86,2.082 -4.99,4.762 l -1.45,29.961 c -0.13,2.758 2,5.109 4.75,5.226 3.09,0.313 5.11,-1.988 5.23,-4.738 l 1.45,-29.961 c 0.14,-2.769 -1.99,-5.109 -4.75,-5.238 z m 2.87,-59.929 c -2.66,0 -4.86,2.082 -4.99,4.761 l -1.43,29.969 c -0.14,2.75 1.99,5.102 4.74,5.219 2.94,0.422 5.1,-1.989 5.24,-4.739 l 1.43,-29.96 c 0.14,-2.77 -1.99,-5.11 -4.75,-5.239 z m 2.87,-59.93 c -2.65,0 -4.86,2.082 -4.99,4.762 l -1.43,29.957 c -0.14,2.761 1.99,5.101 4.74,5.23 3.15,0.371 5.11,-1.988 5.24,-4.75 l 1.43,-29.957 c 0.14,-2.762 -1.99,-5.102 -4.74,-5.23 z m 2.88,-59.93 c -2.65,0 -4.86,2.082 -4.99,4.762 l -1.43,29.949 c -0.14,2.77 1.99,5.109 4.74,5.238 3,0.313 5.1,-1.988 5.24,-4.757 l 1.43,-29.954 c 0.14,-2.757 -1.99,-5.109 -4.74,-5.226 z m 2.87,-59.93 c -2.65,0 -4.86,2.079 -4.99,4.75 l -1.43,29.961 c -0.14,2.77 1.99,5.11 4.75,5.239 2.86,0.429 5.1,-1.989 5.23,-4.75 l 1.43,-29.961 c 0.14,-2.758 -1.99,-5.11 -4.74,-5.227 z m 2.88,-59.941 c -2.65,0 -4.86,2.082 -4.99,4.762 l -1.44,29.961 c -0.14,2.769 1.99,5.109 4.75,5.238 3.06,0.379 5.1,-2 5.23,-4.75 l 1.45,-29.961 c 0.13,-2.758 -2,-5.109 -4.75,-5.238 z m 2.88,-59.93 c -2.66,0 -4.87,2.082 -4.99,4.762 l -1.44,29.961 c -0.14,2.758 1.99,5.109 4.75,5.227 2.92,0.332 5.09,-1.989 5.23,-4.739 l 1.44,-29.961 c 0.13,-2.769 -2,-5.109 -4.76,-5.238 z m 2.88,-59.9293 c -2.66,0 -4.87,2.082 -4.99,4.7617 l -1.45,29.957 c -0.14,2.7618 1.99,5.1133 4.75,5.2305 3.12,0.2813 5.1,-1.9883 5.23,-4.7383 l 1.45,-29.9609 c 0.13,-2.7695 -2,-5.1094 -4.75,-5.2383 z m 2.87,-59.9297 c -2.66,0 -4.87,2.08203 -4.99,4.76953 l -1.44,29.97267 c -0.13,2.7461 1.99,5.0898 4.75,5.2187 2.98,0.211 5.1,-1.9804 5.23,-4.75 l 1.44,-29.98043 c 0.13,-2.75 -1.99,-5.08985 -4.76,-5.21875 z m 2.87,-59.9297 c -2.66,0 -4.86,2.0781 -4.99,4.7617 l -1.44,29.9688 c -0.13,2.7578 2,5.0976 4.76,5.2304 2.83,0.3204 5.1,-1.9921 5.22,-4.7617 l 1.44,-29.9687 c 0.14,-2.75 -1.99,-5.0899 -4.76,-5.2188 z m 2.88,-59.9293 c -2.66,0 -4.86,2.078 -4.99,4.757 l -1.44,29.9731 c -0.13,2.7578 2,5.0976 4.76,5.2305 2.69,0.4375 5.1,-1.9922 5.22,-4.7618 l 1.44,-29.9688 c 0.14,-2.75 -1.99,-5.101 -4.76,-5.219 z m 2.87,-59.93 c -2.66,0 -4.86,2.078 -4.99,4.758 l -1.43,29.972 c -0.14,2.758 1.99,5.098 4.75,5.231 2.89,0.207 5.09,-1.992 5.23,-4.762 l 1.43,-29.969 c 0.14,-2.75 -1.99,-5.101 -4.75,-5.23 h -0.24"
         style="fill:#374868;fill-opacity:1;fill-rule:nonzero;stroke:none"
         id="path540" /><path
         d="m 3376.41,1768.02 c 0,0 -60.84,507.56 207.64,510.77 268.48,3.21 484.66,0 484.66,0 0,0 266.22,-5.23 204.31,-477.52 -61.91,-472.29 -809.2,-386.62 -809.2,-386.62 l -87.41,353.37"
         style="fill:#2c7c89;fill-opacity:1;fill-rule:nonzero;stroke:none"
         id="path542" /><path
         d="m 4068.71,2278.79 c 0,0 -216.18,3.21 -484.66,0 -100.32,-1.2 -154.65,-72.82 -183.36,-162.07 39.62,-30.14 142.05,-51.9 402.78,-44.18 267.34,7.92 401.59,18.59 450.09,47.37 -58.3,156.37 -184.85,158.88 -184.85,158.88"
         style="fill:#74cfb4;fill-opacity:1;fill-rule:nonzero;stroke:none"
         id="path544" /><path
         d="m 4173.53,1973.83 c -13.95,12.98 -39.02,16.96 -42.42,35.72 -2.36,13.05 8.17,24.88 10.05,38.01 2.53,17.72 -10.96,33.62 -25.1,44.61 -14.14,10.97 -30.6,20.62 -38.44,36.71 18.54,7.37 21.62,34.54 10.54,51.13 -11.09,16.58 -30.92,24.75 -49.87,30.99 -114.56,37.7 -241.16,37.85 -355.81,0.43 -30.17,-9.85 -61.29,-23.64 -78.73,-50.14 -17.46,-26.5 -13.9,-68.73 14.44,-83.01 -12.56,-16.25 -34.86,-20.48 -52.95,-30.22 -18.08,-9.76 -33.09,-34.34 -19.58,-49.83 -25.28,-4.99 -47.12,-24.6 -54.78,-49.2 -7.66,-24.6 -0.83,-53.15 17.14,-71.61 21.31,-21.89 53.66,-27.93 83.81,-32.86 77.24,-12.64 154.47,-25.26 231.72,-37.9 21.46,-3.52 43.24,-7.03 64.83,-4.56 20.49,2.35 39.94,9.99 59.39,16.82 31.05,10.9 313.42,73.34 225.76,154.91"
         style="fill:#f14972;fill-opacity:1;fill-rule:nonzero;stroke:none"
         id="path546" /><path
         d="m 3687.02,2029.35 c -6.79,4.18 -20.43,14.14 -22.69,21.31 -3.37,10.68 7.52,21.22 5.78,32.2 -2.59,16.42 -29.42,20.45 -35.85,36.01 -3.5,8.48 0.42,18.29 7.29,24.67 6.86,6.4 16.16,10.03 25.34,13.2 22.19,7.64 45.13,13.45 68.34,18.05 98.23,19.55 201.76,17.77 299.81,-5.14 10.4,-2.43 21.5,-5.53 28.18,-13.29 10.72,-12.45 4.58,-31.84 -8.52,-41.85 -6.14,-4.7 -14.14,-8.82 -15.52,-16.08 -1.17,-6.12 2.95,-11.96 6.24,-17.45 3.28,-5.5 5.73,-12.65 1.7,-17.61 -3.66,-4.5 -11.41,-5.36 -14.17,-10.38 -3.58,-6.56 3.96,-13.58 6.24,-20.69 2.18,-6.83 -0.77,-14.18 -5.22,-19.91 -4.45,-5.73 -36.85,13.96 -47.06,-12.69 -6.75,-17.62 14.79,-36.33 2.19,-50.38 -13.94,-15.53 -36.12,-23.15 -58.04,-25.3 -21.92,-2.15 -44.09,0.49 -66.13,2.05 -16.8,1.2 -33.73,1.77 -50.19,5.23 -15.83,3.32 -30.9,9.24 -45.6,15.63 -20.06,8.71 -39.64,18.36 -58.66,28.89 -12.49,6.92 -19.24,-10.63 -25.59,2.01 9.38,0.46 9.3,12.11 12.64,21.87 3.11,9.09 -2.76,24.88 -10.51,29.65"
         style="fill:#d63358;fill-opacity:1;fill-rule:nonzero;stroke:none"
         id="path548" /><path
         d="m 4286.23,786.762 h -892.88 v 868.518 c 0,191.73 155.42,347.15 347.14,347.15 h 198.58 c 191.73,0 347.16,-155.42 347.16,-347.15 V 786.762"
         style="fill:#ffffff;fill-opacity:1;fill-rule:nonzero;stroke:none"
         id="path550" /><path
         d="m 3697.53,1999.7 22.3,-1289.509 c -65.25,-52.652 -326.48,76.571 -326.48,76.571 0,0 -22.83,21.136 -28.21,191.09 -5.38,169.948 27.22,554.068 28.21,677.428 0.98,123.36 96.25,332.54 304.18,344.42"
         style="fill:#f14972;fill-opacity:1;fill-rule:nonzero;stroke:none"
         id="path552" /><path
         d="m 3985.37,1999.7 -22.3,-1302.118 c 66.81,-51.934 326.49,89.18 326.49,89.18 0,0 22.82,21.136 28.2,191.09 5.38,169.948 -27.22,554.068 -28.2,677.428 -0.99,123.36 -96.25,332.54 -304.19,344.42"
         style="fill:#f14972;fill-opacity:1;fill-rule:nonzero;stroke:none"
         id="path554" /><path
         d="m 3388.56,2864.18 c 0,0 -52.7,-209.24 0,-246.5 52.7,-37.25 139.18,203.27 114.85,230.29 -24.31,27.03 -114.85,16.21 -114.85,16.21"
         style="fill:#213046;fill-opacity:1;fill-rule:nonzero;stroke:none"
         id="path556" /><path
         d="m 4225.62,2532.91 c 0,-271.44 -227.91,-433.35 -460.64,-419.41 -252.34,15.11 -383.66,147.97 -383.66,419.41 0,271.43 189.01,491.47 422.15,491.47 233.15,0 422.15,-220.04 422.15,-491.47"
         style="fill:#f89b94;fill-opacity:1;fill-rule:nonzero;stroke:none"
         id="path558" /><path
         d="m 3683.39,2477.4 c -25.79,0 -65.88,9.92 -70.09,49.19 -1.38,13.03 1.08,23.06 7.35,29.85 10.22,11.07 27.63,10.52 41.45,10.17 6.95,-0.2 14.73,-0.44 17.54,1.13 5.43,3.02 2.7,23.51 -3.39,39.81 -1.46,3.88 0.52,8.2 4.39,9.65 3.91,1.46 8.2,-0.51 9.67,-4.38 2.92,-7.79 16.45,-47.17 -3.38,-58.2 -6.43,-3.55 -15.09,-3.32 -25.26,-3.01 -11.42,0.36 -24.43,0.69 -29.99,-5.36 -3.22,-3.46 -4.37,-9.54 -3.45,-18.06 4.2,-39.42 58.95,-35.7 61.2,-35.55 4.34,0.03 7.76,-2.78 8.08,-6.91 0.31,-4.12 -2.79,-7.72 -6.91,-8.05 -2.23,-0.18 -4.65,-0.28 -7.21,-0.28"
         style="fill:#213046;fill-opacity:1;fill-rule:nonzero;stroke:none"
         id="path560" /><path
         d="m 3852.2,2629.95 c 0,-24.26 -9.07,-43.92 -20.27,-43.92 -11.19,0 -20.26,19.66 -20.26,43.92 0,24.26 9.07,43.92 20.26,43.92 11.2,0 20.27,-19.66 20.27,-43.92"
         style="fill:#213046;fill-opacity:1;fill-rule:nonzero;stroke:none"
         id="path562" /><path
         d="m 3553.19,2640.58 c 0,-24.26 -9.08,-43.92 -20.27,-43.92 -11.21,0 -20.28,19.66 -20.28,43.92 0,24.26 9.07,43.93 20.28,43.93 11.19,0 20.27,-19.67 20.27,-43.93"
         style="fill:#213046;fill-opacity:1;fill-rule:nonzero;stroke:none"
         id="path564" /><path
         d="m 4200.4,2700.61 c 0,0 128.83,76.81 149.11,-85.37 20.27,-162.18 -149.11,-158.79 -149.11,-158.79 v 244.16"
         style="fill:#f89b94;fill-opacity:1;fill-rule:nonzero;stroke:none"
         id="path566" /><path
         d="m 3742.87,2157.76 v -174 c 0,-46.4 38.78,-83.4 85.13,-81.2 43.36,2.04 77.46,37.79 77.46,81.2 v 174 h -162.59"
         style="fill:#f89b94;fill-opacity:1;fill-rule:nonzero;stroke:none"
         id="path568" /><path
         d="m 3381.32,2532.91 c 0,0 34.1,-130.34 86.96,-128.69 52.86,1.65 89.76,72.02 186.95,73.18 97.18,1.15 183.09,-21.11 277.25,-49.63 94.16,-28.51 206.25,6.05 252.62,179.57 46.38,173.53 59.89,6.43 59.89,6.43 0,0 83.19,-556.82 -502.88,-516.82 -435.73,29.74 -360.79,435.96 -360.79,435.96"
         style="fill:#213046;fill-opacity:1;fill-rule:nonzero;stroke:none"
         id="path570" /><path
         d="m 3593.74,2360.2 c 0,37.32 49.16,67.57 109.8,67.57 60.65,0 109.82,-30.25 109.82,-67.57 0,-37.32 -49.17,-11.83 -109.82,-11.83 -60.64,0 -109.8,-25.49 -109.8,11.83"
         style="fill:#ffffff;fill-opacity:1;fill-rule:nonzero;stroke:none"
         id="path572" /><path
         d="m 4231.97,2568.44 c 0,0 -51.98,-1.04 -71.85,118.36 -19.86,119.39 -34.32,181.77 -99.9,188.77 -65.58,7 -255.66,-144.74 -449.46,-115.67 -184.77,27.72 -431.25,99.75 -368.8,353.96 8.19,33.36 31.79,61.88 64.56,72.14 11.62,3.64 24.34,5.12 37.25,2.24 0,0 4.51,65.54 91.53,59.59 76.99,-5.25 75.16,-71.39 75.16,-71.39 0,0 70.62,35.75 98.14,-31.66 25.04,-61.34 -38.35,-90.57 -38.35,-90.57 0,0 134.82,4.62 205.74,39.71 70.92,35.09 267.08,130.02 362.55,54.56 124.51,-98.42 207.74,-198.77 93.43,-580.04"
         style="fill:#213046;fill-opacity:1;fill-rule:nonzero;stroke:none"
         id="path574" /><path
         d="m 4130.65,3166.43 c 6.5,4.51 15.96,1.91 21.56,-3.68 5.61,-5.59 8.3,-13.38 10.82,-20.88 0.25,12.15 0.91,24.78 6.62,35.52 5.72,10.74 17.91,19 29.77,16.28 12.61,-2.89 19.66,-16.18 23.73,-28.45 2.05,-6.21 3.79,-12.7 3.15,-19.2 -0.63,-6.51 -4.08,-13.09 -10,-15.86 7.76,7.99 19.7,11.69 30.61,9.47 10.92,-2.21 20.47,-10.26 24.5,-20.65 1.43,-3.68 2.19,-7.8 1.08,-11.58 -2.16,-7.3 -10.2,-10.89 -17.38,-13.44 -5.76,-2.07 -12.98,-3.78 -17.37,0.49 19.05,2.27 37.01,-16.84 34.98,-35.93 -2.04,-19.08 -21.9,-33.79 -40.99,-31.69 -11.38,1.25 -21.6,7.34 -31.24,13.54 -26.17,16.83 -47.51,35.6 -60.56,64.37 -6.3,13.89 -26.02,50.12 -9.28,61.69"
         style="fill:#213046;fill-opacity:1;fill-rule:nonzero;stroke:none"
         id="path576" /><path
         d="m 4037.27,1895.8 c 8.78,1.47 17.14,-4.27 18.87,-12.99 8.74,-44.2 31.18,-173.73 16.95,-276.36 0,0 -3.95,-3.29 -8.96,-5.87 v -45.56 c 0,0 -5.88,-8.52 -11.93,0 l -0.66,42.97 c -1.88,0.43 -3.65,1.21 -5.08,2.95 -7.92,9.68 7.79,141.72 -22.45,274.76 -2.12,9.32 3.84,18.53 13.26,20.1"
         style="fill:#ffffff;fill-opacity:1;fill-rule:nonzero;stroke:none"
         id="path578" /><path
         d="m 3636.13,1881.78 c 0,14.37 -11.66,26.03 -26.04,26.03 -14.38,0 -26.04,-11.66 -26.04,-26.03 0,-14.39 11.66,-26.05 26.04,-26.05 14.38,0 26.04,11.66 26.04,26.05"
         style="fill:#d63358;fill-opacity:1;fill-rule:nonzero;stroke:none"
         id="path580" /><path
         d="m 4065.45,1881.78 c 0,14.37 -11.66,26.03 -26.04,26.03 -14.38,0 -26.04,-11.66 -26.04,-26.03 0,-14.39 11.66,-26.05 26.04,-26.05 14.38,0 26.04,11.66 26.04,26.05"
         style="fill:#d63358;fill-opacity:1;fill-rule:nonzero;stroke:none"
         id="path582" /><path
         d="m 3612.3,1895.8 c -8.77,1.47 -17.14,-4.27 -18.86,-12.99 -8.75,-44.2 -31.19,-173.73 -16.95,-276.36 0,0 3.95,-3.29 8.95,-5.87 v -45.56 c 0,0 5.89,-8.52 11.93,0 l 0.67,42.97 c 1.88,0.43 3.65,1.21 5.07,2.95 7.92,9.68 -7.78,141.72 22.46,274.76 2.11,9.32 -3.85,18.53 -13.27,20.1"
         style="fill:#ffffff;fill-opacity:1;fill-rule:nonzero;stroke:none"
         id="path584" /><path
         d="m 3477.41,1881.78 c 0,0 62.62,-621.81 -112.86,-833.93 0,0 -45.24,42.79 -43.37,200.96 1.85,158.16 -67.24,696.5 156.23,632.97"
         style="fill:#74cfb4;fill-opacity:1;fill-rule:nonzero;stroke:none"
         id="path586" /><path
         d="m 4201.2,1881.78 c 0,0 -62.63,-621.81 112.86,-833.93 0,0 45.22,42.79 43.36,200.96 -1.86,158.16 67.23,696.5 -156.22,632.97"
         style="fill:#74cfb4;fill-opacity:1;fill-rule:nonzero;stroke:none"
         id="path588" /><path
         d="m 3411.89,917.82 c 0,0 5.93,-99.281 76.38,-114.672 70.45,-15.378 158.54,22.383 147.36,170.614 0,0 12.16,46.138 -111.39,-12.59 C 3400.7,902.441 3411.89,917.82 3411.89,917.82"
         style="fill:#d63358;fill-opacity:1;fill-rule:nonzero;stroke:none"
         id="path590" /><path
         d="m 4240.44,917.82 c 0,0 -5.93,-99.281 -76.38,-114.672 -70.46,-15.378 -158.56,22.383 -147.37,170.614 0,0 -12.15,46.138 111.39,-12.59 123.54,-58.731 112.36,-43.352 112.36,-43.352"
         style="fill:#d63358;fill-opacity:1;fill-rule:nonzero;stroke:none"
         id="path592" /><path
         d="m 4395.87,3541.49 -96.78,-221.22 c -4.19,-9.57 0.06,-20.72 9.54,-25.1 9.03,-4.16 19.74,-0.73 24.68,7.91 l 120.15,210.45 c 5.58,9.77 1.58,22.22 -8.63,26.92 l -23.36,10.78 c -9.76,4.49 -21.3,0.1 -25.6,-9.74"
         style="fill:#f14972;fill-opacity:1;fill-rule:nonzero;stroke:none"
         id="path594" /><path
         d="m 4314.36,3232.33 c 7.25,15.74 0.37,34.37 -15.36,41.63 -15.73,7.25 -34.37,0.37 -41.62,-15.36 -7.26,-15.73 -0.37,-34.37 15.36,-41.62 15.73,-7.25 34.37,-0.38 41.62,15.35"
         style="fill:#f14972;fill-opacity:1;fill-rule:nonzero;stroke:none"
         id="path596" /><path
         d="m 4239.98,3582.48 -53.74,-235.41 c -2.33,-10.19 3.92,-20.36 14.06,-22.88 9.65,-2.4 19.54,2.98 22.76,12.38 l 78.71,229.2 c 3.66,10.64 -2.58,22.12 -13.5,24.84 l -24.97,6.21 c -10.41,2.59 -20.93,-3.87 -23.32,-14.34"
         style="fill:#f14972;fill-opacity:1;fill-rule:nonzero;stroke:none"
         id="path598" /><path
         d="m 4217.67,3263.54 c 4.18,16.81 -6.05,33.83 -22.87,38.01 -16.81,4.19 -33.83,-6.05 -38.01,-22.86 -4.19,-16.82 6.05,-33.84 22.86,-38.02 16.81,-4.18 33.83,6.05 38.02,22.87"
         style="fill:#f14972;fill-opacity:1;fill-rule:nonzero;stroke:none"
         id="path600" /><path
         d="m 4528.45,3453.41 -139.08,-197.38 c -6.01,-8.54 -4.09,-20.33 4.33,-26.51 8.01,-5.88 19.21,-4.66 25.76,2.81 l 159.82,182.16 c 7.42,8.45 6.01,21.45 -3.05,28.1 l -20.75,15.23 c -8.66,6.36 -20.84,4.37 -27.03,-4.41"
         style="fill:#f14972;fill-opacity:1;fill-rule:nonzero;stroke:none"
         id="path602" /><path
         d="m 4386.73,3166.81 c 10.26,13.97 7.25,33.6 -6.71,43.85 -13.97,10.25 -33.6,7.25 -43.85,-6.72 -10.26,-13.96 -7.25,-33.6 6.72,-43.85 13.96,-10.25 33.6,-7.24 43.84,6.72"
         style="fill:#f14972;fill-opacity:1;fill-rule:nonzero;stroke:none"
         id="path604" /></g></g></svg>
