<?xml version="1.0" standalone="no"?>
<!DOCTYPE svg PUBLIC "-//W3C//DTD SVG 20010904//EN"
 "http://www.w3.org/TR/2001/REC-SVG-20010904/DTD/svg10.dtd">
<svg version="1.0" xmlns="http://www.w3.org/2000/svg"
 width="300.000000pt" height="132.000000pt" viewBox="0 0 300.000000 132.000000"
 preserveAspectRatio="xMidYMid meet">
<metadata>
Created by potrace 1.10, written by Peter Selinger 2001-2011
</metadata>
<g transform="translate(0.000000,132.000000) scale(0.100000,-0.100000)"
fill="#000000" stroke="none">
<path d="M2021 1186 c30 -7 63 -15 73 -19 9 -4 15 -3 11 2 -6 10 -95 32 -123
30 -9 -1 8 -7 39 -13z"/>
<path d="M2445 1183 c-17 -12 -16 -13 15 -7 43 8 46 10 22 16 -10 3 -27 -1
-37 -9z"/>
<path d="M2560 1191 c53 -17 85 -22 75 -13 -5 6 -30 13 -55 16 -30 4 -37 3
-20 -3z"/>
<path d="M1885 1180 c-7 -12 12 -12 40 0 18 8 17 9 -7 9 -15 1 -30 -3 -33 -9z"/>
<path d="M1825 1144 c-87 -56 -144 -159 -143 -254 l1 -55 7 67 c13 106 62 183
160 250 14 9 23 17 20 17 -4 1 -24 -11 -45 -25z"/>
<path d="M1882 1138 c-56 -30 -117 -91 -142 -143 -31 -63 -26 -233 6 -221 8 3
14 -1 14 -10 0 -8 -4 -12 -10 -9 -5 3 -10 3 -10 -1 0 -16 86 -167 126 -221 85
-113 109 -139 252 -281 l144 -142 81 72 c160 145 320 333 392 463 105 188 98
340 -22 445 -112 99 -244 93 -396 -17 -26 -20 -46 -40 -44 -46 4 -12 47 -17
47 -5 0 4 -5 8 -10 8 -6 0 -5 6 2 14 7 8 15 12 17 10 2 -2 13 3 23 13 10 9 21
13 25 9 4 -4 1 -11 -6 -15 -7 -5 -9 -11 -4 -14 5 -3 14 3 21 14 10 15 10 19 0
19 -7 1 -2 9 11 20 12 11 27 17 32 14 6 -3 17 0 25 7 13 10 17 10 25 -2 7 -11
9 -10 9 5 0 11 3 16 7 13 3 -4 12 -2 20 5 11 9 12 7 7 -7 -6 -15 -4 -16 14 -6
23 12 56 15 49 4 -3 -5 7 -8 23 -9 35 -1 81 -34 74 -54 -4 -12 -3 -13 7 -2 18
17 32 15 26 -3 -4 -8 -2 -17 4 -20 5 -4 7 -11 4 -16 -3 -5 1 -6 9 -3 10 4 16
-4 21 -25 3 -17 10 -29 15 -28 4 1 8 -2 8 -8 0 -5 -5 -9 -11 -7 -7 1 -4 -4 6
-11 21 -17 22 -40 2 -57 -14 -12 -20 -7 -15 15 1 5 -2 6 -6 2 -24 -24 -6 -42
24 -24 8 6 12 2 12 -10 0 -11 -6 -25 -12 -32 -10 -11 -10 -13 0 -7 7 5 12 1
12 -10 0 -10 -3 -14 -7 -11 -3 4 -12 2 -19 -4 -8 -6 -20 -9 -27 -6 -8 3 -14
-1 -14 -8 0 -14 22 -10 45 8 17 13 16 -7 -2 -22 -8 -7 -12 -22 -9 -34 4 -18 3
-19 -7 -7 -9 12 -10 11 -5 -8 4 -13 1 -29 -5 -37 -7 -8 -9 -15 -6 -15 4 0 -2
-10 -14 -22 -11 -12 -20 -26 -20 -30 0 -5 -6 -6 -12 -2 -8 5 -7 0 2 -11 9 -11
10 -16 2 -11 -7 4 -15 0 -19 -11 -14 -39 -46 -73 -58 -63 -20 16 -41 -15 -25
-35 17 -21 5 -31 -17 -14 -16 13 -17 12 -4 -3 11 -15 11 -21 1 -33 -7 -8 -18
-15 -26 -15 -7 0 -16 -4 -19 -10 -3 -6 1 -7 9 -4 9 3 16 1 16 -5 0 -6 -7 -11
-15 -11 -8 0 -15 -3 -15 -7 0 -5 -26 -35 -57 -68 -31 -33 -54 -55 -50 -49 3 6
0 11 -8 11 -8 0 -12 -4 -9 -9 3 -5 -3 -17 -15 -27 -11 -10 -17 -21 -13 -25 4
-4 -7 -5 -23 -2 -17 3 -24 3 -17 0 6 -3 12 -12 12 -20 0 -17 -20 -19 -20 -1
-1 6 -7 -1 -15 -18 -7 -16 -14 -26 -14 -21 -1 6 -8 1 -16 -10 -15 -19 -15 -19
-32 2 -10 12 -29 27 -42 34 -24 12 -24 13 -5 28 16 12 16 14 2 9 -12 -4 -18
-1 -18 9 0 8 -5 12 -10 9 -12 -8 -43 21 -36 33 3 5 -1 9 -9 9 -8 0 -11 -5 -8
-11 6 -11 -23 19 -79 83 -16 17 -28 35 -28 41 0 5 -7 7 -15 4 -8 -4 -15 -2
-15 4 0 6 6 13 13 15 7 3 5 6 -5 6 -12 1 -15 6 -11 19 6 14 4 15 -8 5 -22 -18
-46 21 -27 45 11 15 11 15 -3 5 -9 -7 -19 -10 -22 -6 -12 11 -7 23 9 23 8 0
12 5 9 10 -5 8 -11 8 -19 1 -17 -14 -29 -1 -14 16 8 11 7 12 -6 7 -9 -3 -16
-2 -16 4 0 6 5 12 12 14 7 3 5 7 -6 11 -10 4 -15 3 -11 -3 3 -6 1 -10 -4 -10
-6 0 -11 7 -11 15 0 8 -5 15 -10 15 -6 0 -10 6 -8 13 2 6 -8 23 -20 35 -16 16
-22 32 -19 50 2 15 2 21 0 15 -7 -21 -26 -14 -20 7 3 11 1 18 -4 14 -5 -3 -9
4 -9 15 0 25 -10 52 -19 47 -3 -2 -7 7 -7 20 -1 15 4 24 13 24 9 0 13 -6 10
-14 -3 -8 0 -22 7 -32 10 -13 15 -14 21 -4 5 8 4 11 -2 7 -6 -4 -13 0 -17 8
-3 8 3 19 12 24 16 10 16 10 0 11 -9 0 -18 10 -20 23 -2 14 -9 21 -20 21 -14
-1 -17 4 -11 25 3 14 12 30 20 34 10 6 12 18 8 39 -5 22 -4 28 4 24 6 -4 10
-2 9 5 -2 6 3 14 11 17 10 3 12 0 8 -12 -3 -8 -3 -15 1 -15 19 3 23 -2 12 -16
-14 -17 -7 -45 12 -44 10 0 10 2 1 6 -7 2 -13 12 -13 20 0 10 6 13 16 9 12 -5
11 1 -5 28 -26 41 -26 55 -3 51 9 -1 11 0 5 2 -7 3 -13 9 -13 15 0 5 7 8 14 5
9 -4 17 2 21 13 9 27 43 35 65 15 12 -11 20 -13 25 -5 3 6 1 9 -6 8 -6 -2 -14
3 -16 10 -3 6 2 13 11 13 24 2 30 4 41 11 7 4 11 -4 10 -19 0 -35 23 -41 31
-9 6 24 34 38 34 16 0 -5 7 -7 15 -4 8 4 15 1 15 -6 0 -6 5 -8 10 -5 15 10 51
-5 44 -17 -5 -8 -1 -9 10 -5 13 5 16 3 12 -11 -3 -9 4 -28 15 -42 l21 -25 -17
28 c-9 16 -14 31 -11 34 6 6 62 -38 61 -49 0 -3 4 -10 9 -15 5 -5 6 -3 2 5 -4
6 -2 12 3 12 6 0 11 -5 11 -11 0 -5 5 -7 12 -3 17 11 -62 78 -131 111 -79 38
-179 43 -239 11z m118 -18 c0 -5 -4 -10 -10 -10 -5 0 -10 5 -10 10 0 6 5 10
10 10 6 0 10 -4 10 -10z m-240 -156 c0 -8 -4 -12 -10 -9 -5 3 -10 10 -10 16 0
5 5 9 10 9 6 0 10 -7 10 -16z m0 -99 c0 -8 -4 -15 -10 -15 -5 0 -10 7 -10 15
0 8 5 15 10 15 6 0 10 -7 10 -15z m1020 -101 c0 -8 -5 -12 -10 -9 -6 4 -8 11
-5 16 9 14 15 11 15 -7z m-160 -254 c0 -5 -7 -10 -15 -10 -8 0 -15 5 -15 10 0
6 7 10 15 10 8 0 15 -4 15 -10z"/>
<path d="M2147 1144 c17 -9 50 -32 73 -51 l41 -35 22 20 c12 11 44 34 71 51
28 17 45 31 39 31 -5 0 -27 -11 -47 -25 -20 -14 -41 -25 -47 -25 -5 0 -12 -6
-15 -14 -7 -19 -21 -15 -86 27 -31 20 -63 37 -70 37 -7 0 1 -7 19 -16z"/>
<path d="M2735 1097 c48 -48 68 -77 85 -125 13 -34 25 -61 27 -58 12 12 -41
125 -77 161 -22 23 -39 43 -38 46 2 2 1 3 -1 2 -2 -1 -12 7 -24 18 -11 10 -24
19 -28 19 -4 0 21 -28 56 -63z"/>
<path d="M130 1120 c-31 -31 -27 -93 7 -120 18 -14 34 -19 48 -14 11 3 29 6
40 6 18 0 20 6 17 39 -4 35 -7 39 -33 39 -16 0 -29 -4 -29 -10 0 -5 11 -10 25
-10 30 0 32 -11 7 -33 -23 -21 -46 -22 -66 -1 -19 18 -21 75 -4 92 18 18 66
15 77 -5 5 -10 13 -15 17 -10 13 13 -28 47 -58 47 -15 0 -37 -9 -48 -20z"/>
<path d="M270 1065 l0 -75 56 0 c38 0 53 3 48 11 -4 7 -22 9 -45 6 -38 -5 -39
-4 -39 25 0 30 1 31 40 25 22 -3 40 -1 40 4 0 5 -18 9 -40 9 -36 0 -40 3 -40
25 0 24 2 25 70 25 l70 0 0 -65 c0 -37 4 -65 10 -65 6 0 10 28 10 65 l0 65 31
0 c17 0 28 4 24 10 -3 5 -57 9 -120 9 l-115 0 0 -74z"/>
<path d="M560 1130 c0 -5 11 -10 25 -10 24 0 25 -2 25 -65 0 -37 4 -65 10 -65
6 0 10 28 10 65 0 63 1 65 25 65 14 0 25 5 25 10 0 6 -27 10 -60 10 -33 0 -60
-4 -60 -10z"/>
<path d="M698 1065 c-2 -57 0 -75 10 -75 9 0 12 11 10 33 -3 31 -1 32 35 35
36 3 37 3 37 -32 0 -22 5 -36 13 -36 9 0 11 20 9 75 -4 74 -22 108 -22 40 0
-34 -1 -35 -39 -35 l-40 0 6 35 c3 21 2 35 -5 35 -6 0 -12 -31 -14 -75z"/>
<path d="M850 1138 c-1 -2 -2 -36 -3 -76 l-2 -72 53 0 c31 0 52 4 52 11 0 6
-16 9 -42 7 -39 -3 -42 -1 -42 22 0 22 4 25 36 25 20 0 40 3 44 8 4 4 -13 7
-37 7 -40 0 -44 2 -44 25 0 23 4 25 43 25 23 0 42 5 42 10 0 8 -99 16 -100 8z"/>
<path d="M1042 1128 c-7 -7 -12 -22 -12 -34 0 -17 10 -26 43 -36 50 -17 61
-44 21 -54 -22 -6 -31 -2 -46 16 -21 26 -35 21 -19 -8 15 -28 58 -36 87 -17
44 29 28 67 -33 80 -23 5 -33 12 -33 26 0 25 48 26 66 2 18 -26 26 -11 8 15
-17 24 -62 30 -82 10z"/>
<path d="M1164 1065 c1 -53 5 -75 14 -75 8 0 11 12 10 33 -3 30 -1 32 35 35
36 3 37 3 37 -32 0 -20 5 -36 10 -36 6 0 10 32 10 75 0 43 -4 75 -10 75 -5 0
-10 -16 -10 -35 0 -34 -1 -35 -40 -35 l-41 0 7 35 c5 27 3 35 -8 35 -11 0 -14
-16 -14 -75z"/>
<path d="M1330 1120 c-31 -31 -27 -93 7 -120 70 -55 149 42 92 114 -25 32 -70
35 -99 6z m84 -16 c20 -20 20 -53 0 -82 -30 -43 -84 -17 -84 42 0 17 5 37 12
44 17 17 54 15 72 -4z"/>
<path d="M1455 1130 c-4 -6 7 -10 25 -10 l32 0 -4 -65 c-2 -49 0 -65 10 -65
10 0 13 16 10 65 l-3 65 28 0 c15 0 27 5 27 10 0 6 -26 10 -59 10 -33 0 -63
-4 -66 -10z"/>
<path d="M2526 1098 c3 -5 10 -6 15 -3 13 9 11 12 -6 12 -8 0 -12 -4 -9 -9z"/>
<path d="M2595 1100 c4 -6 11 -8 16 -5 14 9 11 15 -7 15 -8 0 -12 -5 -9 -10z"/>
<path d="M2419 1083 c-13 -16 -12 -17 4 -4 16 13 21 21 13 21 -2 0 -10 -8 -17
-17z"/>
<path d="M1883 1083 c9 -2 18 -12 18 -21 1 -9 2 -24 3 -32 2 -30 36 -58 36
-30 0 6 -6 9 -12 8 -7 -2 -13 6 -14 17 -3 63 -4 65 -26 64 -17 -1 -19 -2 -5
-6z"/>
<path d="M1940 1079 c-12 -8 -10 -9 9 -4 17 5 22 4 18 -6 -2 -8 -10 -13 -16
-11 -7 1 -10 -2 -6 -8 5 -8 11 -8 20 0 8 7 15 7 19 1 4 -5 2 -12 -4 -16 -5 -3
-10 -14 -10 -23 0 -12 4 -10 13 8 11 21 11 29 -1 48 -16 25 -21 26 -42 11z"/>
<path d="M2075 1079 c-11 -16 -1 -19 13 -3 7 8 8 14 3 14 -5 0 -13 -5 -16 -11z"/>
<path d="M2483 1075 c-3 -9 -3 -19 1 -22 3 -4 6 1 6 10 0 8 6 18 13 20 9 4 9
6 -1 6 -7 1 -15 -6 -19 -14z"/>
<path d="M2552 1078 c-14 -18 10 -39 29 -27 11 7 11 9 -3 9 -10 0 -18 5 -18
11 0 6 7 9 15 5 8 -3 15 -1 15 4 0 14 -26 12 -38 -2z"/>
<path d="M2620 1081 c0 -6 7 -8 15 -5 17 7 21 -11 5 -19 -6 -3 -5 -4 2 -3 19
4 16 30 -4 34 -10 2 -18 -1 -18 -7z"/>
<path d="M2095 1057 l-20 -20 25 13 c32 16 33 17 23 23 -4 2 -17 -5 -28 -16z"/>
<path d="M2018 1053 c7 -3 16 -2 19 1 4 3 -2 6 -13 5 -11 0 -14 -3 -6 -6z"/>
<path d="M2426 1048 c3 -5 10 -6 15 -3 13 9 11 12 -6 12 -8 0 -12 -4 -9 -9z"/>
<path d="M1845 1040 c-3 -5 -1 -10 4 -10 6 0 11 5 11 10 0 6 -2 10 -4 10 -3 0
-8 -4 -11 -10z"/>
<path d="M2460 1046 c0 -2 8 -10 18 -17 15 -13 16 -12 3 4 -13 16 -21 21 -21
13z"/>
<path d="M2600 1040 c-9 -6 -10 -10 -3 -10 6 0 15 5 18 10 8 12 4 12 -15 0z"/>
<path d="M2385 1029 c-4 -6 -5 -12 -2 -15 2 -3 7 2 10 11 7 17 1 20 -8 4z"/>
<path d="M1870 1020 c0 -5 5 -10 11 -10 5 0 7 5 4 10 -3 6 -8 10 -11 10 -2 0
-4 -4 -4 -10z"/>
<path d="M1996 1013 c-6 -14 -5 -15 5 -6 7 7 10 15 7 18 -3 3 -9 -2 -12 -12z"/>
<path d="M2066 1013 c-6 -14 -5 -15 5 -6 7 7 10 15 7 18 -3 3 -9 -2 -12 -12z"/>
<path d="M2136 1013 c-3 -10 -9 -25 -12 -33 -5 -13 -4 -13 5 0 9 13 11 11 11
-6 0 -23 -24 -39 -42 -27 -7 4 -8 1 -3 -7 6 -10 3 -12 -13 -8 -14 4 -19 2 -16
-7 3 -7 1 -16 -5 -20 -6 -3 -11 2 -11 12 0 14 -3 12 -14 -7 -21 -40 -8 -42 39
-5 25 18 54 36 65 40 11 4 17 11 14 17 -4 6 0 14 7 19 11 7 11 9 -3 9 -11 0
-15 6 -11 20 7 25 -2 27 -11 3z"/>
<path d="M2616 1013 c-6 -14 -5 -15 5 -6 7 7 10 15 7 18 -3 3 -9 -2 -12 -12z"/>
<path d="M2346 1012 c-3 -5 1 -9 9 -9 8 0 12 4 9 9 -3 4 -7 8 -9 8 -2 0 -6 -4
-9 -8z"/>
<path d="M2405 999 c-4 -12 -12 -18 -21 -15 -7 3 -24 -1 -38 -7 -23 -13 -22
-14 35 -36 53 -20 91 -54 136 -120 9 -13 12 10 4 30 -5 13 -10 17 -10 10 -1
-12 -4 -12 -13 -3 -10 10 -10 15 2 23 12 9 12 10 -3 5 -15 -5 -17 -2 -12 17 4
15 4 18 -3 8 -11 -15 -36 -6 -26 10 3 5 2 9 -3 8 -28 -5 -36 2 -17 16 17 12
20 12 30 -1 10 -13 12 -13 18 2 3 8 6 17 6 20 0 7 -34 -1 -58 -14 -14 -8 -28
-10 -38 -4 -14 8 -14 10 0 21 13 11 16 11 16 0 0 -9 3 -10 8 -3 4 6 14 14 22
18 8 3 5 4 -8 2 -19 -4 -22 -1 -17 15 4 10 4 19 1 19 -2 0 -8 -9 -11 -21z
m-25 -29 c0 -5 -7 -10 -16 -10 -8 0 -12 5 -9 10 3 6 10 10 16 10 5 0 9 -4 9
-10z"/>
<path d="M2545 1010 c-3 -5 -1 -10 4 -10 6 0 11 5 11 10 0 6 -2 10 -4 10 -3 0
-8 -4 -11 -10z"/>
<path d="M2567 994 c-10 -13 -16 -30 -14 -37 3 -7 6 -4 6 7 1 10 6 16 14 13 7
-3 13 5 13 19 2 29 3 29 -19 -2z"/>
<path d="M2650 1017 c0 -2 6 -10 14 -16 11 -9 16 -9 22 1 4 7 4 10 -1 6 -4 -4
-14 -3 -22 3 -7 6 -13 9 -13 6z"/>
<path d="M2015 1001 c-3 -5 -2 -12 3 -15 5 -3 9 1 9 9 0 17 -3 19 -12 6z"/>
<path d="M2190 1000 c-9 -6 -10 -10 -3 -10 6 0 15 5 18 10 8 12 4 12 -15 0z"/>
<path d="M2495 984 c14 -14 28 -24 31 -22 6 6 -35 48 -47 48 -5 0 2 -12 16
-26z"/>
<path d="M1875 981 c-3 -6 0 -8 9 -5 8 3 16 -1 19 -10 4 -14 5 -14 3 0 -1 20
-21 30 -31 15z"/>
<path d="M1941 976 c-9 -10 -8 -16 4 -26 19 -16 41 1 32 24 -8 20 -21 20 -36
2z m29 -11 c0 -8 -4 -15 -9 -15 -13 0 -22 16 -14 24 11 11 23 6 23 -9z"/>
<path d="M2075 979 c-11 -16 -1 -19 13 -3 7 8 8 14 3 14 -5 0 -13 -5 -16 -11z"/>
<path d="M2690 980 c0 -6 5 -8 11 -4 6 3 16 0 21 -7 8 -12 9 -11 5 1 -4 18
-37 27 -37 10z"/>
<path d="M2175 970 c-3 -5 -2 -10 4 -10 5 0 13 5 16 10 3 6 2 10 -4 10 -5 0
-13 -4 -16 -10z"/>
<path d="M2243 973 c9 -2 23 -2 30 0 6 3 -1 5 -18 5 -16 0 -22 -2 -12 -5z"/>
<path d="M2030 951 c0 -7 -5 -9 -12 -5 -7 5 -8 3 -3 -5 5 -9 10 -10 18 -2 6 6
8 14 4 18 -4 3 -7 1 -7 -6z"/>
<path d="M2697 949 c7 -7 15 -10 18 -7 3 3 -2 9 -12 12 -14 6 -15 5 -6 -5z"/>
<path d="M130 871 c0 -64 3 -81 14 -81 11 0 16 15 18 53 l3 52 30 -52 c18 -32
37 -53 48 -53 15 0 17 10 17 80 0 64 -3 80 -15 80 -12 0 -15 -13 -15 -57 l0
-57 -33 54 c-17 30 -40 56 -50 58 -15 3 -17 -6 -17 -77z"/>
<path d="M312 927 c-29 -30 -30 -89 -2 -117 30 -30 83 -27 109 6 61 78 -40
182 -107 111z m88 -32 c11 -29 -1 -69 -23 -78 -40 -15 -77 59 -45 91 21 21 58
14 68 -13z"/>
<path d="M450 935 c0 -9 9 -15 25 -15 24 0 25 -2 25 -65 0 -51 3 -65 15 -65
12 0 15 14 15 65 0 63 1 65 25 65 16 0 25 6 25 15 0 12 -14 15 -65 15 -51 0
-65 -3 -65 -15z"/>
<path d="M640 935 c0 -9 9 -15 25 -15 24 0 25 -2 25 -65 0 -56 3 -65 18 -65
16 0 17 8 14 65 -4 64 -4 65 22 65 16 0 26 5 26 15 0 12 -14 15 -65 15 -51 0
-65 -3 -65 -15z"/>
<path d="M790 870 c0 -64 3 -80 15 -80 10 0 15 11 15 35 0 33 2 35 35 35 33 0
35 -2 35 -35 0 -24 5 -35 15 -35 12 0 15 16 15 80 0 64 -3 80 -15 80 -10 0
-15 -10 -15 -28 0 -37 -4 -39 -40 -34 -25 4 -30 9 -30 33 0 19 -5 29 -15 29
-12 0 -15 -16 -15 -80z"/>
<path d="M950 870 l0 -80 60 0 c47 0 60 3 60 15 0 11 -12 15 -45 15 -38 0 -45
3 -45 20 0 17 7 20 40 20 26 0 40 5 40 13 0 9 -12 11 -40 9 -35 -4 -40 -2 -40
17 0 18 6 21 45 21 33 0 45 4 45 15 0 12 -13 15 -60 15 l-60 0 0 -80z"/>
<path d="M1150 870 c0 -73 2 -80 20 -80 16 0 20 7 20 36 0 35 1 36 30 31 22
-5 30 -3 30 8 0 10 -10 15 -30 15 -23 0 -30 4 -30 20 0 16 7 20 35 20 24 0 35
5 35 15 0 12 -13 15 -55 15 l-55 0 0 -80z"/>
<path d="M1280 870 l0 -80 55 0 c42 0 55 3 55 15 0 11 -11 15 -37 15 l-38 0 3
65 c3 60 2 65 -17 65 -20 0 -21 -6 -21 -80z"/>
<path d="M1410 892 c0 -76 18 -102 69 -102 21 0 43 6 49 13 5 6 12 42 14 80 3
59 2 67 -14 67 -15 0 -18 -9 -18 -60 0 -46 -4 -61 -17 -68 -34 -17 -43 -3 -43
64 0 57 -2 64 -20 64 -18 0 -20 -7 -20 -58z"/>
<path d="M1905 929 c-4 -6 -5 -12 -2 -15 2 -3 7 2 10 11 7 17 1 20 -8 4z"/>
<path d="M2518 927 c-15 -12 -15 -14 5 -27 19 -12 20 -11 10 2 -10 11 -10 17
-1 26 16 16 7 15 -14 -1z"/>
<path d="M1935 905 c2 -27 15 -48 15 -26 0 7 5 9 12 5 7 -4 8 -3 4 5 -4 6 -12
8 -18 5 -7 -5 -9 -1 -5 9 3 9 2 19 -3 22 -4 3 -7 -6 -5 -20z"/>
<path d="M2620 918 c0 -9 -6 -19 -12 -21 -10 -4 -10 -6 0 -6 14 -1 28 26 18
36 -3 4 -6 -1 -6 -9z"/>
<path d="M1873 880 c-13 -14 -20 -17 -30 -8 -9 7 -13 7 -13 -1 0 -6 5 -12 10
-12 6 -1 14 -2 19 -3 15 -2 25 -16 12 -16 -7 0 -9 -4 -6 -10 3 -5 11 -10 16
-10 6 0 8 4 5 9 -3 5 1 11 9 15 8 3 15 11 15 18 0 10 -2 10 -9 -1 -5 -7 -14
-10 -20 -6 -9 5 -9 10 0 21 6 7 16 11 22 7 6 -3 7 -1 3 5 -10 16 -13 15 -33
-8z"/>
<path d="M2105 890 c-3 -5 -14 -10 -24 -10 -32 0 -43 -26 -41 -92 2 -75 2 -92
-3 -138 -3 -22 2 -44 12 -60 19 -27 17 -65 -2 -53 -7 4 -6 -1 2 -10 7 -9 16
-17 19 -17 3 0 3 3 -1 6 -3 4 1 21 10 38 15 28 17 29 24 11 12 -32 10 -45 -6
-39 -10 4 -15 0 -15 -16 0 -12 4 -18 10 -15 6 4 17 1 25 -5 13 -11 14 -8 9 19
-4 19 -2 37 6 46 10 12 9 15 -4 15 -10 0 -14 5 -11 10 4 6 10 8 15 5 14 -9 50
18 50 37 0 10 -7 18 -15 18 -8 0 -15 -9 -15 -20 0 -11 -4 -20 -10 -20 -5 0
-10 20 -10 45 0 25 5 45 10 45 6 0 10 -7 10 -15 0 -8 9 -15 20 -15 13 0 18 5
14 15 -4 9 0 15 8 15 11 0 15 -12 15 -45 0 -28 -5 -45 -12 -45 -7 0 -20 -9
-30 -20 -16 -17 -16 -20 -2 -20 8 0 18 -8 20 -18 3 -10 5 -6 6 11 1 19 5 26
13 21 6 -4 8 -3 4 4 -3 6 -2 13 4 17 5 3 10 1 10 -5 0 -6 5 -8 13 -4 9 6 9 4
-1 -8 -10 -13 -9 -16 8 -21 14 -4 20 0 21 11 0 11 2 12 6 5 8 -20 33 -15 33 6
0 27 15 34 30 16 7 -9 8 -15 2 -15 -5 0 -12 -6 -15 -13 -4 -10 2 -13 18 -9 20
3 24 0 22 -18 -1 -17 -6 -21 -24 -17 -13 2 -23 0 -23 -6 0 -6 -3 -7 -7 -4 -3
4 -13 1 -21 -6 -13 -9 -14 -9 -8 1 5 8 0 12 -14 12 -12 0 -19 -4 -16 -8 3 -5
-1 -9 -9 -9 -8 0 -12 4 -9 9 3 4 -13 8 -35 8 -26 0 -41 5 -41 13 0 8 -4 7 -10
-3 -15 -23 -12 -33 6 -26 14 5 15 4 5 -8 -9 -11 -8 -14 6 -12 13 1 18 -6 17
-21 0 -12 3 -20 7 -17 4 2 10 0 14 -6 8 -13 25 -13 25 1 0 5 -4 7 -10 4 -6 -4
-10 7 -10 27 0 18 4 28 8 22 4 -5 28 -9 54 -8 33 1 46 -2 41 -10 -3 -6 2 -4
13 5 25 21 70 33 54 15 -8 -11 -4 -13 21 -10 18 2 39 -2 48 -9 14 -10 14 -10
4 3 -6 8 -12 20 -12 25 -1 6 -9 11 -19 11 -9 1 -23 2 -29 3 -9 1 -10 8 -3 26
8 22 7 25 -8 23 -23 -4 -22 26 1 30 12 3 20 -4 24 -17 3 -12 10 -21 15 -21 5
0 7 4 4 9 -4 5 7 12 23 16 20 4 30 13 34 31 2 13 0 27 -5 30 -4 3 -6 10 -2 15
3 6 -2 19 -11 29 -12 13 -14 23 -7 37 13 24 22 122 12 128 -4 3 -10 -23 -12
-56 -5 -68 -21 -89 -70 -89 -47 0 -68 31 -68 100 0 53 2 60 20 60 16 0 19 -8
22 -62 3 -60 4 -63 28 -63 24 0 25 3 28 62 2 48 7 63 20 66 13 4 12 5 -4 6
-26 1 -34 -16 -34 -70 0 -47 -20 -53 -21 -6 -1 49 -6 69 -21 78 -21 13 -53
-15 -54 -47 -1 -16 -2 -37 -3 -46 -1 -12 -9 -18 -26 -18 -23 0 -25 3 -25 49 0
28 -4 52 -9 56 -5 3 -31 8 -57 11 -27 3 -52 7 -55 10 -4 2 -10 0 -14 -6z m65
-35 c0 -11 -11 -15 -41 -15 -33 0 -40 -3 -37 -17 2 -14 11 -17 36 -15 26 3 32
0 32 -15 0 -16 -6 -18 -36 -15 l-35 4 6 -36 c6 -32 5 -36 -14 -36 -20 0 -21 5
-21 80 l0 80 55 0 c42 0 55 -3 55 -15z m52 -51 l-4 -66 38 4 c31 2 39 -1 42
-15 3 -16 -3 -18 -52 -15 -31 2 -56 6 -56 11 0 4 0 39 0 77 0 60 3 70 18 70
15 0 17 -8 14 -66z m-52 -63 c0 -11 3 -27 7 -37 5 -15 2 -16 -23 -10 -38 10
-45 17 -38 44 8 29 54 32 54 3z m-55 -62 c11 -16 -3 -23 -19 -10 -8 7 -17 8
-20 3 -3 -5 6 -14 20 -21 16 -7 24 -18 22 -29 -4 -23 -51 -28 -69 -6 -12 15
-11 16 19 10 38 -9 43 0 7 14 -24 9 -32 29 -18 43 10 11 51 8 58 -4z m174 -3
c7 -8 11 -27 9 -43 -3 -25 -7 -28 -38 -28 -31 0 -35 3 -38 28 -4 32 13 57 38
57 10 0 23 -6 29 -14z m91 4 c0 -5 -6 -10 -13 -10 -9 0 -12 -11 -9 -35 3 -27
1 -35 -12 -35 -12 0 -16 9 -16 35 0 19 -4 35 -10 35 -5 0 -10 5 -10 10 0 6 16
10 35 10 19 0 35 -4 35 -10z m78 -9 c4 -11 -2 -12 -24 -7 l-29 6 28 -16 c39
-21 32 -49 -12 -49 -20 0 -36 6 -39 14 -3 10 3 11 28 6 23 -5 30 -4 26 4 -4 6
-16 11 -27 11 -19 0 -27 29 -12 44 12 11 56 2 61 -13z m-268 -182 c0 -6 -4 -7
-10 -4 -5 3 -10 11 -10 16 0 6 5 7 10 4 6 -3 10 -11 10 -16z"/>
<path d="M2240 645 c0 -18 5 -25 20 -25 15 0 20 7 20 25 0 18 -5 25 -20 25
-15 0 -20 -7 -20 -25z"/>
<path d="M1805 879 c-4 -6 -5 -12 -2 -15 2 -3 7 2 10 11 7 17 1 20 -8 4z"/>
<path d="M2555 879 c-4 -6 -4 -13 -1 -16 3 -4 6 -1 6 6 0 8 6 11 16 7 8 -3 12
-2 9 4 -8 13 -22 13 -30 -1z"/>
<path d="M2642 876 c7 -8 15 -12 17 -11 5 6 -10 25 -20 25 -5 0 -4 -6 3 -14z"/>
<path d="M1996 867 c4 -12 0 -23 -11 -31 -10 -7 -16 -20 -12 -28 3 -9 1 -20
-5 -26 -6 -6 -6 -12 1 -16 11 -7 15 11 12 47 -1 9 4 17 13 17 24 0 30 20 12
38 -16 16 -17 16 -10 -1z"/>
<path d="M2720 867 c0 -8 -8 -18 -17 -20 -17 -4 -17 -5 0 -6 18 -1 35 25 23
36 -3 4 -6 -1 -6 -10z"/>
<path d="M1947 849 c7 -7 15 -10 18 -7 3 3 -2 9 -12 12 -14 6 -15 5 -6 -5z"/>
<path d="M2831 833 c0 -12 -12 -52 -25 -89 -13 -36 -20 -62 -15 -57 16 16 50
125 46 147 -4 21 -4 21 -6 -1z"/>
<path d="M2730 836 c0 -2 7 -7 16 -10 8 -3 12 -2 9 4 -6 10 -25 14 -25 6z"/>
<path d="M1694 800 c1 -19 12 -54 25 -78 12 -23 19 -48 15 -55 -5 -9 -4 -9 5
-1 10 10 10 17 0 35 -7 13 -21 49 -31 79 -14 46 -17 49 -14 20z"/>
<path d="M2687 819 c7 -7 15 -10 18 -7 3 3 -2 9 -12 12 -14 6 -15 5 -6 -5z"/>
<path d="M1900 813 c0 -22 22 -26 38 -7 16 17 16 17 -1 4 -16 -12 -20 -12 -28
1 -5 9 -9 10 -9 2z"/>
<path d="M2523 795 c0 -8 4 -12 9 -9 5 3 6 10 3 15 -9 13 -12 11 -12 -6z"/>
<path d="M1901 764 c0 -11 3 -14 6 -6 3 7 2 16 -1 19 -3 4 -6 -2 -5 -13z"/>
<path d="M2551 765 c-1 -15 -3 -17 -10 -6 -5 7 -6 -15 -4 -55 10 -132 -40
-226 -148 -282 -60 -32 -69 -34 -144 -30 -95 5 -168 37 -173 76 -2 15 -9 22
-17 18 -8 -3 -15 0 -18 7 -2 6 -7 2 -11 -8 -4 -11 -4 -16 0 -12 8 8 40 -33 36
-46 -1 -5 2 -6 7 -2 6 3 21 -1 33 -9 34 -21 128 -45 168 -42 174 14 306 168
283 331 -5 38 -3 45 10 40 8 -4 18 -2 22 4 3 6 0 8 -9 5 -8 -3 -16 2 -19 13
-4 16 -5 16 -6 -2z"/>
<path d="M145 728 c-9 -24 -19 -49 -22 -55 -3 -7 0 -13 6 -13 6 0 11 7 11 15
0 21 40 19 56 -2 7 -10 14 -13 14 -6 0 14 -37 103 -44 103 -2 0 -12 -19 -21
-42z m35 -10 c0 -5 -6 -8 -14 -8 -9 0 -12 7 -9 21 4 16 8 17 14 7 5 -7 9 -16
9 -20z"/>
<path d="M236 748 c12 -37 34 -88 39 -88 5 0 28 53 40 91 12 40 -13 9 -28 -35
l-13 -39 -14 46 c-7 26 -17 47 -22 47 -5 0 -6 -10 -2 -22z"/>
<path d="M467 763 c-11 -10 -8 -103 3 -103 6 0 10 25 10 55 0 56 -1 60 -13 48z"/>
<path d="M532 718 l-2 -58 30 0 c17 0 30 5 30 10 0 6 -11 10 -24 10 -22 0 -25
5 -29 48 -3 46 -3 46 -5 -10z"/>
<path d="M646 737 c-7 -19 -17 -45 -20 -58 -6 -22 -6 -22 7 -6 18 22 53 22 61
1 4 -9 9 -15 11 -12 7 6 -25 97 -36 103 -4 3 -15 -9 -23 -28z m27 -7 c3 -12 0
-20 -8 -20 -8 0 -11 8 -8 20 3 11 7 20 8 20 1 0 5 -9 8 -20z"/>
<path d="M750 715 c0 -54 1 -55 29 -55 33 0 57 23 45 42 -5 7 -7 23 -5 36 1
13 -3 22 -11 23 -7 0 -23 2 -35 5 -22 4 -23 0 -23 -51z m58 23 c-7 -20 -48
-23 -48 -4 0 11 9 16 26 16 16 0 24 -5 22 -12z m2 -43 c0 -9 -9 -15 -25 -15
-16 0 -25 6 -25 15 0 9 9 15 25 15 16 0 25 -6 25 -15z"/>
<path d="M870 717 l0 -57 35 0 c19 0 35 5 35 10 0 6 -14 10 -31 10 -29 0 -30
1 -28 40 2 21 0 42 -4 46 -4 4 -7 -18 -7 -49z"/>
<path d="M988 762 c-14 -3 -18 -14 -18 -53 l0 -49 35 0 c19 0 35 5 35 10 0 6
-11 10 -25 10 -34 0 -32 28 3 33 l27 4 -27 2 c-36 1 -39 31 -3 31 14 0 25 4
25 8 0 8 -23 10 -52 4z"/>
<path d="M1152 715 c1 -59 1 -59 7 -15 l6 45 24 -42 c14 -24 28 -43 33 -43 4
0 8 25 8 56 0 30 -4 53 -9 50 -5 -3 -7 -23 -5 -43 l4 -38 -17 24 c-52 72 -52
72 -51 6z"/>
<path d="M1287 752 c-21 -24 -22 -56 -1 -77 23 -22 56 -15 73 16 13 24 13 29
-2 53 -20 30 -47 33 -70 8z m61 -31 c5 -31 -25 -56 -45 -40 -14 12 -18 51 -6
63 16 15 48 1 51 -23z"/>
<path d="M1405 739 c4 -19 12 -45 17 -59 11 -28 8 -32 35 40 10 24 11 23 17
-17 4 -24 11 -43 16 -43 10 0 33 85 27 102 -2 7 -9 -7 -14 -32 l-10 -45 -12
44 c-14 48 -24 45 -39 -9 l-9 -35 -8 38 c-4 20 -12 40 -17 43 -7 4 -7 -6 -3
-27z"/>
<path d="M2650 759 c0 -6 -7 -8 -16 -5 -8 3 -12 2 -9 -3 9 -15 44 -9 38 6 -6
16 -13 17 -13 2z"/>
<path d="M2703 743 c-12 -13 -19 -23 -14 -23 10 0 46 39 40 43 -2 2 -14 -7
-26 -20z"/>
<path d="M355 714 c-9 -25 -14 -48 -11 -51 3 -3 8 2 12 11 8 20 54 22 54 1 0
-8 5 -15 10 -15 13 0 13 1 -10 54 -10 25 -23 46 -28 46 -5 0 -17 -21 -27 -46z
m34 -3 c-15 -5 -22 6 -14 19 6 9 10 9 16 -1 5 -8 4 -15 -2 -18z"/>
<path d="M1945 739 c5 -15 4 -19 -4 -15 -8 5 -8 0 -1 -19 8 -20 7 -27 -5 -31
-8 -4 -12 -10 -9 -15 9 -16 30 15 37 53 4 27 2 38 -9 42 -12 5 -14 1 -9 -15z"/>
<path d="M1904 719 c-3 -6 1 -18 10 -27 10 -11 16 -12 16 -4 0 7 -5 12 -11 12
-6 0 -9 7 -5 15 6 17 0 20 -10 4z"/>
<path d="M2621 714 c0 -11 3 -14 6 -6 3 7 2 16 -1 19 -3 4 -6 -2 -5 -13z"/>
<path d="M2721 714 c0 -11 3 -14 6 -6 3 7 2 16 -1 19 -3 4 -6 -2 -5 -13z"/>
<path d="M2678 693 c7 -3 16 -2 19 1 4 3 -2 6 -13 5 -11 0 -14 -3 -6 -6z"/>
<path d="M1817 679 c7 -7 15 -10 18 -7 3 3 -2 9 -12 12 -14 6 -15 5 -6 -5z"/>
<path d="M1874 677 c-3 -9 -3 -25 0 -34 6 -15 8 -15 24 0 15 16 15 18 0 34
-16 15 -18 15 -24 0z m18 -29 c-9 -9 -12 -7 -12 12 0 19 3 21 12 12 9 -9 9
-15 0 -24z"/>
<path d="M2635 680 c-16 -7 -17 -9 -3 -9 9 -1 20 4 23 9 7 11 7 11 -20 0z"/>
<path d="M1980 665 c0 -8 4 -15 10 -15 5 0 7 7 4 15 -4 8 -8 15 -10 15 -2 0
-4 -7 -4 -15z"/>
<path d="M2688 673 c7 -3 16 -2 19 1 4 3 -2 6 -13 5 -11 0 -14 -3 -6 -6z"/>
<path d="M2745 617 c-30 -55 -90 -139 -139 -197 -63 -75 -327 -330 -340 -330
-15 0 -145 118 -252 230 -79 82 -157 178 -203 251 -58 91 -63 97 -36 44 29
-58 45 -83 63 -104 8 -8 31 -37 51 -65 21 -28 68 -82 105 -120 36 -38 66 -72
66 -75 1 -3 13 -15 27 -26 14 -11 53 -46 86 -77 74 -70 91 -77 121 -49 12 12
25 21 29 21 15 0 287 281 330 341 72 101 132 198 125 204 -2 2 -17 -19 -33
-48z"/>
<path d="M2623 641 c0 -11 5 -18 9 -15 4 3 5 11 1 19 -7 21 -12 19 -10 -4z"/>
<path d="M1932 636 c-31 -18 -37 -26 -15 -20 11 3 25 -2 32 -10 8 -9 10 -16 6
-16 -4 0 -2 -7 5 -15 6 -8 9 -19 5 -25 -3 -5 -1 -10 4 -10 14 0 14 10 -3 58
-8 22 -12 43 -9 46 9 8 1 6 -25 -8z"/>
<path d="M117 633 c-11 -10 -8 -63 3 -63 6 0 10 16 10 35 0 36 -2 40 -13 28z"/>
<path d="M150 629 c0 -5 4 -9 9 -9 5 0 12 -12 14 -27 l4 -28 2 28 c0 15 6 27
11 27 6 0 10 4 10 9 0 5 -11 9 -25 9 -14 0 -25 -4 -25 -9z"/>
<path d="M220 625 c0 -8 5 -15 10 -15 6 0 10 7 10 15 0 8 -4 15 -10 15 -5 0
-10 -7 -10 -15z"/>
<path d="M265 631 c-8 -14 3 -31 21 -31 8 0 14 -5 14 -11 0 -6 -9 -8 -21 -4
-15 5 -19 4 -15 -4 4 -6 16 -11 26 -11 16 0 19 6 17 32 -3 33 -28 50 -42 29z
m30 -11 c3 -5 1 -10 -4 -10 -6 0 -11 5 -11 10 0 6 2 10 4 10 3 0 8 -4 11 -10z"/>
<path d="M370 633 c0 -6 5 -15 10 -18 6 -3 10 -15 10 -26 0 -10 5 -19 10 -19
6 0 10 9 10 19 0 11 5 23 10 26 6 3 10 11 10 18 0 6 -7 4 -17 -5 -15 -16 -17
-16 -29 0 -8 10 -14 12 -14 5z"/>
<path d="M462 631 c-21 -13 -11 -55 15 -59 26 -4 41 31 23 53 -14 17 -20 18
-38 6z m28 -32 c0 -24 -23 -21 -28 4 -2 10 3 17 12 17 10 0 16 -9 16 -21z"/>
<path d="M532 610 c2 -27 8 -36 25 -38 17 -3 24 3 29 23 4 15 2 31 -5 38 -8 8
-11 3 -11 -22 0 -22 -4 -31 -12 -28 -7 2 -13 13 -13 24 0 12 -4 25 -8 30 -5 4
-7 -8 -5 -27z"/>
<path d="M617 634 c-11 -11 -8 -64 4 -64 5 0 8 4 4 9 -3 5 -1 12 5 16 6 3 13
-1 16 -9 11 -29 22 -17 15 16 -6 31 -29 47 -44 32z m30 -20 c-3 -3 -12 -4 -19
-1 -8 3 -5 6 6 6 11 1 17 -2 13 -5z"/>
<path d="M730 606 c0 -32 3 -36 25 -36 22 0 24 4 22 33 -2 24 -8 33 -25 35
-19 3 -22 -1 -22 -32z m37 8 c-3 -3 -12 -4 -19 -1 -8 3 -5 6 6 6 11 1 17 -2
13 -5z m3 -24 c0 -5 -7 -10 -15 -10 -8 0 -15 5 -15 10 0 6 7 10 15 10 8 0 15
-4 15 -10z"/>
<path d="M810 605 c0 -32 2 -35 28 -34 23 2 24 2 5 6 -27 5 -31 23 -5 24 14 0
14 2 -3 9 -17 7 -17 9 -2 9 24 1 22 21 -3 21 -16 0 -20 -7 -20 -35z"/>
<path d="M887 633 c-13 -12 -7 -33 8 -33 8 0 15 -5 15 -11 0 -6 -9 -8 -22 -4
-18 6 -20 4 -12 -5 14 -14 46 -10 52 8 2 6 -7 16 -20 21 -18 8 -19 10 -5 10
10 1 15 6 12 11 -7 12 -19 13 -28 3z"/>
<path d="M944 629 c-3 -5 0 -9 5 -9 6 0 11 -11 11 -25 0 -14 5 -25 10 -25 6 0
10 11 10 25 0 14 5 25 10 25 6 0 10 4 10 9 0 5 -11 9 -25 9 -14 0 -28 -4 -31
-9z"/>
<path d="M1060 604 c0 -31 3 -35 23 -32 41 6 32 67 -10 68 -8 0 -13 -14 -13
-36z m38 -1 c-5 -25 -28 -28 -28 -4 0 12 6 21 16 21 9 0 14 -7 12 -17z"/>
<path d="M1140 605 c0 -32 2 -35 28 -34 23 2 24 2 5 6 -27 5 -31 23 -5 24 14
0 14 2 -3 9 -19 8 -19 9 3 9 28 1 19 21 -9 21 -15 0 -19 -7 -19 -35z"/>
<path d="M1211 603 c1 -21 3 -30 6 -20 2 9 12 17 21 18 14 0 13 2 -3 9 -19 8
-19 9 3 9 28 1 19 21 -9 21 -16 0 -19 -7 -18 -37z"/>
<path d="M1280 605 c0 -32 2 -35 28 -34 23 2 24 2 5 6 -27 5 -31 23 -5 24 14
0 14 2 -3 9 -17 7 -17 9 -2 9 24 1 22 21 -3 21 -16 0 -20 -7 -20 -35z"/>
<path d="M1351 605 c1 -40 1 -40 10 -10 5 18 5 33 -1 39 -7 7 -10 -4 -9 -29z"/>
<path d="M1392 622 c-1 -13 -6 -20 -12 -17 -12 8 -13 -5 0 -25 13 -22 22 -6
17 32 -2 20 -4 24 -5 10z"/>
<path d="M1430 624 c-11 -13 -10 -16 8 -21 12 -3 22 -10 22 -15 0 -5 -10 -6
-21 -3 -15 5 -19 4 -15 -4 9 -13 43 -15 50 -2 8 12 -11 61 -23 61 -4 0 -14 -7
-21 -16z"/>
<path d="M1500 605 c0 -32 2 -35 28 -34 23 2 24 2 5 6 -13 2 -23 9 -23 14 0 5
10 9 23 10 21 1 21 1 -3 9 -24 8 -24 8 -2 9 30 1 28 21 -3 21 -22 0 -25 -4
-25 -35z"/>
<path d="M1980 620 c0 -11 4 -20 9 -20 5 0 7 9 4 20 -3 11 -7 20 -9 20 -2 0
-4 -9 -4 -20z"/>
<path d="M1908 593 c6 -2 18 -2 25 0 6 3 1 5 -13 5 -14 0 -19 -2 -12 -5z"/>
<path d="M2590 596 c0 -2 9 -6 20 -9 11 -3 18 -1 14 4 -5 9 -34 13 -34 5z"/>
<path d="M2553 565 c-3 -9 -3 -19 1 -22 3 -4 6 1 6 10 0 8 8 18 18 20 16 4 16
5 -1 6 -10 0 -20 -6 -24 -14z"/>
<path d="M2436 555 c-3 -10 -3 -22 3 -28 12 -12 20 4 11 27 -6 19 -7 19 -14 1z"/>
<path d="M2225 540 c3 -5 8 -10 11 -10 2 0 4 5 4 10 0 6 -5 10 -11 10 -5 0 -7
-4 -4 -10z"/>
<path d="M2270 540 c0 -5 5 -10 10 -10 6 0 10 5 10 10 0 6 -4 10 -10 10 -5 0
-10 -4 -10 -10z"/>
<path d="M1974 519 c-3 -6 2 -18 12 -27 17 -16 17 -16 4 1 -12 16 -12 20 1 28
9 5 10 9 2 9 -6 0 -15 -5 -19 -11z"/>
<path d="M2546 517 c3 -10 9 -15 12 -12 3 3 0 11 -7 18 -10 9 -11 8 -5 -6z"/>
<path d="M1948 473 c6 -2 18 -2 25 0 6 3 1 5 -13 5 -14 0 -19 -2 -12 -5z"/>
<path d="M2268 463 c7 -3 16 -2 19 1 4 3 -2 6 -13 5 -11 0 -14 -3 -6 -6z"/>
<path d="M2318 451 c-6 -22 -9 -23 -25 -10 -16 13 -17 12 -4 -4 9 -11 18 -14
25 -8 6 5 23 7 39 5 17 -1 25 1 21 8 -3 5 -15 8 -25 5 -11 -3 -19 1 -21 12 -3
11 -6 9 -10 -8z"/>
<path d="M2551 454 c0 -11 3 -14 6 -6 3 7 2 16 -1 19 -3 4 -6 -2 -5 -13z"/>
<path d="M428 442 c-27 -3 -28 -6 -28 -58 l0 -54 -79 0 -80 0 -3 33 c-2 20 -8
32 -18 32 -12 0 -15 -22 -18 -122 -2 -118 -2 -123 18 -123 16 0 20 7 20 30 l0
30 80 0 80 0 0 -55 c0 -54 0 -55 30 -55 25 0 30 4 30 25 l0 25 385 0 385 0 12
45 c12 44 13 45 55 45 24 0 43 5 43 10 0 6 28 10 64 10 36 0 68 5 71 10 4 6
-20 10 -63 10 -53 0 -71 4 -76 15 -3 10 -19 15 -46 15 -28 0 -40 4 -40 15 0 8
-5 26 -12 40 l-11 25 -383 0 -383 0 -3 28 c-3 23 -7 27 -30 24z m5 -172 c0
-77 -3 -143 -6 -147 -4 -3 -7 14 -7 38 0 25 -5 50 -12 57 -16 16 -160 16 -176
0 -9 -9 -12 2 -12 51 0 49 3 61 13 54 18 -14 142 -16 166 -3 17 8 21 20 21 57
0 25 3 44 6 40 4 -3 7 -69 7 -147z m796 69 c14 -40 14 -83 0 -131 l-10 -38
-379 0 -380 0 0 100 0 100 379 0 379 0 11 -31z m81 -59 c12 -8 12 -10 -3 -16
-9 -3 -25 -3 -34 0 -15 6 -15 8 -3 16 8 6 17 10 20 10 3 0 12 -4 20 -10z"/>
<path d="M771 273 c2 -92 6 -82 11 25 2 34 0 62 -4 62 -5 0 -7 -39 -7 -87z"/>
<path d="M1193 340 c4 -14 7 -35 7 -47 0 -13 4 -23 9 -23 10 0 -3 77 -14 88
-4 4 -5 -4 -2 -18z"/>
<path d="M517 323 c-11 -10 -8 -103 3 -103 6 0 10 25 10 55 0 56 -1 60 -13 48z"/>
<path d="M610 276 c0 -31 5 -56 10 -56 6 0 10 22 10 49 0 28 -4 53 -10 56 -6
4 -10 -15 -10 -49z"/>
<path d="M708 275 c-1 -30 0 -55 5 -55 4 0 7 25 7 55 0 71 -7 71 -12 0z"/>
<path d="M1207 253 c-10 -19 -17 -64 -9 -59 6 3 12 19 14 36 5 30 3 37 -5 23z"/>
<path d="M2108 443 c7 -3 16 -2 19 1 4 3 -2 6 -13 5 -11 0 -14 -3 -6 -6z"/>
<path d="M2240 440 c0 -5 5 -10 10 -10 6 0 10 5 10 10 0 6 -4 10 -10 10 -5 0
-10 -4 -10 -10z"/>
<path d="M2456 423 c-6 -14 -5 -15 5 -6 7 7 10 15 7 18 -3 3 -9 -2 -12 -12z"/>
<path d="M2411 358 c-14 -23 -14 -23 8 -4 22 20 25 26 13 26 -4 0 -13 -10 -21
-22z"/>
<path d="M2073 356 c1 -11 9 -21 17 -23 10 -3 11 -2 4 4 -6 4 -14 15 -17 23
-5 11 -6 9 -4 -4z"/>
<path d="M2165 340 c-3 -5 -1 -10 4 -10 6 0 11 5 11 10 0 6 -2 10 -4 10 -3 0
-8 -4 -11 -10z"/>
<path d="M2210 340 c0 -5 5 -10 11 -10 5 0 7 5 4 10 -3 6 -8 10 -11 10 -2 0
-4 -4 -4 -10z"/>
<path d="M2370 341 c0 -6 4 -12 8 -15 5 -3 9 1 9 9 0 8 -4 15 -9 15 -4 0 -8
-4 -8 -9z"/>
<path d="M2115 320 c-3 -6 1 -7 9 -4 18 7 21 14 7 14 -6 0 -13 -4 -16 -10z"/>
<path d="M2320 326 c0 -2 7 -7 16 -10 8 -3 12 -2 9 4 -6 10 -25 14 -25 6z"/>
<path d="M2210 308 c0 -9 -6 -19 -12 -21 -10 -4 -10 -6 0 -6 14 -1 28 26 18
36 -3 4 -6 -1 -6 -9z"/>
<path d="M2162 294 c-7 -8 -8 -14 -3 -14 10 0 25 19 20 25 -2 1 -10 -3 -17
-11z"/>
<path d="M2328 283 c7 -3 16 -2 19 1 4 3 -2 6 -13 5 -11 0 -14 -3 -6 -6z"/>
<path d="M2211 254 c0 -11 3 -14 6 -6 3 7 2 16 -1 19 -3 4 -6 -2 -5 -13z"/>
<path d="M2310 258 c0 -9 -6 -19 -12 -21 -10 -4 -10 -6 0 -6 14 -1 28 26 18
36 -3 4 -6 -1 -6 -9z"/>
<path d="M2235 240 c-3 -5 -1 -10 4 -10 6 0 11 5 11 10 0 6 -2 10 -4 10 -3 0
-8 -4 -11 -10z"/>
<path d="M2245 209 c-4 -6 -5 -12 -2 -15 2 -3 7 2 10 11 7 17 1 20 -8 4z"/>
</g>
</svg>
