<?xml version="1.0" standalone="no"?>
<!DOCTYPE svg PUBLIC "-//W3C//DTD SVG 20010904//EN"
 "http://www.w3.org/TR/2001/REC-SVG-20010904/DTD/svg10.dtd">
<svg version="1.0" xmlns="http://www.w3.org/2000/svg"
 width="612.000000pt" height="270.000000pt" viewBox="0 0 612.000000 270.000000"
 preserveAspectRatio="xMidYMid meet">

<g transform="translate(0.000000,270.000000) scale(0.100000,-0.100000)"
fill="#000000" stroke="none">
<path d="M296 2310 c-126 -80 -79 -290 64 -290 26 0 55 7 66 15 25 19 44 19
44 0 0 -8 5 -15 10 -15 6 0 10 33 10 80 l0 80 -60 0 c-47 0 -60 -3 -60 -15 0
-11 12 -15 45 -15 42 0 45 -2 45 -25 0 -41 -42 -75 -90 -75 -52 0 -76 13 -95
50 -32 61 -8 166 42 189 46 21 83 14 119 -25 39 -41 62 -38 39 7 -28 54 -123
75 -179 39z"/>
<path d="M2139 2307 c-35 -23 -45 -51 -35 -92 6 -24 26 -34 117 -59 53 -15 69
-29 69 -61 0 -27 -31 -45 -76 -45 -56 0 -80 12 -88 45 -7 27 -36 35 -36 9 0
-71 120 -110 195 -64 51 31 52 92 3 124 -13 8 -47 21 -76 29 -65 16 -85 35
-77 70 12 48 116 48 137 1 14 -31 41 -32 36 -2 -4 29 -63 68 -103 68 -18 0
-47 -10 -66 -23z"/>
<path d="M2750 2312 c-51 -25 -80 -74 -80 -134 0 -97 53 -158 138 -158 24 0
56 7 72 15 100 52 92 238 -12 280 -50 19 -75 19 -118 -3z m137 -49 c44 -55 36
-161 -15 -199 -27 -21 -104 -17 -130 6 -62 58 -45 194 28 223 34 14 95 -1 117
-30z"/>
<path d="M560 2170 l0 -150 100 0 c81 0 100 3 100 15 0 11 -18 15 -82 17 l-83
3 -3 53 -3 52 80 0 c64 0 81 3 81 15 0 11 -18 15 -77 17 l-78 3 -3 48 -3 47
85 0 c70 0 86 3 86 15 0 12 -18 15 -100 15 l-100 0 0 -150z"/>
<path d="M790 2305 c0 -11 12 -15 50 -15 l50 0 0 -135 c0 -113 2 -135 15 -135
13 0 15 22 15 135 l0 135 50 0 c38 0 50 4 50 15 0 12 -19 15 -115 15 -96 0
-115 -3 -115 -15z"/>
<path d="M1150 2305 c0 -11 12 -15 50 -15 l50 0 0 -135 c0 -113 2 -135 15
-135 13 0 15 22 15 135 l0 135 50 0 c38 0 50 4 50 15 0 12 -19 15 -115 15 -96
0 -115 -3 -115 -15z"/>
<path d="M1420 2169 c0 -138 1 -150 18 -147 14 3 18 16 20 71 l3 67 79 0 80 0
0 -70 c0 -63 2 -70 20 -70 19 0 20 7 20 150 0 143 -1 150 -20 150 -18 0 -20
-7 -20 -65 l0 -65 -80 0 -80 0 0 65 c0 58 -2 65 -20 65 -19 0 -20 -7 -20 -151z"/>
<path d="M1730 2170 l0 -150 100 0 c82 0 100 3 100 15 0 12 -16 15 -85 15
l-85 0 0 55 0 55 80 0 c64 0 80 3 80 15 0 12 -16 15 -80 15 l-80 0 0 50 0 50
85 0 c69 0 85 3 85 15 0 12 -18 15 -100 15 l-100 0 0 -150z"/>
<path d="M2380 2170 c0 -127 2 -150 15 -150 12 0 15 14 15 70 l0 70 85 0 85 0
0 -70 c0 -56 3 -70 15 -70 13 0 15 23 15 150 0 127 -2 150 -15 150 -12 0 -15
-14 -15 -65 l0 -66 -82 3 -83 3 -3 63 c-2 46 -7 62 -17 62 -13 0 -15 -26 -15
-150z"/>
<path d="M2980 2305 c0 -11 12 -15 50 -15 l50 0 0 -135 c0 -113 2 -135 15
-135 13 0 15 22 15 135 l0 135 50 0 c38 0 50 4 50 15 0 12 -19 15 -115 15 -96
0 -115 -3 -115 -15z"/>
<path d="M657 1915 c-49 -34 -67 -72 -67 -141 0 -93 45 -145 136 -159 52 -8
120 27 145 75 27 50 26 137 -3 180 -49 71 -143 91 -211 45z m139 -46 c22 -18
37 -83 30 -124 -10 -51 -37 -75 -86 -75 -67 0 -102 59 -86 145 12 65 92 96
142 54z"/>
<path d="M270 1775 l0 -155 30 0 30 0 0 100 c0 55 3 100 8 100 4 -1 34 -45 68
-98 54 -87 63 -97 92 -100 l32 -3 0 155 0 156 -30 0 -30 0 0 -107 0 -108 -28
45 c-96 159 -105 170 -139 170 l-33 0 0 -155z"/>
<path d="M920 1906 c0 -23 5 -25 48 -28 l47 -3 3 -127 3 -128 29 0 30 0 0 130
0 130 50 0 c47 0 50 2 50 25 l0 25 -130 0 -130 0 0 -24z"/>
<path d="M1320 1905 c0 -23 4 -25 45 -25 l45 0 0 -130 0 -130 35 0 35 0 0 130
0 130 45 0 c41 0 45 2 45 25 l0 25 -125 0 -125 0 0 -25z"/>
<path d="M1610 1775 l0 -155 35 0 35 0 0 70 0 70 65 0 65 0 0 -70 0 -70 35 0
35 0 0 155 0 155 -35 0 -35 0 0 -60 0 -60 -65 0 -65 0 0 60 0 60 -35 0 -35 0
0 -155z"/>
<path d="M1940 1775 l0 -155 120 0 120 0 0 25 c0 25 -1 25 -85 25 l-85 0 0 45
0 45 75 0 c73 0 75 1 75 25 0 24 -2 25 -75 25 l-75 0 0 35 0 35 85 0 c84 0 85
0 85 25 l0 25 -120 0 -120 0 0 -155z"/>
<path d="M2360 1775 l0 -155 30 0 30 0 0 65 0 65 65 0 c63 0 65 1 65 25 0 24
-2 25 -65 25 l-65 0 0 40 0 40 75 0 c73 0 75 1 75 25 l0 25 -105 0 -105 0 0
-155z"/>
<path d="M2620 1775 l0 -155 110 0 110 0 0 25 c0 23 -3 24 -77 27 l-78 3 -3
128 -3 127 -29 0 -30 0 0 -155z"/>
<path d="M2880 1818 c0 -96 3 -118 20 -146 26 -42 81 -66 132 -58 99 16 118
50 118 206 l0 110 -35 0 -35 0 0 -118 c0 -78 -4 -122 -12 -130 -16 -16 -90
-16 -106 0 -8 8 -12 52 -12 130 l0 118 -35 0 -35 0 0 -112z"/>
<path d="M321 1538 c-5 -13 -21 -53 -36 -90 -15 -37 -25 -73 -22 -80 3 -8 11
1 18 20 12 30 17 32 59 32 42 0 47 -3 57 -30 6 -16 17 -30 23 -30 6 0 10 4 8
8 -1 4 -19 49 -38 100 -35 93 -53 111 -69 70z m37 -41 c18 -49 15 -57 -18 -57
-16 0 -30 3 -30 6 0 16 24 84 30 84 3 0 11 -15 18 -33z"/>
<path d="M480 1558 c0 -1 15 -46 33 -98 20 -59 38 -95 47 -95 8 0 26 35 46 90
37 101 38 105 25 105 -6 0 -22 -38 -37 -85 -16 -47 -31 -82 -35 -77 -4 4 -18
41 -31 82 -14 40 -30 76 -37 78 -6 2 -11 2 -11 0z"/>
<path d="M760 1538 c-5 -13 -21 -52 -35 -88 -15 -36 -29 -71 -32 -77 -3 -7 0
-13 6 -13 7 0 17 14 22 30 10 28 15 30 58 30 43 0 48 -3 58 -30 6 -16 17 -30
23 -30 6 0 10 4 8 8 -1 4 -19 49 -38 100 -35 93 -53 110 -70 70z m38 -47 c16
-52 16 -51 -18 -51 -16 0 -30 5 -30 12 0 18 23 78 30 78 4 0 12 -17 18 -39z"/>
<path d="M957 1553 c-11 -10 -8 -181 3 -188 6 -4 10 30 10 94 0 101 -1 107
-13 94z"/>
<path d="M1080 1460 l0 -100 65 0 c37 0 65 4 65 10 0 6 -25 10 -55 10 l-55 0
0 90 c0 53 -4 90 -10 90 -6 0 -10 -40 -10 -100z"/>
<path d="M1341 1542 c-11 -21 -71 -170 -71 -177 0 -15 29 11 34 31 6 21 12 24
52 24 42 0 47 -3 57 -30 12 -31 27 -40 27 -17 0 7 -16 51 -35 97 -19 46 -35
86 -35 87 0 11 -21 0 -29 -15z m49 -89 c0 -8 -14 -13 -36 -13 -25 0 -35 4 -31
13 2 6 10 29 18 51 l14 38 17 -38 c10 -22 18 -45 18 -51z"/>
<path d="M1530 1460 l0 -100 53 0 c85 0 123 44 80 93 -13 15 -15 21 -5 24 6 3
12 18 12 33 0 37 -23 50 -89 50 l-51 0 0 -100z m118 51 c5 -29 -12 -41 -60
-41 -37 0 -38 1 -38 36 l0 35 48 -3 c41 -3 47 -6 50 -27z m-7 -61 c21 -12 25
-40 7 -58 -7 -7 -31 -12 -55 -12 -42 0 -43 1 -43 34 0 30 4 35 28 39 15 2 31
5 35 6 5 0 17 -4 28 -9z"/>
<path d="M1780 1460 l0 -100 60 0 c33 0 60 4 60 10 0 6 -22 10 -50 10 l-50 0
0 90 c0 53 -4 90 -10 90 -6 0 -10 -40 -10 -100z"/>
<path d="M1990 1460 l0 -100 65 0 c37 0 65 4 65 10 0 6 -25 10 -55 10 l-55 0
0 35 c0 21 5 35 13 36 107 9 131 19 44 19 l-57 0 0 35 0 35 55 0 c30 0 55 5
55 10 0 6 -28 10 -65 10 l-65 0 0 -100z"/>
<path d="M2350 1460 c0 -121 18 -135 22 -18 l3 82 54 -82 c29 -45 57 -82 62
-82 5 0 9 45 9 100 0 60 -4 100 -10 100 -6 0 -10 -34 -10 -82 l0 -83 -52 82
c-29 45 -59 83 -65 83 -10 0 -13 -27 -13 -100z"/>
<path d="M2639 1547 c-48 -37 -53 -115 -10 -158 38 -38 87 -39 125 -4 21 20
26 33 26 75 0 42 -5 55 -26 75 -30 28 -87 33 -115 12z m96 -22 c18 -17 25 -35
25 -63 0 -52 -25 -83 -69 -84 -44 -1 -71 30 -71 84 0 44 35 88 70 88 12 0 32
-11 45 -25z"/>
<path d="M2863 1544 c3 -11 15 -56 27 -101 13 -47 28 -83 35 -83 6 0 18 26 25
58 25 115 29 117 59 27 14 -44 30 -80 35 -80 10 0 40 92 51 156 12 73 -12 40
-30 -41 -10 -44 -22 -77 -25 -73 -4 4 -15 41 -25 81 -10 42 -22 72 -30 72 -7
0 -22 -35 -35 -80 -13 -44 -25 -78 -28 -75 -3 2 -12 37 -22 77 -9 39 -22 74
-29 76 -9 3 -11 -2 -8 -14z"/>
<path d="M554 1286 c-15 -12 -17 -18 -8 -33 6 -10 20 -20 30 -22 22 -4 44 -20
44 -32 0 -18 -42 -20 -61 -3 -17 15 -19 16 -19 1 0 -19 39 -32 69 -22 14 4 21
15 21 30 0 18 -8 26 -35 35 -19 6 -35 18 -35 26 0 17 47 19 53 2 2 -7 8 -9 13
-5 9 9 -22 37 -41 37 -6 0 -20 -6 -31 -14z"/>
<path d="M942 1284 c-26 -18 -30 -74 -6 -98 35 -36 94 -4 94 51 0 25 -32 63
-53 63 -7 0 -23 -7 -35 -16z m66 -42 c2 -18 -2 -40 -9 -48 -16 -20 -46 -17
-59 5 -23 45 -4 84 40 79 20 -2 26 -9 28 -36z"/>
<path d="M1818 1293 c-18 -5 -31 -30 -23 -43 3 -5 21 -14 40 -20 39 -13 46
-35 13 -46 -15 -4 -25 -1 -35 12 -7 9 -16 15 -19 11 -12 -11 17 -37 42 -37 28
0 55 25 48 45 -3 8 -21 19 -40 25 -19 6 -34 18 -34 26 0 17 41 19 58 2 9 -9
12 -9 12 0 0 10 -33 34 -42 31 -2 -1 -10 -3 -20 -6z"/>
<path d="M2938 1293 c-21 -5 -31 -32 -18 -48 6 -7 24 -15 40 -19 35 -7 40 -32
8 -42 -15 -4 -25 -1 -35 12 -7 9 -16 15 -19 11 -12 -11 17 -37 42 -37 23 0 54
24 54 42 0 5 -18 17 -40 25 -22 9 -40 22 -40 30 0 16 42 17 58 1 9 -9 12 -9
12 0 0 10 -33 34 -42 31 -2 -1 -10 -3 -20 -6z"/>
<path d="M240 1229 c0 -37 4 -58 10 -54 6 3 10 31 10 61 0 30 -4 54 -10 54 -6
0 -10 -27 -10 -61z"/>
<path d="M328 1283 c20 -4 22 -10 22 -59 0 -30 5 -54 10 -54 6 0 10 24 10 54
0 49 2 55 23 59 12 2 -3 4 -33 4 -30 0 -45 -2 -32 -4z"/>
<path d="M460 1270 c0 -11 5 -20 10 -20 6 0 10 9 10 20 0 11 -4 20 -10 20 -5
0 -10 -9 -10 -20z"/>
<path d="M770 1285 c0 -2 9 -19 20 -37 11 -18 20 -44 21 -58 1 -22 2 -21 9 7
4 18 15 44 24 57 24 37 19 45 -7 13 l-23 -28 -14 26 c-12 22 -30 34 -30 20z"/>
<path d="M1090 1242 c0 -26 5 -53 12 -60 17 -17 54 -15 72 4 18 17 23 104 6
104 -5 0 -10 -22 -10 -49 0 -34 -4 -51 -15 -55 -32 -12 -45 5 -45 55 0 27 -4
49 -10 49 -5 0 -10 -22 -10 -48z"/>
<path d="M1250 1230 c0 -33 4 -60 10 -60 6 0 10 11 10 25 0 21 5 25 30 25 25
0 30 -4 30 -25 0 -14 5 -25 10 -25 14 0 13 33 -2 48 -8 8 -8 15 2 26 22 28 5
46 -45 46 l-45 0 0 -60z m80 31 c0 -13 -9 -20 -30 -23 -26 -4 -30 -1 -30 19 0
19 5 23 30 23 23 0 30 -5 30 -19z"/>
<path d="M1490 1230 l0 -60 39 0 c47 0 71 22 54 50 -8 12 -9 20 -1 28 19 19
-10 42 -53 42 l-39 0 0 -60z m75 30 c0 -8 -11 -17 -25 -21 l-25 -7 26 -1 c29
-1 46 -26 27 -38 -7 -3 -22 -7 -35 -8 -21 -1 -23 4 -23 48 0 47 1 48 28 45 15
-2 27 -9 27 -18z"/>
<path d="M1650 1230 l0 -60 40 0 c22 0 40 5 40 10 0 6 -13 10 -30 10 -23 0
-30 5 -30 19 0 15 8 21 33 24 l32 4 -32 1 c-25 2 -33 7 -33 21 0 15 8 21 33
24 28 3 26 4 -10 5 l-43 2 0 -60z"/>
<path d="M1948 1283 c20 -4 22 -10 22 -59 0 -30 5 -54 10 -54 6 0 10 24 10 54
0 49 2 55 23 59 12 2 -3 4 -33 4 -30 0 -45 -2 -32 -4z"/>
<path d="M2163 1230 l0 -60 38 0 c28 0 40 6 53 25 33 50 7 95 -56 95 l-35 0 0
-60z m76 36 c7 -8 11 -27 9 -43 -2 -23 -8 -29 -35 -31 -33 -3 -33 -3 -33 42 0
42 2 46 24 46 13 0 29 -6 35 -14z"/>
<path d="M2328 1230 l4 -60 39 0 c21 0 39 5 39 10 0 6 -16 10 -35 10 -28 0
-35 4 -35 19 0 15 8 21 38 24 l37 4 -37 1 c-30 2 -38 6 -38 21 0 15 8 21 38
24 36 4 36 4 -8 5 l-45 2 3 -60z"/>
<path d="M2470 1230 c0 -33 4 -60 10 -60 6 0 10 13 10 29 0 25 5 30 28 34 l27
4 -27 2 c-21 1 -28 6 -28 20 0 15 8 21 33 24 28 3 26 4 -10 5 l-43 2 0 -60z"/>
<path d="M2610 1230 l0 -60 40 0 c22 0 40 5 40 10 0 6 -13 10 -30 10 -23 0
-30 5 -30 19 0 15 8 21 33 24 l32 4 -32 1 c-25 2 -33 7 -33 21 0 15 8 21 33
24 28 3 26 4 -10 5 l-43 2 0 -60z"/>
<path d="M2750 1230 c0 -71 18 -81 22 -12 l3 47 28 -47 c16 -27 33 -48 38 -48
5 0 9 28 8 63 l-1 62 -12 -45 -12 -45 -24 43 c-34 61 -50 55 -50 -18z"/>
<path d="M3062 1233 l3 -58 43 -3 c25 -2 42 1 42 7 0 6 -16 11 -35 11 -28 0
-35 4 -35 19 0 15 8 21 33 24 l32 4 -32 1 c-25 2 -33 7 -33 21 0 15 8 21 38
24 33 3 32 4 -11 5 l-49 2 4 -57z"/>
<path d="M837 902 c-15 -3 -17 -19 -17 -113 l0 -109 -165 0 -165 0 0 49 c0 49
-17 81 -44 81 -33 0 -36 -23 -36 -255 0 -239 3 -255 42 -255 24 0 38 30 38 84
l0 46 165 0 165 0 0 -110 0 -110 54 0 55 0 3 52 3 53 785 5 785 5 22 55 c12
30 23 65 23 78 0 21 4 22 74 22 76 0 106 13 106 46 0 8 11 15 25 15 14 1 30 3
35 4 6 1 56 4 113 5 l102 3 -105 7 c-58 4 -119 8 -135 9 -24 1 -33 7 -42 31
-11 30 -12 30 -91 30 l-80 0 -7 38 c-3 20 -15 56 -25 79 l-19 43 -783 2 -783
3 -5 55 -5 55 -36 0 c-20 0 -43 -1 -52 -3z m1671 -202 c19 -55 22 -80 19 -160
-3 -64 -11 -111 -25 -145 l-20 -50 -773 0 -774 0 -3 200 c-1 110 0 205 2 212
4 11 156 13 778 11 l773 -3 23 -65z"/>
</g>
</svg>
