<?xml version="1.0" standalone="no"?>
<!DOCTYPE svg PUBLIC "-//W3C//DTD SVG 20010904//EN"
 "http://www.w3.org/TR/2001/REC-SVG-20010904/DTD/svg10.dtd">
<svg version="1.0" xmlns="http://www.w3.org/2000/svg"
 width="2000.000000pt" height="2000.000000pt" viewBox="0 0 2000.000000 2000.000000"
 preserveAspectRatio="xMidYMid meet">

<g transform="translate(0.000000,2000.000000) scale(0.100000,-0.100000)"
fill="#000000" stroke="none">
<path d="M11910 18615 l0 -1374 -30 -16 c-16 -8 -35 -25 -42 -38 -10 -17 -14
-245 -18 -1072 l-5 -1050 -23 -80 c-13 -44 -41 -117 -62 -162 -44 -95 -53 -86
94 -104 117 -14 110 -19 155 106 68 189 65 121 68 1277 4 1164 8 1092 -62
1125 l-35 17 0 1373 c0 1366 0 1373 -20 1373 -20 0 -20 -7 -20 -1375z"/>
<path d="M9866 16307 c-21 -39 -111 -204 -199 -365 -126 -231 -157 -295 -148
-306 7 -8 48 -38 91 -66 l80 -53 0 -196 c0 -208 13 -325 50 -445 129 -417 489
-731 930 -812 77 -14 90 -14 122 -1 20 9 44 27 54 41 21 34 22 95 0 128 -20
31 -49 43 -137 57 -377 62 -694 371 -773 753 -13 64 -16 173 -16 707 0 347 -4
631 -8 631 -4 0 -25 -33 -46 -73z"/>
<path d="M14840 14172 c-40 -20 -66 -75 -56 -118 12 -44 59 -84 101 -84 121 0
161 150 55 205 -37 19 -57 19 -100 -3z"/>
<path d="M10605 13677 c-144 -48 -225 -166 -212 -308 9 -100 65 -181 161 -232
59 -32 193 -31 253 1 105 55 158 144 158 262 -1 86 -22 140 -82 202 -67 69
-193 103 -278 75z"/>
<path d="M4480 11182 l0 -2239 -53 5 c-96 8 -177 -56 -271 -215 -81 -136 -175
-388 -201 -537 -33 -194 -123 -287 -243 -250 -26 8 -60 25 -76 38 l-28 24 44
73 c86 143 115 248 99 351 -11 63 -22 89 -59 133 -59 71 -147 106 -220 86 -46
-13 -135 -87 -125 -104 3 -6 2 -7 -4 -4 -5 4 -23 -8 -39 -25 -36 -38 -118 -78
-161 -78 -19 0 -43 10 -61 25 -52 43 -56 60 -117 455 -73 469 -81 501 -135
570 -106 133 -262 107 -337 -57 -48 -104 -58 -178 -57 -443 0 -224 2 -257 27
-382 35 -179 35 -177 -10 -138 -48 42 -92 60 -148 60 -82 0 -130 -40 -185
-154 -17 -36 -48 -80 -71 -101 -38 -34 -45 -37 -88 -32 -37 4 -51 12 -76 41
-16 20 -100 174 -185 343 -176 348 -210 396 -304 428 -69 24 -120 11 -165 -40
-56 -64 -66 -176 -30 -342 38 -174 91 -309 216 -544 57 -107 71 -168 53 -226
-25 -77 -62 -98 -203 -117 -116 -15 -150 -29 -194 -80 -41 -46 -57 -97 -58
-181 0 -59 5 -81 32 -135 59 -119 124 -172 442 -356 138 -81 221 -169 221
-236 -1 -77 -40 -105 -161 -113 -46 -4 -98 -11 -116 -17 -47 -14 -83 -61 -83
-109 0 -91 51 -147 207 -227 l101 -52 1360 0 1359 0 46 35 c25 19 48 35 51 35
3 0 6 -101 6 -225 l0 -225 2500 0 2500 0 0 -1240 c0 -1233 0 -1240 -20 -1240
-17 0 -20 -7 -20 -41 0 -58 -59 -239 -78 -239 -10 0 -13 -7 -9 -27 8 -38 -69
-283 -88 -283 -10 0 -14 -13 -14 -48 1 -29 -16 -96 -43 -179 l-44 -133 137 0
136 0 -7 40 c-10 54 58 333 82 338 12 2 14 12 11 45 -5 45 51 279 68 285 5 2
9 18 9 35 0 18 12 80 27 139 l28 108 267 0 267 0 7 -37 c4 -22 0 -88 -10 -158
-23 -162 -23 -163 -37 -303 -7 -67 -16 -125 -21 -128 -4 -3 -8 -31 -8 -63 0
-62 -26 -277 -35 -292 -4 -5 51 -9 137 -9 l143 0 -3 61 c-4 60 44 861 54 907
l4 22 268 0 268 0 17 -283 c10 -155 22 -334 28 -397 12 -141 14 -284 5 -299
-5 -8 33 -11 133 -11 116 0 141 3 141 14 0 8 -5 50 -11 93 -6 43 -15 119 -19
168 -5 50 -14 119 -20 155 -6 36 -15 106 -19 155 -5 50 -17 140 -25 200 -10
63 -14 131 -10 158 l6 47 268 0 268 0 26 -105 c14 -57 26 -120 26 -140 0 -19
4 -35 9 -35 14 0 74 -244 69 -289 -2 -29 0 -41 11 -43 9 -2 27 -53 52 -148 30
-117 36 -153 29 -187 l-7 -43 138 0 139 0 -9 23 c-41 108 -82 264 -79 298 3
31 0 39 -13 39 -13 0 -26 29 -55 118 -20 64 -37 134 -36 155 1 24 -4 37 -12
37 -16 0 -76 192 -76 243 0 30 -4 37 -20 37 -20 0 -20 7 -20 1240 l0 1240
2500 0 2500 0 0 3760 0 3760 -869 0 -869 0 -6 -32 c-3 -18 -10 -73 -16 -123
-6 -49 -35 -272 -65 -495 -30 -223 -84 -623 -120 -890 -36 -267 -79 -584 -95
-705 -142 -1047 -170 -1260 -170 -1281 l0 -24 878 0 877 0 -3 -1557 -2 -1558
-2110 0 -2110 0 0 667 0 667 -32 6 c-86 14 -542 75 -564 75 -9 0 -14 -12 -14
-35 l0 -35 -3288 0 c-1809 0 -3291 2 -3293 4 -2 2 -3 1095 -1 2428 l2 2423
565 -3 c311 -1 565 1 565 5 0 10 37 277 50 363 5 36 10 73 10 83 0 16 -48 17
-865 17 l-865 0 0 -2238z m0 -3106 c0 -223 0 -224 -21 -219 -31 8 -59 61 -59
111 0 38 67 332 76 332 2 0 4 -101 4 -224z m0 -1051 c0 -107 -2 -195 -4 -195
-16 0 -75 33 -92 52 -49 54 -56 106 -25 188 19 49 94 150 112 150 5 0 9 -85 9
-195z"/>
<path d="M10360 13173 c-55 -43 -107 -102 -161 -181 -74 -110 -67 -156 35
-250 65 -58 121 -92 220 -129 63 -24 85 -27 196 -27 112 -1 133 2 204 27 113
40 172 81 193 136 17 44 17 45 -16 140 -34 101 -83 190 -124 229 l-24 23 -64
-31 c-118 -56 -255 -38 -348 46 -27 24 -55 44 -62 44 -8 0 -30 -12 -49 -27z"/>
<path d="M8732 12257 c-12 -14 -112 -735 -105 -754 8 -20 44 -27 59 -11 20 20
118 746 103 765 -14 17 -43 17 -57 0z"/>
<path d="M8085 12230 c-17 -5 -45 -23 -62 -40 -117 -115 -19 -303 145 -276
107 17 165 145 110 240 -38 65 -121 98 -193 76z"/>
<path d="M7934 11928 c-35 -27 -55 -50 -94 -105 -37 -51 -40 -96 -7 -117 32
-21 483 -79 508 -66 40 22 34 91 -16 190 -13 25 -32 53 -44 64 -20 18 -22 18
-58 0 -71 -34 -187 -14 -232 40 -17 21 -23 20 -57 -6z"/>
<path d="M9515 11918 c-2 -7 -10 -65 -19 -129 -17 -129 -11 -170 27 -215 29
-33 111 -56 162 -44 73 16 99 60 120 197 19 126 19 163 1 163 -18 0 -22 -12
-36 -125 -15 -119 -34 -172 -70 -190 -37 -19 -60 -19 -108 1 -65 25 -74 76
-48 257 7 48 10 90 7 92 -9 10 -32 5 -36 -7z"/>
<path d="M9952 11737 c-50 -53 -19 -111 72 -137 53 -15 69 -30 64 -62 -2 -19
-10 -23 -46 -26 -29 -2 -58 4 -85 17 -50 25 -77 12 -39 -20 78 -63 215 -39
215 39 0 42 -15 58 -76 78 -79 25 -107 60 -75 92 17 17 77 15 112 -3 29 -15
56 -14 56 3 0 17 -73 42 -124 42 -42 0 -57 -5 -74 -23z"/>
<path d="M10293 11700 c-91 -55 -86 -205 7 -252 44 -22 118 -23 149 -2 30 21
14 38 -23 24 -61 -23 -130 3 -153 58 -8 19 -12 37 -9 40 4 3 58 -1 121 -9 128
-16 128 -16 114 49 -20 95 -124 142 -206 92z m139 -37 c18 -16 43 -71 36 -79
-9 -8 -198 19 -198 28 0 61 111 96 162 51z"/>
<path d="M10625 11544 c-12 -94 -14 -139 -7 -146 19 -19 30 1 36 69 13 123 28
148 101 163 34 7 41 33 10 38 -11 1 -36 -6 -56 -16 l-35 -18 4 23 c3 18 0 23
-15 23 -18 0 -22 -13 -38 -136z"/>
<path d="M10895 11616 c-6 -41 -35 -245 -35 -251 0 -3 8 -5 19 -5 20 0 22 9
37 115 9 68 28 101 64 114 57 19 110 -4 122 -55 3 -11 0 -60 -7 -108 -10 -75
-9 -89 3 -93 20 -8 29 11 37 81 4 34 8 74 10 90 2 17 -3 45 -10 63 -24 57
-113 80 -177 47 -30 -15 -31 -15 -26 4 4 14 0 22 -13 25 -14 4 -20 -2 -24 -27z"/>
<path d="M11313 11570 c-13 -5 -23 -17 -23 -26 0 -13 5 -15 28 -8 15 5 47 8
71 8 49 0 81 -28 81 -70 0 -23 -2 -24 -85 -21 -75 2 -87 0 -106 -20 -71 -70
40 -176 137 -129 33 15 34 15 34 -5 0 -14 5 -19 17 -17 14 2 20 22 30 93 15
108 11 144 -22 175 -19 18 -39 24 -83 27 -31 1 -67 -2 -79 -7z m128 -150 c20
0 25 -23 13 -55 -18 -47 -118 -56 -149 -12 -20 28 -19 33 6 58 18 18 29 20 67
15 24 -3 53 -6 63 -6z"/>
<path d="M11666 11518 c-3 -13 -10 -61 -16 -108 -6 -47 -13 -99 -16 -116 -5
-25 -2 -32 14 -36 18 -5 21 2 32 76 6 44 16 93 21 107 22 57 107 70 148 23 19
-23 22 -35 17 -73 -20 -159 -20 -161 1 -161 17 0 21 10 30 86 14 113 31 138
101 142 45 3 53 0 68 -23 14 -21 16 -40 11 -98 -4 -40 -9 -87 -13 -104 -6 -29
-4 -33 14 -33 23 0 30 26 39 146 6 79 5 81 -23 113 -38 43 -101 52 -156 23
l-37 -20 -15 23 c-31 47 -125 56 -169 17 -19 -16 -20 -16 -15 11 4 21 1 27
-13 27 -11 0 -20 -9 -23 -22z"/>
<path d="M12315 11431 c-89 -41 -108 -173 -34 -235 47 -40 103 -51 156 -31 43
17 55 43 17 37 -102 -19 -146 -5 -170 55 -9 19 -13 38 -10 41 5 5 166 -14 214
-25 20 -5 22 -2 22 36 0 60 -24 99 -73 122 -52 23 -72 23 -122 0z m121 -36
c23 -15 51 -72 41 -82 -10 -9 -197 18 -197 29 0 5 13 23 29 39 33 33 91 40
127 14z"/>
<path d="M8585 11189 c-12 -18 -106 -731 -99 -751 6 -21 46 -25 61 -5 8 10 42
242 94 643 7 50 9 99 6 108 -7 18 -52 22 -62 5z"/>
<path d="M7895 11106 c-39 -17 -80 -65 -95 -111 -15 -44 -8 -65 22 -65 19 0
27 9 38 42 27 76 102 107 176 72 42 -20 64 -59 64 -114 0 -38 2 -40 30 -40 24
0 31 5 36 26 8 31 -11 99 -39 138 -41 57 -159 84 -232 52z"/>
<path d="M7788 10883 c-36 -23 -68 -83 -68 -128 0 -43 31 -105 63 -124 11 -8
75 -22 141 -32 128 -20 169 -16 210 20 68 60 63 188 -9 235 -29 19 -181 46
-260 46 -29 0 -61 -7 -77 -17z"/>
<path d="M9034 10750 c-58 -23 -85 -119 -46 -166 66 -82 191 -42 192 61 0 80
-75 134 -146 105z"/>
<path d="M9564 10676 c-17 -8 -39 -24 -48 -37 -18 -26 -21 -90 -6 -120 13 -24
61 -49 95 -49 34 0 82 25 95 49 15 30 12 94 -6 120 -15 21 -70 52 -91 51 -4
-1 -22 -7 -39 -14z"/>
<path d="M10059 10581 c-24 -24 -29 -38 -29 -76 0 -38 5 -52 29 -76 24 -24 38
-29 76 -29 38 0 52 5 76 29 24 24 29 38 29 76 0 38 -5 52 -29 76 -24 24 -38
29 -76 29 -38 0 -52 -5 -76 -29z"/>
<path d="M10589 10511 c-56 -57 -31 -159 44 -179 74 -20 137 28 137 104 0 37
-6 51 -29 75 -24 24 -38 29 -76 29 -38 0 -52 -5 -76 -29z"/>
<path d="M11138 10454 c-35 -19 -48 -43 -48 -92 0 -76 74 -127 143 -99 60 26
83 85 57 151 -18 49 -97 70 -152 40z"/>
<path d="M11670 10383 c-40 -27 -49 -45 -50 -94 0 -37 5 -50 28 -72 50 -48
103 -46 160 6 25 23 30 79 11 120 -23 52 -102 73 -149 40z"/>
<path d="M12214 10321 c-36 -16 -64 -60 -64 -103 0 -32 7 -47 35 -75 32 -32
39 -35 78 -30 57 8 97 52 97 107 0 73 -81 129 -146 101z"/>
<path d="M12744 10251 c-65 -28 -86 -125 -39 -176 33 -34 89 -44 133 -21 39
20 52 44 52 95 0 74 -80 130 -146 102z"/>
<path d="M8754 9945 c-70 -41 -79 -72 -124 -415 -22 -168 -40 -319 -40 -336 0
-42 50 -117 91 -136 19 -9 140 -30 269 -47 129 -18 298 -41 375 -51 141 -20
755 -102 1375 -185 184 -25 418 -57 520 -71 102 -14 202 -24 223 -21 45 6 101
46 123 88 9 18 33 162 60 357 49 360 49 368 -9 429 -46 49 -18 43 -577 118
-58 8 -341 46 -630 85 -289 39 -723 98 -965 130 -242 33 -471 64 -510 69 -105
16 -136 13 -181 -14z m626 -333 c0 -16 -9 -93 -20 -172 -11 -79 -19 -145 -17
-146 1 -2 47 -9 102 -16 84 -11 100 -16 103 -32 4 -17 -1 -18 -54 -12 -33 3
-92 11 -132 18 -67 10 -73 13 -68 32 2 12 15 96 27 189 20 147 24 167 41 167
13 0 18 -8 18 -28z m1145 -118 c12 -12 13 -19 4 -30 -24 -29 -59 -5 -45 31 7
19 21 19 41 -1z m-680 -24 c51 -25 75 -65 75 -125 0 -74 -38 -128 -102 -145
-80 -22 -170 31 -183 109 -22 130 92 218 210 161z m349 -41 c21 -6 49 -21 62
-34 22 -22 24 -22 24 -5 0 23 18 36 32 22 14 -14 -18 -276 -38 -314 -21 -41
-53 -58 -109 -58 -67 0 -117 15 -142 42 -18 19 -19 25 -8 35 10 10 16 9 25 -2
6 -8 34 -21 61 -30 81 -27 132 -4 145 65 7 30 5 33 -12 25 -26 -12 -100 -18
-127 -11 -38 9 -85 63 -92 106 -10 61 23 125 77 150 51 23 52 23 102 9z m315
-71 c-1 -18 -8 -82 -18 -143 -13 -89 -19 -110 -33 -113 -23 -4 -23 17 -1 171
14 101 19 117 35 117 14 0 18 -7 17 -32z m189 -16 c3 -21 5 -21 25 -7 29 20
102 19 137 -2 51 -30 59 -71 39 -208 -10 -65 -14 -75 -32 -75 -18 0 -19 5 -13
48 20 157 20 157 -5 185 -17 20 -34 28 -61 29 -74 2 -99 -35 -114 -169 -5 -52
-10 -63 -25 -63 -14 0 -19 7 -19 25 0 34 30 247 37 258 9 14 28 1 31 -21z"/>
<path d="M9711 9423 c-55 -56 -50 -136 11 -173 49 -30 84 -26 124 14 29 29 34
41 34 79 0 64 -30 97 -92 104 -42 5 -50 2 -77 -24z"/>
<path d="M10110 9387 c-14 -7 -33 -29 -43 -50 -36 -72 13 -142 99 -142 104 0
140 131 52 185 -38 23 -72 25 -108 7z"/>
<path d="M16224 9785 c-15 -23 -15 -27 0 -50 20 -30 56 -33 79 -7 20 22 21 41
3 65 -20 26 -62 22 -82 -8z"/>
<path d="M1927 3829 c7 -7 15 -10 18 -7 3 3 -2 9 -12 12 -14 6 -15 5 -6 -5z"/>
<path d="M1926 3801 c5 -5 20 -12 34 -15 l25 -7 -25 15 c-28 17 -50 21 -34 7z"/>
<path d="M3885 3795 c-25 -12 -26 -14 -5 -9 14 4 29 10 35 15 12 12 5 11 -30
-6z"/>
<path d="M3968 3753 c6 -2 18 -2 25 0 6 3 1 5 -13 5 -14 0 -19 -2 -12 -5z"/>
<path d="M8008 3422 l-86 -3 9 -31 c10 -36 15 -25 -74 -150 -61 -85 -74 -98
-99 -98 -27 0 -29 -2 -23 -33 6 -29 -2 -45 -77 -152 -79 -113 -87 -120 -121
-123 -40 -3 -43 -8 -26 -45 10 -23 2 -37 -86 -163 -54 -77 -103 -142 -109
-146 -6 -4 -28 -8 -48 -8 -42 0 -45 -7 -22 -51 l15 -30 -104 -147 c-58 -81
-111 -157 -118 -169 l-14 -23 -356 0 -357 0 -21 36 c-25 42 -39 18 133 227
l129 157 60 0 c46 0 57 3 50 13 -5 6 -15 26 -22 44 -13 32 -13 32 105 177
l119 145 47 1 47 0 -15 35 c-8 20 -11 41 -7 48 4 7 51 65 105 130 92 109 101
117 135 117 30 0 34 3 28 18 -4 9 -9 24 -11 32 -2 8 27 52 66 97 38 46 70 85
70 88 0 3 -99 5 -221 5 l-221 0 -83 -75 c-45 -41 -86 -71 -90 -67 -5 4 -5 1
-1 -6 9 -16 -50 -76 -65 -66 -7 4 -9 3 -5 -4 3 -6 1 -16 -6 -24 -7 -7 -28 -31
-47 -53 -36 -42 -556 -577 -886 -913 -104 -106 -191 -196 -193 -200 -1 -5 94
-159 112 -180 2 -1 2279 -2 5061 -2 l5059 0 58 87 c32 48 57 91 56 95 -2 3
-158 165 -348 360 -530 543 -633 649 -676 697 -21 24 -108 113 -192 198 l-153
153 -225 0 c-178 0 -224 -3 -218 -12 5 -7 37 -48 72 -91 59 -72 64 -80 53
-103 -15 -34 -16 -34 27 -35 35 0 42 -6 127 -110 126 -154 119 -141 101 -182
l-15 -36 49 -3 48 -3 120 -145 121 -145 -24 -42 -24 -43 58 0 58 0 84 -101
c179 -217 199 -241 199 -246 0 -3 -9 -21 -21 -39 l-21 -34 -356 2 -356 3 -118
168 -118 168 20 40 20 39 -42 0 c-24 0 -48 4 -53 8 -6 4 -55 70 -109 146 -88
125 -97 141 -87 163 17 37 14 42 -26 45 -34 3 -41 10 -120 123 -75 107 -84
123 -78 152 6 31 4 33 -23 33 -26 0 -38 13 -106 109 -69 99 -75 112 -66 136 5
14 10 28 10 31 0 2 -40 4 -90 4 -49 0 -90 -2 -90 -5 0 -3 25 -44 56 -91 50
-78 54 -89 45 -115 -9 -28 -8 -29 18 -29 26 0 37 -13 110 -129 73 -116 80
-131 71 -156 -15 -40 -13 -45 23 -45 33 0 37 -6 127 -146 93 -147 93 -147 80
-183 -7 -20 -18 -39 -24 -43 -6 -4 12 -8 40 -8 l51 0 112 -174 111 -174 -17
-36 -18 -36 -355 0 -355 0 -87 171 -87 170 14 39 14 40 -27 0 c-15 0 -32 4
-38 8 -6 4 -43 70 -82 146 -59 116 -69 143 -61 163 14 37 11 43 -19 43 -25 0
-32 10 -89 125 -49 98 -61 131 -57 154 5 25 3 30 -16 33 -16 2 -35 29 -77 107
-45 87 -54 110 -48 138 l6 33 -96 0 c-52 0 -95 -1 -95 -3 0 -2 16 -41 36 -86
25 -57 35 -94 32 -117 -3 -27 0 -34 16 -36 16 -2 34 -34 78 -131 48 -107 56
-131 48 -153 -15 -37 -13 -42 16 -46 23 -3 33 -20 91 -148 l65 -145 -15 -42
-15 -43 37 0 36 0 77 -173 c73 -165 77 -176 66 -210 l-11 -37 -2367 0 -2368 0
-10 41 c-10 39 -7 49 63 207 74 166 74 167 108 170 l34 3 -14 41 c-13 39 -13
42 41 161 29 67 59 134 66 150 9 18 21 27 36 27 22 0 23 3 18 43 -5 36 2 59
48 162 30 66 59 121 66 121 7 1 16 2 21 3 6 0 7 16 5 34 -4 23 4 55 30 115 20
46 36 86 36 88 0 2 -43 4 -96 4 l-96 0 7 -32 c6 -27 -1 -50 -46 -140 -45 -91
-58 -108 -77 -108 -21 0 -23 -3 -17 -31 6 -25 -4 -52 -57 -155 -57 -113 -65
-124 -90 -124 -32 0 -31 2 -17 -38 10 -28 4 -42 -66 -176 -76 -144 -77 -146
-110 -146 l-34 0 14 -41 15 -41 -88 -169 -87 -169 -356 0 -356 0 -13 40 -13
39 106 168 106 168 53 5 c30 3 48 8 41 13 -6 4 -17 23 -23 41 -11 33 -8 39 82
180 88 140 94 146 125 146 36 0 38 5 23 46 -10 24 -3 38 67 148 42 67 82 124
88 128 5 4 20 8 33 8 25 0 25 0 13 33 -8 21 -2 38 45 112 30 47 54 89 52 93
-2 4 -42 6 -90 4z"/>
<path d="M15800 1885 c-7 -9 -11 -17 -9 -20 3 -2 10 5 17 15 14 24 10 26 -8 5z"/>
<path d="M15820 1861 c0 -6 4 -13 10 -16 6 -3 7 1 4 9 -7 18 -14 21 -14 7z"/>
</g>
</svg>
