<?xml version="1.0" encoding="UTF-8" standalone="no"?>
<svg
   xmlns:dc="http://purl.org/dc/elements/1.1/"
   xmlns:cc="http://creativecommons.org/ns#"
   xmlns:rdf="http://www.w3.org/1999/02/22-rdf-syntax-ns#"
   xmlns:svg="http://www.w3.org/2000/svg"
   xmlns="http://www.w3.org/2000/svg"
   xmlns:sodipodi="http://sodipodi.sourceforge.net/DTD/sodipodi-0.dtd"
   xmlns:inkscape="http://www.inkscape.org/namespaces/inkscape"
   version="1.1"
   id="svg230"
   xml:space="preserve"
   width="666.66669"
   height="666.66669"
   viewBox="0 0 666.66669 666.66669"
   sodipodi:docname="hero.svg"
   inkscape:version="1.0.2 (e86c870879, 2021-01-15)"><metadata
     id="metadata236"><rdf:RDF><cc:Work
         rdf:about=""><dc:format>image/svg+xml</dc:format><dc:type
           rdf:resource="http://purl.org/dc/dcmitype/StillImage" /><dc:title></dc:title></cc:Work></rdf:RDF></metadata><defs
     id="defs234"><clipPath
       clipPathUnits="userSpaceOnUse"
       id="clipPath306"><path
         d="m 2378.58,2803.43 c 0,112.51 -91.21,203.71 -203.71,203.71 -112.51,0 -203.71,-91.2 -203.71,-203.71 0,-112.51 91.2,-203.71 203.71,-203.71 112.5,0 203.71,91.2 203.71,203.71"
         id="path304" /></clipPath><clipPath
       clipPathUnits="userSpaceOnUse"
       id="clipPath408"><path
         d="m 1685.13,2184.62 c 0,112.51 -91.21,203.71 -203.71,203.71 -112.51,0 -203.71,-91.2 -203.71,-203.71 0,-112.5 91.2,-203.7 203.71,-203.7 112.5,0 203.71,91.2 203.71,203.7"
         id="path406" /></clipPath><clipPath
       clipPathUnits="userSpaceOnUse"
       id="clipPath454"><path
         d="m 2378.58,1575.14 c 0,112.51 -91.21,203.71 -203.71,203.71 -112.51,0 -203.71,-91.2 -203.71,-203.71 0,-112.51 91.2,-203.71 203.71,-203.71 112.5,0 203.71,91.2 203.71,203.71"
         id="path452" /></clipPath></defs><sodipodi:namedview
     pagecolor="#ffffff"
     bordercolor="#666666"
     borderopacity="1"
     objecttolerance="10"
     gridtolerance="10"
     guidetolerance="10"
     inkscape:pageopacity="0"
     inkscape:pageshadow="2"
     inkscape:window-width="1536"
     inkscape:window-height="801"
     id="namedview232"
     showgrid="false"
     inkscape:zoom="1.275"
     inkscape:cx="333.33334"
     inkscape:cy="333.33334"
     inkscape:window-x="-8"
     inkscape:window-y="-8"
     inkscape:window-maximized="1"
     inkscape:current-layer="g238" /><g
     id="g238"
     inkscape:groupmode="layer"
     inkscape:label="ink_ext_XXXXXX"
     transform="matrix(1.3333333,0,0,-1.3333333,0,666.66667)"><g
       id="g240"
       transform="scale(0.1)"><path
         d="M 0,0 H 5000 V 5000 H 0 Z"
         style="fill:#ffffff;fill-opacity:1;fill-rule:nonzero;stroke:none"
         id="path242" /><path
         d="m 4721.17,1070.55 c 0,63.29 -954.52,114.59 -2131.98,114.59 -1177.46,0 -2131.979,-51.3 -2131.979,-114.59 0,-63.28 954.519,-114.581 2131.979,-114.581 1177.46,0 2131.98,51.301 2131.98,114.581"
         style="fill:#ebf9fe;fill-opacity:1;fill-rule:nonzero;stroke:none"
         id="path244" /><path
         d="m 722.34,1125.01 c -248.477,1.16 -449.977,205.44 -443.344,453.83 3.598,135.03 54.094,265.97 207.524,337.33 404.207,188.01 -159.805,1410.05 554.61,1532.25 714.43,122.21 686.22,1052.83 1522.84,357.21 446.55,-371.28 697.6,-276.6 917.53,-181.92 192.13,82.72 360.51,165.43 614.72,-62.49 545.22,-488.81 -357.21,-1109.23 319.61,-1428.84 446.3,-210.75 299.93,-589.08 148.45,-822.35 -82.2,-126.58 -223.74,-201.97 -374.67,-201.26 l -3467.27,16.24"
         style="fill:#d0f0fc;fill-opacity:1;fill-rule:nonzero;stroke:none"
         id="path246" /><path
         d="m 4344.42,1135.61 h -0.01 c 88.31,32.08 165.5,91.7 218.52,172.35 -53.02,-80.65 -130.21,-140.27 -218.51,-172.35 M 3150.06,3538.35 c -0.66,0 -1.29,0 -1.95,0.01 0.66,-0.01 1.29,-0.01 1.95,-0.01 v 0 m 2.91,0.01 c 122.6,0.64 225.26,41.05 321.63,82.39 -96.38,-41.35 -199.01,-81.76 -321.63,-82.39 m 942.87,23.2 c -0.59,0.53 -1.19,1.07 -1.78,1.59 0.59,-0.52 1.19,-1.06 1.78,-1.59 m -1.79,1.61 c -0.11,0.09 -0.24,0.21 -0.35,0.3 0.11,-0.09 0.24,-0.21 0.35,-0.3 m -613.5,60.13 c 0.32,0.14 0.63,0.28 0.95,0.41 -0.32,-0.13 -0.63,-0.27 -0.95,-0.41 m 1.85,0.8 c 0.2,0.09 0.42,0.18 0.62,0.27 -0.2,-0.09 -0.42,-0.18 -0.62,-0.27 m 2.46,1.06 c 97.88,42.19 189.71,83.91 290.11,83.91 -100.39,-0.01 -192.24,-41.72 -290.11,-83.91 m 290.2,83.91 c -0.01,0 -0.04,0 -0.05,0 v 0 c 0.01,0 0.04,0 0.05,0 m -1207.48,93.57 c -0.08,0.06 -0.17,0.14 -0.25,0.21 0.08,-0.07 0.17,-0.15 0.25,-0.21 m -2.6,2.15 c -0.33,0.28 -0.68,0.57 -1.01,0.84 0.33,-0.27 0.68,-0.56 1.01,-0.84 m -1.01,0.84 c -0.2,0.17 -0.43,0.36 -0.63,0.53 0.21,-0.18 0.42,-0.35 0.63,-0.53 m -0.74,0.62 c -23.73,19.72 -46.84,38.18 -69.22,55.33 22.4,-17.16 45.46,-35.59 69.22,-55.33 m -69.27,55.38 c -0.15,0.11 -0.38,0.29 -0.52,0.4 0.17,-0.14 0.34,-0.27 0.52,-0.4 m -0.64,0.48 c -0.14,0.11 -0.32,0.25 -0.47,0.36 0.17,-0.13 0.3,-0.23 0.47,-0.36 m -0.62,0.48 c -0.1,0.07 -0.28,0.21 -0.37,0.28 0.11,-0.09 0.25,-0.19 0.37,-0.28 m -0.63,0.48 c -0.1,0.08 -0.14,0.11 -0.24,0.18 0.07,-0.05 0.17,-0.12 0.24,-0.18"
         style="fill:#e5f7fc;fill-opacity:1;fill-rule:nonzero;stroke:none"
         id="path248" /><path
         d="m 4191.73,1108.76 v 0 0 0 m 0.08,0 c 52.75,0.02 104.34,9.32 152.6,26.85 h 0.01 c -48.27,-17.53 -99.85,-26.84 -152.61,-26.85 m -0.7,0.01 c -0.02,0 -0.04,0 -0.07,0 0.03,0 0.05,0 0.07,0 m -0.3,0 h -0.01 c 0.01,0 0,0 0.01,0 m -0.25,0 c -0.02,0 -0.03,0 -0.05,0 0.01,0 0.04,0 0.05,0 m -0.22,0 c -0.05,0 -0.1,0 -0.15,0 0.05,0 0.1,0 0.15,0 m -0.24,0 c -0.07,0 -0.14,0 -0.22,0 0.08,0 0.15,0 0.22,0 m -0.23,0 c -0.09,0 -0.17,0 -0.26,0 l -607.88,2.84 v 0 l 607.88,-2.84 c 0.09,0 0.17,0 0.26,0"
         style="fill:#d0f0fb;fill-opacity:1;fill-rule:nonzero;stroke:none"
         id="path250" /><path
         d="m 4191.73,1108.76 v 0 c -0.2,0 -0.41,0 -0.62,0.01 -0.02,0 -0.04,0 -0.07,0 -0.08,0 -0.15,0 -0.23,0 -0.01,0 0,0 -0.01,0 -0.08,0 -0.16,0 -0.24,0 -0.01,0 -0.04,0 -0.05,0 -0.05,0 -0.12,0 -0.17,0 -0.05,0 -0.1,0 -0.15,0 -0.03,0 -0.06,0 -0.09,0 -0.07,0 -0.14,0 -0.22,0 h -0.01 c -0.09,0 -0.17,0 -0.26,0 l -607.88,2.85 c 179.11,279.04 248.93,634.44 134.36,831.15 25.78,3.53 51.27,9.93 76,19.22 l 28.24,11.26 c -8.64,21.12 -52.12,225.83 -14.19,353.55 26.36,88.72 -21.64,114.13 -46.27,121.22 -57.03,32.81 -149.01,30.2 -178.67,30.86 -7.26,0.16 -13.89,4.22 -17.27,10.65 l -100.84,200.72 c 89.22,290.14 182.14,572.12 -101.43,572.12 -13.36,0 -27.62,-0.63 -42.69,-1.92 -48.33,-4.11 -93.93,-6.1 -137.27,-6.1 -81.42,0 -154.52,7.07 -220.9,20.49 -9.12,82.07 -77.86,146.14 -161.93,147.93 -0.01,0 -0.01,0 -0.02,0 -0.26,0.01 -0.51,0.01 -0.77,0.02 -0.01,0 -0.03,0 -0.04,0 -0.25,0 -0.5,0.01 -0.75,0.01 -0.02,0 -0.04,0 -0.06,0 -0.24,0 -0.49,0.01 -0.73,0.01 -0.03,0 -0.06,0 -0.08,0 -0.12,0 -0.25,0 -0.36,0 h -0.01 c -0.11,0 -0.24,0 -0.35,0 -0.03,0 -0.06,0 -0.09,0 -0.12,0 -0.24,0 -0.36,0 h -162.41 c -162.23,124.1 -283.58,307.7 -435.11,519.84 -35.97,50.36 -75.85,88.67 -118.15,117.31 110.02,-9.25 241.98,-66.56 412.25,-196.71 0.1,-0.07 0.14,-0.1 0.24,-0.18 0.09,-0.07 0.16,-0.12 0.26,-0.2 0.09,-0.07 0.27,-0.21 0.37,-0.28 0.05,-0.04 0.11,-0.08 0.15,-0.12 0.15,-0.11 0.33,-0.25 0.47,-0.36 0.04,-0.02 0.08,-0.06 0.12,-0.08 0.14,-0.11 0.37,-0.29 0.52,-0.4 0.01,-0.01 0.04,-0.04 0.05,-0.05 22.38,-17.15 45.49,-35.61 69.22,-55.33 0.04,-0.03 0.07,-0.06 0.11,-0.09 0.2,-0.17 0.43,-0.36 0.63,-0.53 v 0 0 c 0.33,-0.27 0.68,-0.56 1.01,-0.84 0.79,-0.65 1.56,-1.29 2.35,-1.94 0.08,-0.07 0.17,-0.15 0.25,-0.21 242.47,-200.71 427.13,-263.76 580.53,-264.28 0.66,-0.01 1.29,-0.01 1.95,-0.01 v 0 0 c 0.98,0 1.93,0.01 2.91,0.01 122.62,0.63 225.25,41.04 321.63,82.39 1.98,0.85 3.98,1.71 5.95,2.55 0.32,0.14 0.63,0.28 0.95,0.41 v 0 c 0.31,0.14 0.6,0.26 0.9,0.39 0.2,0.09 0.42,0.18 0.62,0.27 0.61,0.26 1.23,0.53 1.84,0.79 97.87,42.19 189.72,83.9 290.11,83.91 0.02,0 0.03,0 0.04,0 0.01,0 0.04,0 0.05,0 94.58,-0.01 196.74,-37.05 318.64,-145.6 0.11,-0.09 0.24,-0.21 0.35,-0.3 0.01,-0.02 -0.01,0 0.01,-0.02 0.59,-0.52 1.19,-1.06 1.78,-1.59 0.13,-0.11 0.26,-0.23 0.38,-0.34 140.56,-126.02 184.91,-260.79 184.9,-396.9 -0.02,-232.77 -129.76,-469.46 -129.76,-672.99 0,-139.07 60.57,-262.66 264.47,-358.95 223.59,-105.58 298.42,-253.22 298.39,-403.61 -0.03,-149.8 -74.35,-302.33 -149.94,-418.74 v 0 c -0.45,-0.69 -0.91,-1.38 -1.35,-2.07 -53.02,-80.65 -130.21,-140.27 -218.52,-172.35 -48.26,-17.53 -99.85,-26.83 -152.6,-26.85 -0.03,0 -0.05,0 -0.08,0 m -628.44,961.11 c -9.07,3.21 -18.47,6.07 -28.18,8.57 -120.14,30.84 -158.32,118.27 -155.84,232.55 27.79,-36.42 52.51,-63.74 67.02,-68.43 1.37,-0.45 3.2,-0.66 5.41,-0.66 14.64,0 46.61,9.12 82.58,20.16 3.19,-14.22 9.06,-28.54 17.87,-42.81 25.16,-40.8 21.75,-99.15 11.14,-149.38 m -120.32,294.6 c 0,0 -22.17,22.93 -51.95,53.77 12.05,67.17 32.04,139.41 53.88,212.26 l 56.6,-204.8 c 4.1,-15.95 12.42,-29.61 33.72,-30.1 2.19,-0.06 4.47,-0.14 6.83,-0.25 l -99.08,-30.88"
         style="fill:#bae8fb;fill-opacity:1;fill-rule:nonzero;stroke:none"
         id="path252" /><path
         d="m 1981.62,3261.79 c 0.44,0.6 -75.56,5.48 -144.53,39.59 -68.71,31.83 -130.38,92.9 -95.5,153.18 51.53,82.6 -95.02,152.57 -45.2,198.53 50.73,40.73 61.37,7 41.85,98.1 -16.09,92.99 47.9,115.32 83.89,198.51 41.14,83.68 135.67,21.07 112.28,-88.14 -10.63,-65.13 -0.59,-53.72 15.96,-42.3 12.08,8.33 27.62,16.66 41.12,-4.78 27.26,-41.96 -80.1,-222.81 -32.6,-206.43 43.9,19.75 81.73,-7.78 75.86,-58.28 -17.09,-116.36 -55.29,-285.67 -53.13,-287.98"
         style="fill:#8fc8ee;fill-opacity:1;fill-rule:nonzero;stroke:none"
         id="path254" /><path
         d="m 2016.59,3214.23 -1.29,0.6 c -58.98,68.92 -126.15,175 -159.28,298.27 l -0.26,0.96 -0.81,0.49 c -30.75,18.52 -58.59,44.22 -84.52,71.03 -8.57,8.83 -17.03,17.86 -25.51,26.93 l -0.28,1.53 2.21,1.04 0.6,-0.44 c 8.28,-8.87 16.54,-17.7 24.9,-26.34 23.9,-24.73 49.47,-48.6 77.49,-66.66 1.55,-1.01 3.1,-2.01 4.66,-3 -0.49,1.88 -0.98,3.76 -1.46,5.65 -13.27,51.89 -21.28,106.71 -22.98,166.38 l -0.04,1.59 -1.33,0.6 -0.57,0.48 c -21.96,33.29 -39.65,71.16 -51.77,111.84 l 0.33,1.67 2.03,0.36 0.59,-0.93 c 11.09,-37.25 26.93,-72.23 46.48,-103.38 1.36,-2.17 2.73,-4.34 4.1,-6.49 -0.05,2.63 -0.08,5.26 -0.11,7.89 -0.57,56.44 4.51,115.15 17.24,177.95 l 0.59,0.94 1.63,-0.29 0.67,-1.87 c -17.3,-85.61 -20.52,-164.93 -13.91,-238.76 0.14,-1.56 0.28,-3.11 0.43,-4.66 1.06,1.01 2.12,2.03 3.19,3.04 36.01,34.26 66.62,71.66 92.41,111.76 l 1.2,0.36 1.11,-1.38 -0.24,-1.4 c -26.67,-41.57 -58.49,-80.23 -96.16,-115.54 l -1.06,-0.87 0.14,-1.35 c 4.3,-41.4 11.46,-79.24 21.14,-115.3 l 0.18,-0.64 0.44,-0.46 0.37,-1.49 -0.16,-0.65 0.19,-0.64 c 8.75,-31.78 20.1,-64.44 35.23,-99.14 0.83,-1.89 1.66,-3.78 2.5,-5.67 0.53,1.98 1.06,3.96 1.6,5.93 15.23,55.71 37.92,107.44 66.01,152.74 l 1.74,0.66 1.19,-0.95 -0.17,-1.02 c -29.56,-47.7 -53.01,-102.29 -68.15,-160.99 l -0.21,-0.84 0.36,-0.81 c 27.53,-60.06 64.18,-121.52 118.7,-186.48 l 0.29,-1.11 -1.67,-1.14"
         style="fill:#5e94d5;fill-opacity:1;fill-rule:nonzero;stroke:none"
         id="path256" /><path
         d="m 1803.2,2977.19 c -0.68,-0.39 7.43,82.34 -14.53,162.03 -19.76,79.07 -69.6,155.09 -135.07,126.86 -44.77,-21.16 -78.21,9.64 -107.1,40.44 -29.43,31.37 -54.14,62.73 -81.32,39.23 -48.86,-48.37 -17.35,-65.1 -104.02,-29.85 -89.12,31.83 -122.06,-33.7 -210.35,-59.57 -89.66,-31.32 -43.89,-143.02 67.96,-134.81 114.44,2.28 -7.95,-26.48 36.81,-68.9 17.5,-17.09 71.2,-6.24 120.11,4.61 53.94,11.96 102.06,23.93 89.34,-1.6 -26.98,-44.27 -6.22,-89.35 44.67,-90.9 117.84,0.31 291.59,15.15 293.5,12.46"
         style="fill:#8fc8ee;fill-opacity:1;fill-rule:nonzero;stroke:none"
         id="path258" /><path
         d="m 1844.23,2932.07 -0.38,1.48 c -58.04,74.34 -151.41,163.31 -267.53,218.23 l -0.9,0.44 -0.36,0.94 c -13.06,36.05 -33.72,70.08 -55.78,102.23 -7.27,10.61 -14.75,21.14 -22.27,31.7 l -1.46,0.54 c -0.87,-0.31 -1.63,-1.27 -1.41,-2.22 l 0.34,-0.71 c 7.35,-10.31 14.67,-20.61 21.78,-30.97 20.37,-29.62 39.59,-60.91 52.68,-93.95 0.72,-1.83 1.44,-3.66 2.16,-5.49 -1.78,0.82 -3.55,1.64 -5.33,2.45 -49,22.4 -101.79,39.57 -160.45,50.7 l -1.55,0.29 -0.38,1.53 -0.37,0.69 c -29.15,28.87 -63.55,53.85 -101.67,73.25 l -1.71,-0.1 -0.7,-2.12 0.82,-0.79 c 34.91,-17.76 66.77,-40.3 94.21,-66.22 1.92,-1.81 3.82,-3.62 5.71,-5.44 -2.59,0.46 -5.17,0.91 -7.77,1.35 -55.65,9.41 -114.51,13.07 -178.71,9.12 l -1.03,-0.49 0.01,-1.81 1.73,-1.01 c 87.52,5.33 166.41,-3.55 238.22,-22.18 1.51,-0.39 3.03,-0.79 4.53,-1.19 -1.19,-0.99 -2.37,-1.98 -3.55,-2.97 -39.97,-33.49 -82.12,-60.68 -126.11,-82.26 l -0.56,-1.24 1.18,-1.4 1.42,0.04 c 45.59,22.29 89.2,50.59 130.48,85.71 l 1.04,1.01 1.32,-0.36 c 40.16,-11.1 76.31,-24.7 110.29,-40.77 l 0.6,-0.28 0.38,-0.56 1.42,-0.63 0.65,0.07 0.61,-0.29 c 29.9,-14.4 60.23,-31.73 91.93,-53.45 1.73,-1.19 3.46,-2.38 5.18,-3.57 -2.05,-0.26 -4.08,-0.53 -6.12,-0.8 -57.63,-7.75 -112.59,-24.17 -162.11,-47.4 l -0.95,-1.79 0.74,-1.43 1.04,0.04 c 52.14,24.43 110.06,41.23 170.61,48.41 l 0.87,0.11 0.73,-0.52 c 54.64,-39.05 109.13,-88.16 164.02,-157.07 l 1.05,-0.48 1.41,1.63"
         style="fill:#5e94d5;fill-opacity:1;fill-rule:nonzero;stroke:none"
         id="path260" /><path
         d="m 1751.84,3139.83 c -0.92,0.06 54.98,75.02 77.93,166.65 24.89,89.58 16.83,195.82 -67.28,211.16 -118.24,17.51 -67.1,210.22 -149.71,200.18 -78.44,-15.04 -55.36,-51.82 -125.03,38.9 -74.16,89.02 -145.95,46.93 -252.38,79.44 -110.98,28.1 -127.61,-110.1 -6.88,-175.1 120.01,-72.44 -23.45,-20.5 -1.37,-90.84 17.56,-58.87 272.08,-102.31 218.98,-133.72 -53.39,-25.33 -57.74,-82.6 -5.84,-117.3 122.41,-76.56 311.14,-175.51 311.58,-179.37"
         style="fill:#5e94d5;fill-opacity:1;fill-rule:nonzero;stroke:none"
         id="path262" /><path
         d="m 1768.5,3069.3 0.46,1.69 c -17.54,109.97 -63.32,257.17 -152.24,386.19 l -0.68,1.01 0.18,1.15 c 7.13,43.49 5.24,89.97 0.81,135.54 -1.45,15.03 -3.16,30.14 -4.91,45.29 l -1.2,1.47 c -1.07,0.26 -2.42,-0.17 -2.74,-1.24 l -0.06,-0.91 c 1.71,-14.8 3.4,-29.56 4.83,-44.25 4.12,-42.01 6.1,-84.91 0.71,-125.48 -0.3,-2.25 -0.61,-4.5 -0.92,-6.74 -1.36,1.95 -2.74,3.91 -4.11,5.86 -37.97,53.68 -82.87,104.78 -137.33,153.83 l -1.44,1.3 0.5,1.73 v 0.91 c -13.66,47.02 -35.01,93.68 -63.41,137.37 l -1.83,1.02 c -0.97,-0.08 -1.84,-0.81 -1.95,-1.6 l 0.39,-1.3 c 26.03,-40 46.13,-82.64 59.72,-125.69 0.95,-3.01 1.88,-6.01 2.8,-9 -2.42,2.13 -4.84,4.26 -7.28,6.37 -52.33,45.43 -111.28,87.39 -180.13,125.42 l -1.36,0.2 -1.02,-1.75 c -0.06,-0.93 0.34,-1.63 1.22,-2.11 93.82,-51.93 170.56,-112.01 234.36,-176.92 1.34,-1.36 2.68,-2.73 4.01,-4.1 -1.8,-0.18 -3.6,-0.37 -5.4,-0.57 -60.67,-6.42 -120,-5.29 -178.01,2.48 l -1.29,-0.84 0.41,-2.12 1.5,-0.9 c 60.08,-8.12 121.56,-9.12 184.53,-1.97 l 1.66,0.3 1.16,-1.21 c 35.29,-36.96 64.98,-73.74 91.01,-111.49 l 0.45,-0.67 0.08,-0.79 1.1,-1.53 0.73,-0.37 0.46,-0.67 c 22.76,-33.47 44.27,-70.07 64.68,-111.81 1.11,-2.28 2.22,-4.56 3.32,-6.85 -2.28,1.08 -4.55,2.16 -6.82,3.21 -64.2,30.08 -130.64,50.01 -195.35,59.78 -0.93,0.14 -1.6,-0.23 -2,-1.11 l -0.06,-1.87 1.1,-0.65 c 68.11,-10.3 137.82,-31.79 204.76,-64.33 l 0.96,-0.47 0.46,-0.98 c 34.26,-73.51 62.59,-156.68 79.98,-259.34 0.15,-0.93 0.59,-1.08 0.8,-1.15 l 2.4,0.66"
         style="fill:#407ec9;fill-opacity:1;fill-rule:nonzero;stroke:none"
         id="path264" /><path
         d="m 2795.25,3422.81 h -948.44 c -92,0 -166.58,-74.57 -166.58,-166.57 v -1980.6 c 0,-92.01 74.58,-166.59 166.58,-166.59 h 948.44 c 92.01,0 166.58,74.58 166.58,166.59 v 1980.6 c 0,92 -74.57,166.57 -166.58,166.57"
         style="fill:#214a7c;fill-opacity:1;fill-rule:nonzero;stroke:none"
         id="path266" /><path
         d="m 2795.25,3422.81 h -948.44 c -92,0 -166.58,-74.57 -166.58,-166.57 v -1980.6 c 0,-53.4 25.22,-100.81 64.29,-131.28 l 1203.61,2177.97 c -25.58,59.1 -84.37,100.48 -152.88,100.48"
         style="fill:#193651;fill-opacity:1;fill-rule:nonzero;stroke:none"
         id="path268" /><path
         d="m 2506.21,3341.66 h -351.86 c -9.67,0 -17.59,-7.91 -17.59,-17.59 0,-9.68 7.92,-17.6 17.59,-17.6 h 351.86 c 9.68,0 17.59,7.92 17.59,17.6 0,9.68 -7.91,17.59 -17.59,17.59"
         style="fill:#ffffff;fill-opacity:1;fill-rule:nonzero;stroke:none"
         id="path270" /><path
         d="m 2795.25,3360.4 h -139.17 l -50.06,-94.9 c -18.72,-35.47 -55.54,-57.67 -95.65,-57.67 h -378.68 c -40.11,0 -76.92,22.2 -95.63,57.67 l -50.08,94.9 h -139.17 c -57.44,0 -104.16,-46.72 -104.16,-104.17 V 1275.64 c 0,-57.44 46.72,-104.17 104.16,-104.17 h 948.44 c 57.44,0 104.16,46.73 104.16,104.17 v 1980.59 c 0,57.45 -46.72,104.17 -104.16,104.17"
         style="fill:#d0f0fc;fill-opacity:1;fill-rule:nonzero;stroke:none"
         id="path272" /><path
         d="m 1775.23,1200 c -3.78,3.6 -7.29,7.47 -10.5,11.58 3.21,-4.11 6.73,-7.97 10.51,-11.56 l -0.01,-0.02 m -30.5,54.88 c -0.01,0.03 -0.01,0.06 -0.02,0.09 0.01,-0.03 0.01,-0.06 0.02,-0.09 m -0.05,0.22 c -1.33,6.65 -2.03,13.53 -2.03,20.57 v 1980.55 c 0,9.36 1.24,18.45 3.57,27.09 -2.33,-8.64 -3.57,-17.71 -3.57,-27.08 V 1275.64 c 0,-7.03 0.7,-13.9 2.03,-20.54 m 16.01,2059.68 c 18.77,27.53 50.37,45.65 86.07,45.65 h 139.21 l 4.03,-7.65 -4.02,7.62 h -139.17 c -35.75,0 -67.35,-18.1 -86.12,-45.62 m 1104.46,18.62 c -18.49,16.77 -43.02,27 -69.9,27 h -139.17 l -12.69,-24.06 12.69,24.09 h 139.21 c 26.85,0 51.37,-10.24 69.86,-27.03"
         style="fill:#18324e;fill-opacity:1;fill-rule:nonzero;stroke:none"
         id="path274" /><path
         d="m 1775.24,1200.02 c -3.78,3.59 -7.3,7.45 -10.51,11.56 -9.76,12.5 -16.74,27.23 -20,43.3 -0.01,0.03 -0.01,0.06 -0.02,0.09 -0.01,0.04 -0.02,0.08 -0.03,0.13 -1.33,6.64 -2.03,13.51 -2.03,20.54 v 1980.59 c 0,9.37 1.24,18.44 3.57,27.08 3.06,11.37 8.01,21.98 14.47,31.47 18.77,27.52 50.37,45.62 86.12,45.62 h 139.17 l 4.02,-7.62 46.01,-87.31 c 18.79,-35.48 55.52,-57.65 95.73,-57.65 h 378.67 c 40.11,0 76.84,22.17 95.63,57.65 l 37.35,70.87 12.69,24.06 h 139.17 c 26.88,0 51.41,-10.23 69.9,-27 21.02,-19.08 34.25,-46.62 34.25,-77.18 v -21.99 l -95.08,-172.06 h -881.07 c -40.27,0 -72.92,-32.64 -72.92,-72.91 v -356.54 c 0,-40.27 32.65,-72.92 72.92,-72.92 h 603.44 L 1775.23,1200"
         style="fill:#a6dff8;fill-opacity:1;fill-rule:nonzero;stroke:none"
         id="path276" /><path
         d="M 3363.92,3062.17 H 1923.25 c -40.27,0 -72.92,-32.64 -72.92,-72.91 v -356.54 c 0,-40.27 32.65,-72.92 72.92,-72.92 h 1440.67 c 40.27,0 72.92,32.65 72.92,72.92 v 356.54 c 0,40.27 -32.65,72.91 -72.92,72.91"
         style="fill:#ffffff;fill-opacity:1;fill-rule:nonzero;stroke:none"
         id="path278" /><path
         d="m 2551.19,2894.59 9.77,-30.07 c 0.68,-2.1 2.63,-3.52 4.84,-3.52 h 31.63 c 4.93,0 6.98,-6.32 2.99,-9.22 l -25.58,-18.59 c -1.78,-1.3 -2.54,-3.6 -1.85,-5.69 l 9.77,-30.08 c 1.53,-4.7 -3.84,-8.6 -7.84,-5.7 l -25.58,18.59 c -1.79,1.3 -4.2,1.3 -5.99,0 l -25.59,-18.59 c -3.99,-2.9 -9.37,1 -7.84,5.7 l 9.78,30.08 c 0.68,2.09 -0.07,4.39 -1.86,5.69 l -25.58,18.59 c -3.99,2.9 -1.94,9.22 2.99,9.22 h 31.63 c 2.2,0 4.16,1.42 4.84,3.52 l 9.77,30.07 c 1.53,4.7 8.17,4.7 9.7,0"
         style="fill:#f7b829;fill-opacity:1;fill-rule:nonzero;stroke:none"
         id="path280" /><path
         d="m 2726.65,2894.59 9.78,-30.07 c 0.67,-2.1 2.63,-3.52 4.84,-3.52 h 31.62 c 4.94,0 6.99,-6.32 3,-9.22 l -25.59,-18.59 c -1.78,-1.3 -2.54,-3.6 -1.85,-5.69 l 9.77,-30.08 c 1.53,-4.7 -3.84,-8.6 -7.84,-5.7 l -25.59,18.59 c -1.78,1.3 -4.19,1.3 -5.98,0 l -25.59,-18.59 c -3.99,-2.9 -9.36,1 -7.84,5.7 l 9.78,30.08 c 0.68,2.09 -0.07,4.39 -1.86,5.69 l -25.59,18.59 c -3.98,2.9 -1.93,9.22 3,9.22 h 31.62 c 2.22,0 4.17,1.42 4.86,3.52 l 9.76,30.07 c 1.54,4.7 8.18,4.7 9.7,0"
         style="fill:#f7b829;fill-opacity:1;fill-rule:nonzero;stroke:none"
         id="path282" /><path
         d="m 2902.11,2894.59 9.77,-30.07 c 0.69,-2.1 2.64,-3.52 4.85,-3.52 h 31.62 c 4.94,0 6.99,-6.32 3,-9.22 l -25.59,-18.59 c -1.79,-1.3 -2.53,-3.6 -1.84,-5.69 l 9.76,-30.08 c 1.53,-4.7 -3.85,-8.6 -7.84,-5.7 l -25.59,18.59 c -1.77,1.3 -4.2,1.3 -5.98,0 l -25.59,-18.59 c -3.99,-2.9 -9.36,1 -7.84,5.7 l 9.78,30.08 c 0.68,2.09 -0.06,4.39 -1.85,5.69 l -25.59,18.59 c -3.99,2.9 -1.94,9.22 2.99,9.22 h 31.63 c 2.21,0 4.16,1.42 4.85,3.52 l 9.77,30.07 c 1.53,4.7 8.17,4.7 9.69,0"
         style="fill:#f7b829;fill-opacity:1;fill-rule:nonzero;stroke:none"
         id="path284" /><path
         d="m 3077.57,2894.59 9.77,-30.07 c 0.69,-2.1 2.64,-3.52 4.85,-3.52 h 31.63 c 4.93,0 6.98,-6.32 2.99,-9.22 l -25.59,-18.59 c -1.78,-1.3 -2.53,-3.6 -1.84,-5.69 l 9.77,-30.08 c 1.52,-4.7 -3.85,-8.6 -7.84,-5.7 l -25.59,18.59 c -1.78,1.3 -4.21,1.3 -5.99,0 l -25.58,-18.59 c -3.99,-2.9 -9.37,1 -7.84,5.7 l 9.76,30.08 c 0.69,2.09 -0.05,4.39 -1.84,5.69 l -25.59,18.59 c -3.99,2.9 -1.94,9.22 3,9.22 h 31.62 c 2.21,0 4.16,1.42 4.85,3.52 l 9.77,30.07 c 1.52,4.7 8.16,4.7 9.69,0"
         style="fill:#f7b829;fill-opacity:1;fill-rule:nonzero;stroke:none"
         id="path286" /><path
         d="m 3253.04,2894.59 9.76,-30.07 c 0.69,-2.1 2.65,-3.52 4.86,-3.52 h 31.62 c 4.93,0 6.98,-6.32 3,-9.22 l -25.59,-18.59 c -1.79,-1.3 -2.54,-3.6 -1.86,-5.69 l 9.78,-30.08 c 1.52,-4.7 -3.85,-8.6 -7.84,-5.7 l -25.59,18.59 c -1.79,1.3 -4.2,1.3 -5.98,0 l -25.59,-18.59 c -3.99,-2.9 -9.37,1 -7.84,5.7 l 9.77,30.08 c 0.69,2.09 -0.07,4.39 -1.85,5.69 l -25.59,18.59 c -3.99,2.9 -1.93,9.22 3,9.22 h 31.62 c 2.21,0 4.17,1.42 4.85,3.52 l 9.77,30.07 c 1.52,4.7 8.16,4.7 9.7,0"
         style="fill:#b4dedd;fill-opacity:1;fill-rule:nonzero;stroke:none"
         id="path288" /><path
         d="m 3000.39,2741.35 h -510.24 v -14.17 h 510.24 v 14.17"
         style="fill:#b4dedd;fill-opacity:1;fill-rule:nonzero;stroke:none"
         id="path290" /><path
         d="m 3000.39,2974.63 h -510.24 v -26.71 h 510.24 v 26.71"
         style="fill:#5e94d5;fill-opacity:1;fill-rule:nonzero;stroke:none"
         id="path292" /><path
         d="m 3000.39,2687.41 h -510.24 v -14.17 h 510.24 v 14.17"
         style="fill:#b4dedd;fill-opacity:1;fill-rule:nonzero;stroke:none"
         id="path294" /><path
         d="m 2723.38,2637.32 h -233.23 v -14.17 h 233.23 v 14.17"
         style="fill:#b4dedd;fill-opacity:1;fill-rule:nonzero;stroke:none"
         id="path296" /><path
         d="m 2378.58,2803.43 c 0,112.51 -91.21,203.71 -203.71,203.71 -112.51,0 -203.71,-91.2 -203.71,-203.71 0,-112.51 91.2,-203.71 203.71,-203.71 112.5,0 203.71,91.2 203.71,203.71"
         style="fill:#8fc8ee;fill-opacity:1;fill-rule:nonzero;stroke:none"
         id="path298" /><g
         id="g300"><g
           id="g302"
           clip-path="url(#clipPath306)"><path
             d="m 2275.91,2680.1 -17.88,188.23 c 0,48.21 -18.93,92.54 -69.93,79.4 -23.05,12.07 -51.77,9.27 -70.62,-8.67 -19.95,-19 -31.38,-47.89 -31.38,-77.03 l -19.98,-182.98 209.79,1.05"
             style="fill:#214a7c;fill-opacity:1;fill-rule:nonzero;stroke:none"
             id="path308" /><path
             d="m 2205.1,2776.79 v -41.44 c 0,0 -5.79,-32.4 -33.06,-37.87 -28.43,7.46 -32.83,37.87 -32.83,37.87 v 41.44 h 65.89"
             style="fill:#f79576;fill-opacity:1;fill-rule:nonzero;stroke:none"
             id="path310" /><path
             d="m 2205.1,2782.72 v -26.38 c -9.98,-5.4 -21.3,-8.3 -32.94,-8.3 -11.65,0 -22.97,2.9 -32.95,8.3 v 26.38 h 65.89"
             style="fill:#e5674e;fill-opacity:1;fill-rule:nonzero;stroke:none"
             id="path312" /><path
             d="m 2238.98,2866.12 c -30.29,0.85 -50.12,24.3 -50.12,24.3 -18.45,-16.05 -83.11,-24.3 -83.11,-24.3 l -0.44,-25.51 c 0,-19.23 8.12,-42.6 21.11,-60.59 10.57,-14.62 27.69,-23.1 45.73,-23.1 18.06,0 35.17,8.48 45.74,23.1 12.99,17.99 21.11,41.36 21.11,60.59 l -0.02,25.51"
             style="fill:#f79576;fill-opacity:1;fill-rule:nonzero;stroke:none"
             id="path314" /><path
             d="m 2335.09,2666.44 c -25.81,44.39 -135.07,68.91 -135.07,68.91 l -28.73,-11.01 -28.72,11.01 c 0,0 -109.26,-24.52 -135.07,-68.91 l -31.67,-239.25 50.25,0.78 29.42,199.75 c 0,0 18.58,-64.52 17.55,-102.2 -1.03,-37.68 -12.76,-99.96 -12.76,-99.96 h 108.07 5.86 108.08 c 0,0 -11.73,62.28 -12.76,99.96 -1.03,37.68 17.54,102.2 17.54,102.2 l 29.43,-199.75 50.24,-0.78 -31.66,239.25"
             style="fill:#f79576;fill-opacity:1;fill-rule:nonzero;stroke:none"
             id="path316" /><path
             d="m 2259.82,2716.76 c -8.71,-24.89 -31.23,-62.97 -88.18,-65.94 -57.14,2.98 -79.62,41.29 -88.28,66.18 -16.69,-6.45 -34.11,-14.59 -48.61,-24.24 l 19.63,-65.04 0.87,-1.7 0.25,1.7 c 0,0 0.82,-2.85 2.06,-7.54 l 0.6,-2.26 c 5.09,-19.46 15.68,-63.68 14.89,-92.4 -1.03,-37.68 -12.76,-99.96 -12.76,-99.96 h 108.07 5.86 108.08 c 0,0 -11.73,62.28 -12.76,99.96 -1.03,37.68 17.54,102.2 17.54,102.2 l 0.42,-2.75 c 0.44,0.97 0.89,1.95 1.4,2.75 l 19.51,64.66 c -14.44,9.7 -31.85,17.87 -48.59,24.38"
             style="fill:#5e94d5;fill-opacity:1;fill-rule:nonzero;stroke:none"
             id="path318" /></g></g><path
         d="m 3581.2,2478.88 c -7.26,0.16 -13.89,4.22 -17.27,10.65 l -104.38,207.77 c 0,0 -12.49,49.96 -27.18,49.96 l -1.47,-66.12 70.6,-255.44 c 4.1,-15.95 12.42,-29.61 33.72,-30.1 43.38,-1.01 122.73,-14.92 174.43,-28.48 52.91,-13.89 97.4,0.32 97.4,0.32 3.3,116.82 -181.37,110.45 -225.85,111.44"
         style="fill:#f79576;fill-opacity:1;fill-rule:nonzero;stroke:none"
         id="path320" /><path
         d="m 3737.39,2505 v -59.07 h -89.68 v 33.27 c 0,0 -58.96,13.92 -56.1,67.16 2.87,53.23 27.85,79.03 41.36,83.12 13.51,4.1 78.62,-22.11 79.85,-25.38 1.23,-3.28 8.2,-59.79 8.2,-59.79 l 16.37,-39.31"
         style="fill:#f79576;fill-opacity:1;fill-rule:nonzero;stroke:none"
         id="path322" /><path
         d="m 3643.21,2585.67 c 0,0 15.89,22.42 30.71,11.32 14.81,-11.11 7.4,-33.33 -11.11,-44.44 0,0 18.51,-62.94 55.54,-59.23 37.02,3.7 84.56,42.8 80.47,103.81 -4.09,61.02 -83.77,103.97 -127.36,95.42 -43.81,-8.6 -86.81,-57.33 -28.25,-106.88"
         style="fill:#314ea8;fill-opacity:1;fill-rule:nonzero;stroke:none"
         id="path324" /><path
         d="m 3798.41,2635.62 c 0,0 48.32,61.43 96.64,8.2 48.32,-53.24 78.62,-113.02 100.73,-124.49 22.12,-11.46 -18.84,-39.31 -72.07,-22.11 -53.23,17.2 -122.03,82.72 -125.3,138.4"
         style="fill:#314ea8;fill-opacity:1;fill-rule:nonzero;stroke:none"
         id="path326" /><path
         d="m 3647.71,2445.93 v 33.27 c 0,0 36.67,-1.44 52.25,12.76 0,0 -10.94,-25.37 -34.9,-26.07 v -19.96 h -17.35"
         style="fill:#ed674b;fill-opacity:1;fill-rule:nonzero;stroke:none"
         id="path328" /><path
         d="m 3608.33,1973.41 c 0,0 21.12,-330.34 48.01,-399.48 26.89,-69.14 196.97,-383.68 196.97,-383.68 l 88.11,19.4 -125.67,375.8 c -0.96,-23.05 -17.64,85.29 13.45,194.94 18.24,64.34 11.21,134.54 -16.07,190.65 l -220.17,2.37"
         style="fill:#3468bb;fill-opacity:1;fill-rule:nonzero;stroke:none"
         id="path330" /><path
         d="m 3811.43,1987.33 c 0,0 -8.25,-91.77 -113.79,-195.89 -106.6,-105.16 -148.37,-175.75 -148.37,-175.75 l -15.85,-455.17 h -87.86 c 0,0 -51.86,479.67 -50.42,496.95 1.44,17.29 146.93,329.86 164.22,357.23 17.28,27.37 252.07,-27.37 252.07,-27.37"
         style="fill:#5e94d5;fill-opacity:1;fill-rule:nonzero;stroke:none"
         id="path332" /><path
         d="m 3746.61,2450.67 c 0,0 94.24,-7.04 59.53,-123.87 -37.93,-127.72 5.55,-332.43 14.19,-353.55 l -28.24,-11.26 c -84.67,-31.8 -178.34,-29.78 -261.54,5.66 h -0.01 c 0,0 74.91,165.17 21.61,251.6 -34.28,55.58 -24.17,111.68 15.84,161.33 25.94,32.16 58.62,65.68 71.54,66.28 l 107.08,3.81"
         style="fill:#78bfeb;fill-opacity:1;fill-rule:nonzero;stroke:none"
         id="path334" /><path
         d="m 3445.58,1160.49 h 18.57 l -37.61,493.48 c 6.21,10.3 27.72,49.71 92.92,175.24 22.72,43.69 38.62,85.44 49.97,124.59 -11.82,3.41 -23.51,7.48 -35.01,12.23 -46.56,-95.68 -138.14,-294.89 -139.28,-308.58 -1.47,-17.24 50.44,-496.96 50.44,-496.96"
         style="fill:#407ec9;fill-opacity:1;fill-rule:nonzero;stroke:none"
         id="path336" /><path
         d="m 3628.05,2250.32 c -44.01,-16.3 -11.31,-133.24 -58.65,-296.49 -13.14,3.86 -26.13,8.4 -38.85,13.82 h -0.01 c 0,0 74.91,165.17 21.61,251.6 -16.9,27.39 -22.96,54.9 -20.03,81.71 l 186.81,42.46 c 0,0 -31.03,-70.93 -90.88,-93.1"
         style="fill:#5bb0e5;fill-opacity:1;fill-rule:nonzero;stroke:none"
         id="path338" /><path
         d="m 3225.37,2542.9 c 0,0 171.01,-284.19 220.92,-300.34 22.19,-7.18 160.47,46.83 218.83,56.42 31.52,5.19 53.69,33.84 50.77,65.66 -3.34,36.47 -45.18,67.49 -80.96,59.65 l -191.96,-59.82 c 0,0 -162.55,168.09 -198.75,206.51 0,0 -15,47.29 -37.32,47.29 -19.95,0 10.35,-59.11 18.47,-75.37"
         style="fill:#f79576;fill-opacity:1;fill-rule:nonzero;stroke:none"
         id="path340" /><path
         d="m 3361.76,1131.41 c 24.24,7.89 69.59,17.5 86.01,29.05 h 85.34 c -0.85,-17.1 -1.3,-33.72 -1.54,-44.77 -0.15,-7.42 -6.21,-13.33 -13.63,-13.33 h -169.89 c -11.12,0 -15.17,14.54 -5.7,20.37 4.94,3.04 11.26,6.03 19.41,8.68"
         style="fill:#314ea8;fill-opacity:1;fill-rule:nonzero;stroke:none"
         id="path342" /><path
         d="m 3777.87,1142.45 c 21.84,13.17 63.84,32.77 77.23,47.74 l 83.12,19.28 c 3.04,-16.84 6.36,-33.13 8.63,-43.95 1.53,-7.27 -3.04,-14.38 -10.27,-16.06 l -165.5,-38.4 c -10.82,-2.52 -18.05,10.74 -10.15,18.55 4.12,4.07 9.61,8.43 16.94,12.84"
         style="fill:#314ea8;fill-opacity:1;fill-rule:nonzero;stroke:none"
         id="path344" /><path
         d="m 3634.93,2424.29 c 3.12,0.68 6.27,1.07 9.45,1.18 -3.18,-0.11 -6.34,-0.5 -9.45,-1.18"
         style="fill:#aa919b;fill-opacity:1;fill-rule:nonzero;stroke:none"
         id="path346" /><path
         d="m 3447.22,2339.65 c -0.3,0 -0.6,0 -0.89,0.01 -43.72,1.06 -202.11,231.32 -202.11,231.32 36.2,-38.42 198.75,-206.51 198.75,-206.51 l 191.96,59.82 v 0 c 3.11,0.68 6.27,1.07 9.45,1.18 0.67,0.03 1.36,0.04 2.04,0.04 29.53,0 59.89,-23.1 67.68,-51.61 -9.22,6.22 -23.37,8.73 -40.48,8.73 -35.44,0 -83.6,-10.75 -127.12,-21.49 -43.52,-10.75 -82.4,-21.49 -99.28,-21.49"
         style="fill:#f57a5c;fill-opacity:1;fill-rule:nonzero;stroke:none"
         id="path348" /><path
         d="m 3797.12,2639.27 -12.55,-2.26 c 0,0 16.23,-26.33 12.83,-50.96 l 16.24,3.02 c 0,0 -1.71,44.91 -16.52,50.2"
         style="fill:#ffffff;fill-opacity:1;fill-rule:nonzero;stroke:none"
         id="path350" /><path
         d="M 2670.46,2443.37 H 1229.79 c -40.26,0 -72.91,-32.65 -72.91,-72.92 v -356.53 c 0,-40.28 32.65,-72.92 72.91,-72.92 h 1440.67 c 40.27,0 72.92,32.64 72.92,72.92 v 356.53 c 0,40.27 -32.65,72.92 -72.92,72.92"
         style="fill:#ffffff;fill-opacity:1;fill-rule:nonzero;stroke:none"
         id="path352" /><path
         d="m 1857.73,2275.79 9.77,-30.08 c 0.69,-2.1 2.65,-3.52 4.85,-3.52 h 31.62 c 4.94,0 7,-6.32 3,-9.22 l -25.58,-18.59 c -1.79,-1.29 -2.54,-3.59 -1.85,-5.69 l 9.77,-30.08 c 1.52,-4.69 -3.85,-8.6 -7.84,-5.7 l -25.59,18.59 c -1.78,1.3 -4.2,1.3 -5.99,0 l -25.58,-18.59 c -3.99,-2.9 -9.37,1.01 -7.84,5.7 l 9.77,30.08 c 0.68,2.1 -0.06,4.4 -1.85,5.69 l -25.59,18.59 c -3.99,2.9 -1.93,9.22 3,9.22 h 31.62 c 2.21,0 4.17,1.42 4.85,3.52 l 9.77,30.08 c 1.53,4.69 8.17,4.69 9.69,0"
         style="fill:#f7b829;fill-opacity:1;fill-rule:nonzero;stroke:none"
         id="path354" /><path
         d="m 2033.2,2275.79 9.77,-30.08 c 0.68,-2.1 2.64,-3.52 4.84,-3.52 h 31.63 c 4.94,0 6.99,-6.32 2.99,-9.22 l -25.58,-18.59 c -1.79,-1.29 -2.53,-3.59 -1.85,-5.69 l 9.77,-30.08 c 1.52,-4.69 -3.85,-8.6 -7.84,-5.7 l -25.59,18.59 c -1.78,1.3 -4.2,1.3 -5.98,0 l -25.59,-18.59 c -3.99,-2.9 -9.36,1.01 -7.84,5.7 l 9.77,30.08 c 0.68,2.1 -0.06,4.4 -1.85,5.69 l -25.58,18.59 c -4,2.9 -1.95,9.22 2.99,9.22 h 31.63 c 2.2,0 4.16,1.42 4.84,3.52 l 9.78,30.08 c 1.52,4.69 8.16,4.69 9.69,0"
         style="fill:#f7b829;fill-opacity:1;fill-rule:nonzero;stroke:none"
         id="path356" /><path
         d="m 2208.66,2275.79 9.77,-30.08 c 0.68,-2.1 2.64,-3.52 4.85,-3.52 h 31.62 c 4.93,0 6.99,-6.32 3,-9.22 l -25.59,-18.59 c -1.79,-1.29 -2.53,-3.59 -1.85,-5.69 l 9.77,-30.08 c 1.53,-4.69 -3.85,-8.6 -7.84,-5.7 l -25.58,18.59 c -1.79,1.3 -4.21,1.3 -5.99,0 l -25.59,-18.59 c -3.99,-2.9 -9.37,1.01 -7.84,5.7 l 9.77,30.08 c 0.69,2.1 -0.06,4.4 -1.85,5.69 l -25.58,18.59 c -4,2.9 -1.94,9.22 2.99,9.22 h 31.63 c 2.21,0 4.16,1.42 4.84,3.52 l 9.77,30.08 c 1.53,4.69 8.17,4.69 9.7,0"
         style="fill:#f7b829;fill-opacity:1;fill-rule:nonzero;stroke:none"
         id="path358" /><path
         d="m 2384.12,2275.79 9.77,-30.08 c 0.69,-2.1 2.64,-3.52 4.85,-3.52 h 31.62 c 4.94,0 6.99,-6.32 2.99,-9.22 l -25.58,-18.59 c -1.78,-1.29 -2.53,-3.59 -1.85,-5.69 l 9.77,-30.08 c 1.53,-4.69 -3.84,-8.6 -7.84,-5.7 l -25.58,18.59 c -1.79,1.3 -4.2,1.3 -5.99,0 l -25.59,-18.59 c -3.99,-2.9 -9.36,1.01 -7.84,5.7 l 9.78,30.08 c 0.68,2.1 -0.07,4.4 -1.85,5.69 l -25.59,18.59 c -3.99,2.9 -1.94,9.22 2.99,9.22 h 31.63 c 2.21,0 4.16,1.42 4.84,3.52 l 9.78,30.08 c 1.52,4.69 8.16,4.69 9.69,0"
         style="fill:#f7b829;fill-opacity:1;fill-rule:nonzero;stroke:none"
         id="path360" /><path
         d="m 2559.58,2275.79 9.78,-30.08 c 0.68,-2.1 2.63,-3.52 4.84,-3.52 h 31.62 c 4.94,0 6.99,-6.32 3,-9.22 l -25.59,-18.59 c -1.78,-1.29 -2.53,-3.59 -1.84,-5.69 l 9.76,-30.08 c 1.53,-4.69 -3.85,-8.6 -7.84,-5.7 l -25.59,18.59 c -1.77,1.3 -4.19,1.3 -5.98,0 l -25.59,-18.59 c -3.99,-2.9 -9.36,1.01 -7.84,5.7 l 9.78,30.08 c 0.68,2.1 -0.07,4.4 -1.85,5.69 l -25.59,18.59 c -3.99,2.9 -1.94,9.22 3,9.22 h 31.62 c 2.21,0 4.16,1.42 4.85,3.52 l 9.77,30.08 c 1.53,4.69 8.17,4.69 9.69,0"
         style="fill:#f7b829;fill-opacity:1;fill-rule:nonzero;stroke:none"
         id="path362" /><path
         d="m 2306.93,2122.55 h -510.24 v -14.17 h 510.24 v 14.17"
         style="fill:#b4dedd;fill-opacity:1;fill-rule:nonzero;stroke:none"
         id="path364" /><path
         d="m 2306.93,2355.83 h -510.24 v -26.72 h 510.24 v 26.72"
         style="fill:#214a7c;fill-opacity:1;fill-rule:nonzero;stroke:none"
         id="path366" /><path
         d="m 2306.93,2068.6 h -510.24 v -14.17 h 510.24 v 14.17"
         style="fill:#b4dedd;fill-opacity:1;fill-rule:nonzero;stroke:none"
         id="path368" /><path
         d="m 2029.93,2018.52 h -233.24 v -14.17 h 233.24 v 14.17"
         style="fill:#b4dedd;fill-opacity:1;fill-rule:nonzero;stroke:none"
         id="path370" /><path
         d="m 1685.13,2184.62 c 0,112.51 -91.21,203.71 -203.71,203.71 -112.51,0 -203.71,-91.2 -203.71,-203.71 0,-112.5 91.2,-203.7 203.71,-203.7 112.5,0 203.71,91.2 203.71,203.7"
         style="fill:#8fc8ee;fill-opacity:1;fill-rule:nonzero;stroke:none"
         id="path372" /><path
         d="m 1046.41,1406.46 c 0,0 345.46,289.48 406.23,187.12 60.77,-102.35 -28.79,-433.41 -28.79,-433.41 l -377.44,246.29"
         style="fill:#457dc9;fill-opacity:1;fill-rule:nonzero;stroke:none"
         id="path374" /><path
         d="m 1227.7,1288.16 196.15,-127.99 c 0,0 81.87,302.82 35.77,418.71 21.08,-152.42 -140.57,-248.93 -231.92,-290.72"
         style="fill:#3468bb;fill-opacity:1;fill-rule:nonzero;stroke:none"
         id="path376" /><path
         d="m 1223.4,1437.38 c 0,0 213.94,-171.68 231.37,-233.5 28.26,-100.23 -139.28,-89.03 -211.64,-89.03 -72.37,0 -533.56,12.77 -533.56,12.77 l 4.176,70.92 425.424,20.27 c 0,0 -235.639,34.92 -226.908,170.93 8.734,136 311.138,47.64 311.138,47.64"
         style="fill:#5e94d5;fill-opacity:1;fill-rule:nonzero;stroke:none"
         id="path378" /><path
         d="m 1443.18,1147.18 c -39.04,-38.57 -145.96,-32.3 -200.04,-32.3 -72.4,0 -533.597,12.73 -533.597,12.73 l 4.234,70.94 425.433,20.25 c 0,0 169.49,-81.55 300.59,-72.01 1.16,0.09 2.32,0.19 3.38,0.39"
         style="fill:#457dc9;fill-opacity:1;fill-rule:nonzero;stroke:none"
         id="path380" /><path
         d="m 711.746,1128.85 c 0,0 -18.793,-42.39 -4.398,-70.37 14.394,-27.99 -47.977,-7.6 -57.977,47.57 -9.996,55.18 -5.195,121.16 64.375,91.57 l -2,-68.77"
         style="fill:#314ea8;fill-opacity:1;fill-rule:nonzero;stroke:none"
         id="path382" /><path
         d="m 951.516,1862.8 c 0,0 155.304,448.79 159.934,446.75 18.13,-7.99 50.11,-15.46 50.11,-15.46 l -63.97,-492.6 -146.074,61.31"
         style="fill:#214a7c;fill-opacity:1;fill-rule:nonzero;stroke:none"
         id="path384" /><path
         d="m 1111.98,1913.98 c -35.32,16.71 -79.43,36.25 -131.144,33.06 -21.32,-61.12 -29.32,-84.24 -29.32,-84.24 l 146.074,-61.31 14.39,112.49"
         style="fill:#193651;fill-opacity:1;fill-rule:nonzero;stroke:none"
         id="path386" /><path
         d="m 1145.95,1981.49 c -11.46,-42.37 -56.93,-34.47 -56.93,-34.47 v -40.3 h -78.44 v 54.48 l 0.37,-0.09 c 40.78,-9.39 85.03,20.2 65.49,34.76 -19.45,14.46 -23.68,38.51 -13.53,50.26 10.23,11.74 34.76,3.01 34.76,3.01 23.48,0.65 39.64,3.57 50.07,8.83 4.04,-24.05 4.32,-53.83 -1.79,-76.48"
         style="fill:#f79576;fill-opacity:1;fill-rule:nonzero;stroke:none"
         id="path388" /><path
         d="m 1097.62,2049.13 c 0,0 -24.48,8.78 -34.67,-2.98 -10.19,-11.76 -6,-35.82 13.51,-50.32 19.49,-14.49 -24.78,-44.11 -65.54,-34.71 -40.752,9.41 -63.51,94.48 -28.537,149.85 32.107,50.84 144.947,72.92 167.677,19.62 22.73,-53.3 24.08,-79.38 -52.44,-81.46"
         style="fill:#314ea8;fill-opacity:1;fill-rule:nonzero;stroke:none"
         id="path390" /><path
         d="m 1089.02,1906.72 v 40.3 c 0,0 -26.44,3.54 -36.76,9 0,0 13.83,-16.76 22.99,-20.46 v -28.84 h 13.77"
         style="fill:#e5674e;fill-opacity:1;fill-rule:nonzero;stroke:none"
         id="path392" /><path
         d="m 1109.99,1905.94 c 0,0 -129.646,44.89 -166.142,-56.17 -36.5,-101.07 25.527,-343.35 -40.582,-426.52 102.234,-47.7 219.434,-51.96 324.864,-11.8 l 14.2,5.41 c 0,0 -45.31,309.01 -47.48,298.28 -1.84,-9.07 153.04,-58.43 183.92,-41.59 30.88,16.85 217.81,227.91 217.81,227.91 l -62.91,9.33 -168.46,-110.89 c 0,0 -212.61,103.25 -255.22,106.04"
         style="fill:#214a7c;fill-opacity:1;fill-rule:nonzero;stroke:none"
         id="path394" /><path
         d="m 1596.58,1901.46 c 0,0 64.77,27.98 68.77,40.78 h -93.32 c -9.7,0 -18.81,-4.63 -24.52,-12.46 l -13.84,-18.99 62.91,-9.33"
         style="fill:#f79576;fill-opacity:1;fill-rule:nonzero;stroke:none"
         id="path396" /><path
         d="m 1242.33,1416.86 c 0,0 -39.81,271.48 -46.59,296.68 0.77,-0.79 2.06,-1.68 3.84,-2.7 -2.99,2.71 -4.73,4.3 -4.73,4.3 0,0 -98.86,23.98 -134.05,65.56 0,0 33.59,-68.77 76.77,-84.76 38.56,-14.28 24.87,-222.3 54.52,-296.29 12.13,3.4 24.17,7.27 36.04,11.8 l 14.2,5.41"
         style="fill:#193651;fill-opacity:1;fill-rule:nonzero;stroke:none"
         id="path398" /><path
         d="m 1116.25,2307.42 c 0,0 16.48,58.89 41.03,63.03 l 0.01,-76.89 -41.04,13.86"
         style="fill:#f79576;fill-opacity:1;fill-rule:nonzero;stroke:none"
         id="path400" /><g
         id="g402"><g
           id="g404"
           clip-path="url(#clipPath408)"><path
             d="m 1705.14,1886.22 -13.13,117.56 c -2.33,18.94 -13.01,35.95 -29.25,46.55 l -40.78,26.65 -0.17,-1.01 v 0.92 l -33.65,13.02 -34.23,13.25 -28.34,10.98 -12.45,4.82 -31.2,-15.93 -31.17,15.93 -10.94,-4.24 -26.75,-10.34 -36.17,-14 -34.8,-13.49 v -0.54 l -39.82,-26.02 c -16.23,-10.6 -26.91,-27.61 -29.24,-46.55 l -13.13,-117.56 h 82.64 l 0.23,-97.8 h 278.34 l 0.23,97.8 h 83.78"
             style="fill:#f7b829;fill-opacity:1;fill-rule:nonzero;stroke:none"
             id="path410" /><path
             d="m 1483.26,2325.47 v 0 c -45.91,0 -83.12,-37.21 -83.12,-83.12 v -39.64 h 166.23 v 39.64 c 0,45.91 -37.21,83.12 -83.11,83.12"
             style="fill:#214a7c;fill-opacity:1;fill-rule:nonzero;stroke:none"
             id="path412" /><path
             d="m 1516.21,2140.79 v -29.11 c 0,0 -0.16,-0.86 -0.53,-2.32 -4.33,-17.14 -18.82,-50.33 -33.05,-49.99 -14.22,0.33 -28.18,34.17 -31.44,51.55 l -0.13,0.76 v 29.11 h 65.15"
             style="fill:#f79576;fill-opacity:1;fill-rule:nonzero;stroke:none"
             id="path414" /><path
             d="m 1516.21,2146.65 v -26.08 c -9.87,-5.34 -21.06,-8.22 -32.58,-8.22 -11.51,0 -22.7,2.88 -32.57,8.22 v 26.08 h 65.15"
             style="fill:#e5674e;fill-opacity:1;fill-rule:nonzero;stroke:none"
             id="path416" /><path
             d="m 1439.63,2202.35 c 0,11.14 -9.03,20.16 -20.16,20.16 -11.14,0 -20.16,-9.02 -20.16,-20.16 0,-11.14 9.02,-20.16 20.16,-20.16 11.13,0 20.16,9.02 20.16,20.16"
             style="fill:#f79576;fill-opacity:1;fill-rule:nonzero;stroke:none"
             id="path418" /><path
             d="m 1565.95,2202.35 c 0,11.14 -9.03,20.16 -20.16,20.16 -11.14,0 -20.16,-9.02 -20.16,-20.16 0,-11.14 9.02,-20.16 20.16,-20.16 11.13,0 20.16,9.02 20.16,20.16"
             style="fill:#f79576;fill-opacity:1;fill-rule:nonzero;stroke:none"
             id="path420" /><path
             d="m 1549.7,2236.55 c -23.84,13.31 -33.48,23.96 -33.48,23.96 h -65.44 c -5.26,-14.81 -32.67,-23.96 -32.67,-23.96 l -0.56,-32.67 c 0,-19 8.02,-42.11 20.87,-59.91 5.24,-7.21 12.06,-12.92 19.82,-16.82 7.79,-3.91 16.46,-6.01 25.38,-6.01 17.86,0 34.78,8.39 45.23,22.83 12.86,17.8 20.87,40.91 20.87,59.91 l -0.02,32.67"
             style="fill:#f79576;fill-opacity:1;fill-rule:nonzero;stroke:none"
             id="path422" /></g></g><path
         d="M 3363.92,1828.26 H 1923.25 c -40.27,0 -72.92,-32.64 -72.92,-72.92 V 1398.8 c 0,-40.26 32.65,-72.91 72.92,-72.91 h 1440.67 c 40.27,0 72.92,32.65 72.92,72.91 v 356.54 c 0,40.28 -32.65,72.92 -72.92,72.92"
         style="fill:#ffffff;fill-opacity:1;fill-rule:nonzero;stroke:none"
         id="path424" /><path
         d="m 2551.19,1660.67 9.77,-30.07 c 0.68,-2.1 2.63,-3.52 4.84,-3.52 h 31.63 c 4.93,0 6.98,-6.32 2.99,-9.22 l -25.58,-18.58 c -1.78,-1.3 -2.54,-3.61 -1.85,-5.71 l 9.77,-30.07 c 1.53,-4.69 -3.84,-8.6 -7.84,-5.7 l -25.58,18.6 c -1.79,1.29 -4.2,1.29 -5.99,0 l -25.59,-18.6 c -3.99,-2.9 -9.37,1.01 -7.84,5.7 l 9.78,30.07 c 0.68,2.1 -0.07,4.41 -1.86,5.71 l -25.58,18.58 c -3.99,2.9 -1.94,9.22 2.99,9.22 h 31.63 c 2.2,0 4.16,1.42 4.84,3.52 l 9.77,30.07 c 1.53,4.7 8.17,4.7 9.7,0"
         style="fill:#f7b829;fill-opacity:1;fill-rule:nonzero;stroke:none"
         id="path426" /><path
         d="m 2726.65,1660.67 9.78,-30.07 c 0.67,-2.1 2.63,-3.52 4.84,-3.52 h 31.62 c 4.94,0 6.99,-6.32 3,-9.22 l -25.59,-18.58 c -1.78,-1.3 -2.54,-3.61 -1.85,-5.71 l 9.77,-30.07 c 1.53,-4.69 -3.84,-8.6 -7.84,-5.7 l -25.59,18.6 c -1.78,1.29 -4.19,1.29 -5.98,0 l -25.59,-18.6 c -3.99,-2.9 -9.36,1.01 -7.84,5.7 l 9.78,30.07 c 0.68,2.1 -0.07,4.41 -1.86,5.71 l -25.59,18.58 c -3.98,2.9 -1.93,9.22 3,9.22 h 31.62 c 2.22,0 4.17,1.42 4.86,3.52 l 9.76,30.07 c 1.54,4.7 8.18,4.7 9.7,0"
         style="fill:#f7b829;fill-opacity:1;fill-rule:nonzero;stroke:none"
         id="path428" /><path
         d="m 2902.11,1660.67 9.77,-30.07 c 0.69,-2.1 2.64,-3.52 4.85,-3.52 h 31.62 c 4.94,0 6.99,-6.32 3,-9.22 l -25.59,-18.58 c -1.79,-1.3 -2.53,-3.61 -1.84,-5.71 l 9.76,-30.07 c 1.53,-4.69 -3.85,-8.6 -7.84,-5.7 l -25.59,18.6 c -1.77,1.29 -4.2,1.29 -5.98,0 l -25.59,-18.6 c -3.99,-2.9 -9.36,1.01 -7.84,5.7 l 9.78,30.07 c 0.68,2.1 -0.06,4.41 -1.85,5.71 l -25.59,18.58 c -3.99,2.9 -1.94,9.22 2.99,9.22 h 31.63 c 2.21,0 4.16,1.42 4.85,3.52 l 9.77,30.07 c 1.53,4.7 8.17,4.7 9.69,0"
         style="fill:#b4dedd;fill-opacity:1;fill-rule:nonzero;stroke:none"
         id="path430" /><path
         d="m 2896.45,1663.95 c -1.73,-0.29 -3.37,-1.25 -4.03,-3.28 l -9.77,-30.07 c -0.69,-2.09 -2.64,-3.52 -4.85,-3.52 h -31.63 c -4.93,0 -6.98,-6.32 -2.99,-9.22 l 25.59,-18.58 c 1.79,-1.3 2.53,-3.61 1.85,-5.71 l -9.78,-30.07 c -1.52,-4.69 3.85,-8.6 7.84,-5.7 l 25.59,18.6 2.18,0.7 v 86.85"
         style="fill:#f7b829;fill-opacity:1;fill-rule:nonzero;stroke:none"
         id="path432" /><path
         d="m 3077.57,1660.67 9.77,-30.07 c 0.69,-2.1 2.64,-3.52 4.85,-3.52 h 31.63 c 4.93,0 6.98,-6.32 2.99,-9.22 l -25.59,-18.58 c -1.78,-1.3 -2.53,-3.61 -1.84,-5.71 l 9.77,-30.07 c 1.52,-4.69 -3.85,-8.6 -7.84,-5.7 l -25.59,18.6 c -1.78,1.29 -4.21,1.29 -5.99,0 l -25.58,-18.6 c -3.99,-2.9 -9.37,1.01 -7.84,5.7 l 9.76,30.07 c 0.69,2.1 -0.05,4.41 -1.84,5.71 l -25.59,18.58 c -3.99,2.9 -1.94,9.22 3,9.22 h 31.62 c 2.21,0 4.16,1.42 4.85,3.52 l 9.77,30.07 c 1.52,4.7 8.16,4.7 9.69,0"
         style="fill:#b4dedd;fill-opacity:1;fill-rule:nonzero;stroke:none"
         id="path434" /><path
         d="m 3253.04,1660.67 9.76,-30.07 c 0.69,-2.1 2.65,-3.52 4.86,-3.52 h 31.62 c 4.93,0 6.98,-6.32 3,-9.22 l -25.59,-18.58 c -1.79,-1.3 -2.54,-3.61 -1.86,-5.71 l 9.78,-30.07 c 1.52,-4.69 -3.85,-8.6 -7.84,-5.7 l -25.59,18.6 c -1.79,1.29 -4.2,1.29 -5.98,0 l -25.59,-18.6 c -3.99,-2.9 -9.37,1.01 -7.84,5.7 l 9.77,30.07 c 0.69,2.1 -0.07,4.41 -1.85,5.71 l -25.59,18.58 c -3.99,2.9 -1.93,9.22 3,9.22 h 31.62 c 2.21,0 4.17,1.42 4.85,3.52 l 9.77,30.07 c 1.52,4.7 8.16,4.7 9.7,0"
         style="fill:#b4dedd;fill-opacity:1;fill-rule:nonzero;stroke:none"
         id="path436" /><path
         d="m 3000.39,1507.44 h -510.24 v -14.17 h 510.24 v 14.17"
         style="fill:#b4dedd;fill-opacity:1;fill-rule:nonzero;stroke:none"
         id="path438" /><path
         d="M 3000.39,1740.71 H 2490.15 V 1714 h 510.24 v 26.71"
         style="fill:#f03f54;fill-opacity:1;fill-rule:nonzero;stroke:none"
         id="path440" /><path
         d="m 3000.39,1453.5 h -510.24 v -14.17 h 510.24 v 14.17"
         style="fill:#b4dedd;fill-opacity:1;fill-rule:nonzero;stroke:none"
         id="path442" /><path
         d="m 2723.38,1403.41 h -233.23 v -14.17 h 233.23 v 14.17"
         style="fill:#b4dedd;fill-opacity:1;fill-rule:nonzero;stroke:none"
         id="path444" /><path
         d="m 2378.58,1575.14 c 0,112.51 -91.21,203.71 -203.71,203.71 -112.51,0 -203.71,-91.2 -203.71,-203.71 0,-112.51 91.2,-203.71 203.71,-203.71 112.5,0 203.71,91.2 203.71,203.71"
         style="fill:#8fc8ee;fill-opacity:1;fill-rule:nonzero;stroke:none"
         id="path446" /><g
         id="g448"><g
           id="g450"
           clip-path="url(#clipPath454)"><path
             d="m 2092.81,1618.81 c 0,0 -11.62,46.19 6.39,66.52 18.01,20.33 53.74,41.83 82.79,30.79 0,0 22.95,13.95 43.86,2.33 20.92,-11.62 51.13,-21.79 54.33,-7.84 0,0 1.74,-53.17 -22.08,-61.59 l -9.88,-40.96 h -152.5 l -2.91,10.75"
             style="fill:#214a7c;fill-opacity:1;fill-rule:nonzero;stroke:none"
             id="path456" /><path
             d="m 2335.09,1438.14 c -25.81,44.4 -135.07,68.92 -135.07,68.92 l -28.73,-11.02 -28.72,11.02 c 0,0 -109.26,-24.52 -135.07,-68.92 l -31.67,-239.24 50.25,0.78 29.42,199.75 c 0,0 18.58,-64.52 17.55,-102.2 -1.03,-37.68 -12.76,-99.96 -12.76,-99.96 h 108.07 5.86 108.08 c 0,0 -11.73,62.28 -12.76,99.96 -1.03,37.68 17.54,102.2 17.54,102.2 l 29.43,-199.75 50.24,-0.78 -31.66,239.24"
             style="fill:#214a7c;fill-opacity:1;fill-rule:nonzero;stroke:none"
             id="path458" /><path
             d="m 2205.1,1548.51 v -41.45 c 0,0 -5.79,-32.39 -33.06,-37.87 -28.43,7.46 -32.83,37.87 -32.83,37.87 v 41.45 h 65.89"
             style="fill:#f79576;fill-opacity:1;fill-rule:nonzero;stroke:none"
             id="path460" /><path
             d="m 2205.1,1554.42 v -26.37 c -9.98,-5.39 -21.3,-8.3 -32.94,-8.3 -11.65,0 -22.97,2.91 -32.95,8.3 v 26.37 h 65.89"
             style="fill:#e5674e;fill-opacity:1;fill-rule:nonzero;stroke:none"
             id="path462" /><path
             d="m 2238.98,1637.83 c -30.29,0.85 -50.12,24.3 -50.12,24.3 -18.45,-16.06 -83.11,-24.3 -83.11,-24.3 l -0.44,-25.52 c 0,-19.22 8.12,-42.59 21.11,-60.58 10.57,-14.63 27.69,-23.1 45.73,-23.1 18.06,0 35.17,8.47 45.74,23.1 12.99,17.99 21.11,41.36 21.11,60.58 l -0.02,25.52"
             style="fill:#f79576;fill-opacity:1;fill-rule:nonzero;stroke:none"
             id="path464" /><path
             d="m 2122.73,1609.22 c 0,-10.11 -8.19,-18.3 -18.3,-18.3 -10.11,0 -18.3,8.19 -18.3,18.3 0,10.11 8.19,18.3 18.3,18.3 10.11,0 18.3,-8.19 18.3,-18.3"
             style="fill:#f79576;fill-opacity:1;fill-rule:nonzero;stroke:none"
             id="path466" /><path
             d="m 2257.6,1609.22 c 0,-10.11 -8.2,-18.3 -18.3,-18.3 -10.11,0 -18.3,8.19 -18.3,18.3 0,10.11 8.19,18.3 18.3,18.3 10.1,0 18.3,-8.19 18.3,-18.3"
             style="fill:#f79576;fill-opacity:1;fill-rule:nonzero;stroke:none"
             id="path468" /></g></g><path
         d="m 3394.9,3893.96 c 0,164.89 -133.66,298.55 -298.53,298.55 -164.89,0 -298.55,-133.66 -298.55,-298.55 0,-164.87 133.66,-298.54 298.55,-298.54 164.87,0 298.53,133.67 298.53,298.54"
         style="fill:#f7b829;fill-opacity:1;fill-rule:nonzero;stroke:none"
         id="path470" /><path
         d="m 3096.37,4192.51 c -1.82,0 -3.61,-0.1 -5.41,-0.13 82.41,-48.61 137.73,-138.24 137.73,-240.84 0,-154.34 -125.13,-279.46 -279.47,-279.46 -20.36,0 -40.2,2.24 -59.33,6.37 53.63,-51.39 126.33,-83.03 206.48,-83.03 164.87,0 298.53,133.67 298.53,298.54 0,164.89 -133.66,298.55 -298.53,298.55"
         style="fill:#f89c2f;fill-opacity:1;fill-rule:nonzero;stroke:none"
         id="path472" /><path
         d="m 995.707,2949.5 c 62.503,0 65.813,93.05 3.438,97.03 l -1.778,0.1 0.031,1.16 c 0,66.52 -53.918,120.43 -120.429,120.43 -20.969,0 -40.68,-5.36 -57.848,-14.79 -21.094,39.26 -62.535,65.95 -110.215,65.95 -69.062,0 -125.051,-55.99 -125.051,-125.05 0,-3.71 0.192,-7.37 0.508,-11 -12.797,3.69 -26.3,5.7 -40.281,5.7 -50.387,0 -94.781,-25.59 -120.922,-64.47 -21.512,-31.99 2.172,-75.06 40.719,-75.06 h 531.828"
         style="fill:#8fc8ee;fill-opacity:1;fill-rule:nonzero;stroke:none"
         id="path474" /><path
         d="m 2916.1,3709.62 c 81.9,0 86.24,121.93 4.51,127.14 l -2.33,0.14 0.04,1.52 c 0,87.15 -70.65,157.8 -157.8,157.8 -27.47,0 -53.3,-7.04 -75.8,-19.38 -27.64,51.44 -81.94,86.41 -144.42,86.41 -90.49,0 -163.85,-73.36 -163.85,-163.85 0,-4.86 0.25,-9.65 0.67,-14.4 -16.77,4.81 -34.47,7.45 -52.79,7.45 -66.01,0 -124.19,-33.52 -158.44,-84.48 -28.18,-41.91 2.85,-98.35 53.35,-98.35 h 696.86"
         style="fill:#8fc8ee;fill-opacity:1;fill-rule:nonzero;stroke:none"
         id="path476" /><path
         d="m 3901.7,3422.6 c -75.26,0 -79.25,112.05 -4.14,116.84 l 2.14,0.12 -0.04,1.4 c 0,80.08 64.92,145.01 145.01,145.01 25.24,0 48.97,-6.47 69.65,-17.81 25.4,47.26 75.29,79.4 132.7,79.4 83.17,0 150.58,-67.41 150.58,-150.57 0,-4.46 -0.24,-8.87 -0.62,-13.23 15.41,4.43 31.67,6.85 48.51,6.85 60.66,0 114.12,-30.81 145.59,-77.63 25.9,-38.51 -2.61,-90.38 -49.02,-90.38 H 3901.7"
         style="fill:#8fc8ee;fill-opacity:1;fill-rule:nonzero;stroke:none"
         id="path478" /><path
         d="m 4166.83,1325.5 14.8,4.94 c 2.14,25.6 -8.85,68.69 -66.92,135.18 -107.46,123.06 -199.62,298.41 -176.35,366.8 0,0 -105.13,-158.26 -34.2,-262.7 66.57,-98.03 243.5,-119.08 262.67,-244.22"
         style="fill:#5e94d5;fill-opacity:1;fill-rule:nonzero;stroke:none"
         id="path480" /><path
         d="m 4172.85,1327.51 8.79,2.93 c 2.15,25.59 -8.86,68.68 -66.93,135.18 -107.46,123.06 -199.62,298.41 -176.35,366.8 0,0 -55.67,-145.42 16.53,-242.78 71.29,-96.12 198.45,-116.11 217.96,-262.13"
         style="fill:#3468bb;fill-opacity:1;fill-rule:nonzero;stroke:none"
         id="path482" /><path
         d="m 4209.86,1430.66 c -5.74,-26.06 -13.23,-46.36 -20.04,-61.31 l 6.84,-1.19 c 31.5,42.46 83.19,126.52 94.66,233.15 16.74,155.84 39.37,350.92 39.37,350.92 0,0 -158.64,-130.9 -123.12,-312.79 17.7,-90.69 13.08,-159.76 2.29,-208.78"
         style="fill:#5e94d5;fill-opacity:1;fill-rule:nonzero;stroke:none"
         id="path484" /><path
         d="m 4265.67,1713.84 c -8.67,-130.05 -33.2,-273.09 -65,-329.89 4.63,3.55 9.55,7.27 14.59,11.05 30.2,46.59 66.66,118.86 76.06,206.31 16.74,155.84 39.37,350.92 39.37,350.92 0,0 -53.74,-69.14 -65.02,-238.39"
         style="fill:#3468bb;fill-opacity:1;fill-rule:nonzero;stroke:none"
         id="path486" /><path
         d="m 4238.29,1370.19 c -13.51,-15.43 -26.06,-26.34 -36.19,-33.9 l 4.17,-3.32 c 36.94,16.98 102.87,54.51 150.05,122.08 68.93,98.75 156.36,221.74 156.36,221.74 0,0 -155.34,-29.66 -198.7,-165.2 -21.62,-67.59 -50.28,-112.39 -75.69,-141.4"
         style="fill:#5e94d5;fill-opacity:1;fill-rule:nonzero;stroke:none"
         id="path488" /><path
         d="m 4380.66,1540.25 c -53.95,-84.35 -123.4,-171.61 -165.85,-198.13 4.44,0.68 9.14,1.38 13.93,2.06 37.59,20.24 88.9,55.47 127.58,110.87 68.93,98.75 156.36,221.74 156.36,221.74 0,0 -61.79,-26.74 -132.02,-136.54"
         style="fill:#3468bb;fill-opacity:1;fill-rule:nonzero;stroke:none"
         id="path490" /><path
         d="m 4178.81,1374.99 c 9.73,-27.74 16.87,-46.81 21.06,-60.01 l 5.61,1.28 c -9.12,48.74 -24.91,132.91 -39.8,188.16 -21.91,81.37 -4.84,120.86 -22.48,262.48 -17.63,141.63 -101.6,328.61 -101.6,328.61 0,0 -54.24,-197.36 23.29,-385.56 77.52,-188.21 70.98,-212.66 113.92,-334.96"
         style="fill:#5e94d5;fill-opacity:1;fill-rule:nonzero;stroke:none"
         id="path492" /><path
         d="m 4200.22,1315.06 1.07,0.24 0.63,19.91 c -9.34,49.58 -23.14,120.6 -36.24,169.21 -21.91,81.37 -4.84,120.86 -22.48,262.48 -17.63,141.63 -101.6,328.61 -101.6,328.61 0,0 26.38,-281.25 64.86,-404.18 35.6,-113.75 86.37,-342.68 93.76,-376.27"
         style="fill:#3468bb;fill-opacity:1;fill-rule:nonzero;stroke:none"
         id="path494" /><path
         d="m 4039.76,1343.52 33.99,-201.16 c 3.16,-18.75 19.4,-32.47 38.42,-32.47 h 196.51 c 19.02,0 35.26,13.72 38.42,32.47 l 33.99,201.16 c 3.08,18.19 -10.93,34.77 -29.38,34.77 h -282.57 c -18.44,0 -32.46,-16.58 -29.38,-34.77"
         style="fill:#ffffff;fill-opacity:1;fill-rule:nonzero;stroke:none"
         id="path496" /><path
         d="m 4380.89,1353.68 -0.01,0.06 c -0.34,1.9 -0.85,3.73 -1.54,5.5 l -0.15,0.37 c -0.67,1.64 -1.45,3.19 -2.38,4.68 l -0.57,0.83 c -0.87,1.29 -1.8,2.52 -2.87,3.66 l -1.29,1.23 c -0.96,0.92 -1.92,1.82 -3,2.59 l -2.28,1.41 c -0.94,0.55 -1.84,1.15 -2.84,1.6 -1.12,0.51 -2.33,0.85 -3.53,1.23 l -2.3,0.73 c -2.07,0.46 -4.2,0.72 -6.42,0.72 h -89.46 -193.11 c -17.01,0 -30.09,-14.15 -29.62,-30.61 h 252.35 c -0.04,-1.39 0,-2.76 -0.24,-4.16 l -33.99,-201.16 c -3.17,-18.75 -19.41,-32.47 -38.43,-32.47 h 89.47 c 19.02,0 35.26,13.72 38.42,32.47 l 33.99,201.16 c 0.6,3.5 0.38,6.89 -0.2,10.16"
         style="fill:#d0f0fc;fill-opacity:1;fill-rule:nonzero;stroke:none"
         id="path498" /><path
         d="m 1444.67,2810.55 h -443.71 c -31.823,0 -57.62,-25.8 -57.62,-57.63 v -233.46 -115.12 l 112.84,102.22 c 9.17,8.3 21.11,12.9 33.48,12.9 h 355.01 c 21.85,0 39.56,17.72 39.56,39.56 v 211.96 c 0,21.85 -17.71,39.57 -39.56,39.57"
         style="fill:#214a7c;fill-opacity:1;fill-rule:nonzero;stroke:none"
         id="path500" /><path
         d="m 1292.73,2721.12 c -19.2,19.19 -50.31,19.19 -69.49,0 l -6.53,-6.53 -6.54,6.53 c -9.59,9.6 -22.19,14.38 -34.76,14.38 -12.57,0 -25.14,-4.78 -34.73,-14.38 -19.21,-19.18 -19.21,-50.3 0,-69.49 l 6.53,-6.53 69.5,-69.5 69.49,69.5 6.53,6.53 c 9.59,9.59 14.38,22.16 14.38,34.73 0,12.6 -4.79,25.17 -14.38,34.76"
         style="fill:#f03f54;fill-opacity:1;fill-rule:nonzero;stroke:none"
         id="path502" /><path
         d="m 4082.95,3280.98 h -446.3 c -32.01,0 -57.96,-25.95 -57.96,-57.95 V 2988.2 2872.4 l 113.51,102.82 c 9.22,8.35 21.22,12.98 33.66,12.98 h 357.09 c 21.97,0 39.78,17.82 39.78,39.8 v 213.19 c 0,21.98 -17.81,39.79 -39.78,39.79"
         style="fill:#214a7c;fill-opacity:1;fill-rule:nonzero;stroke:none"
         id="path504" /><path
         d="m 3977.36,3121.75 c 7.98,0.63 14.26,7.29 14.26,15.42 0,8.56 -6.93,15.49 -15.49,15.49 h -30.25 c -1.51,0.23 -3.06,0.34 -4.64,0.33 -16.45,-0.17 -17.28,-0.08 -23.51,1.25 -13.17,2.84 2.35,18.86 -5.87,48.28 -8.23,29.43 -36.85,27.68 -35.48,13.96 1.36,-13.71 2.96,-46.45 -4.66,-56.79 -17.25,-23.42 -45.25,-25.54 -45.25,-25.54 l -0.55,-77.91 30.6,-0.23 c 13.77,-15.66 39.78,-19.14 42.51,-19.46 v -0.28 h 34.41 l 1.7,-0.01 0.69,0.01 h 21.49 c 7.84,0 14.18,6.35 14.18,14.18 0,4.48 -2.08,8.46 -5.32,11.06 8.08,0.52 14.48,7.22 14.48,15.43 0,6.89 -4.49,12.71 -10.7,14.73 h 2.27 c 8.55,0 15.48,6.93 15.48,15.48 0,6.76 -4.32,12.48 -10.35,14.6"
         style="fill:#5e94d5;fill-opacity:1;fill-rule:nonzero;stroke:none"
         id="path506" /><path
         d="m 3740.27,3041.6 52.45,-0.06 0.66,113.8 -52.45,0.06 -0.66,-113.8"
         style="fill:#5e94d5;fill-opacity:1;fill-rule:nonzero;stroke:none"
         id="path508" /><path
         d="m 3063.85,2008.33 c -12.44,21.75 -19.4,47.04 -18.97,73.99 1.26,79.26 67.72,143.48 146.98,142.14 81.66,-1.36 146.83,-70.48 141.75,-153.57 -4.37,-71.7 -62.25,-130.08 -133.92,-135.08 -21.7,-1.51 -42.44,1.8 -61.32,8.93 -9.13,3.45 -19.14,3.8 -28.5,0.98 l -56.23,-16.99 13.74,45.48 c 3.44,11.39 2.38,23.8 -3.53,34.12"
         style="fill:#214a7c;fill-opacity:1;fill-rule:nonzero;stroke:none"
         id="path510" /><path
         d="m 3186.24,2158.04 -14.87,-45.79 c -0.84,-2.58 -3.24,-4.32 -5.95,-4.32 h -48.14 c -6.06,0 -8.58,-7.75 -3.69,-11.31 l 38.96,-28.3 c 2.19,-1.59 3.1,-4.41 2.27,-6.99 l -14.88,-45.79 c -1.87,-5.76 4.72,-10.55 9.62,-7 l 38.96,28.31 c 2.18,1.59 5.15,1.59 7.34,0 l 38.95,-28.31 c 4.91,-3.55 11.5,1.24 9.62,7 l -14.87,45.79 c -0.84,2.58 0.08,5.4 2.27,6.99 l 38.95,28.3 c 4.9,3.56 2.38,11.31 -3.67,11.31 h -48.15 c -2.71,0 -5.11,1.74 -5.95,4.32 l -14.88,45.79 c -1.87,5.76 -10.01,5.76 -11.89,0"
         style="fill:#f7b829;fill-opacity:1;fill-rule:nonzero;stroke:none"
         id="path512" /><path
         d="m 2601.04,345.34 c -4.32,-4.418 -8.03,-9.301 -11.09,-14.531 l -4.65,2.41 c -0.66,2.98 -3.48,5.031 -6.58,4.672 -3.31,-0.391 -5.68,-3.391 -5.29,-6.7 0.39,-3.312 3.39,-5.679 6.7,-5.293 l 1.83,0.532 4.51,-2.348 c -2.51,-5.543 -4.32,-11.383 -5.39,-17.441 l 7.46,-1.309 c 2.31,13.059 8.5,25.059 17.92,34.719 l -5.42,5.289"
         style="fill:#1e2328;fill-opacity:1;fill-rule:nonzero;stroke:none"
         id="path514" /><path
         d="m 2655.92,368.371 c -1.71,0 -3.41,-0.07 -5.1,-0.18 l -0.73,6.258 c 1.87,1.5 2.96,3.903 2.65,6.449 -0.46,3.934 -4.02,6.754 -7.95,6.293 -3.93,-0.472 -6.74,-4.031 -6.28,-7.961 0.3,-2.539 1.89,-4.609 4.05,-5.64 l 0.73,-6.238 c -7.14,-1.161 -14.03,-3.321 -20.59,-6.461 l 3.27,-6.84 c 9.33,4.48 19.41,6.73 29.95,6.73 4.96,0 9.93,-0.531 14.74,-1.57 l 1.62,7.41 c -5.36,1.149 -10.85,1.75 -16.36,1.75"
         style="fill:#1e2328;fill-opacity:1;fill-rule:nonzero;stroke:none"
         id="path516" /><path
         d="m 2721.94,342.891 c 3.31,0.41 5.67,3.418 5.26,6.73 -0.41,3.309 -3.42,5.649 -6.72,5.25 -3.1,-0.379 -5.36,-3.031 -5.3,-6.082 l -4.16,-3.629 c -4.18,4.289 -8.9,8.121 -14.09,11.379 l -4.03,-6.398 c 11.34,-7.149 20.21,-17.27 25.64,-29.262 l 6.9,3.121 c -2.51,5.551 -5.67,10.73 -9.42,15.449 l 4.02,3.52 1.9,-0.078"
         style="fill:#1e2328;fill-opacity:1;fill-rule:nonzero;stroke:none"
         id="path518" /><path
         d="m 2650.44,266.281 c -3.86,-0.242 -7.74,-0.34 -11.57,-0.34 -8.8,0 -17.33,0.598 -24.78,1.778 -3.9,0.633 -8.46,1.562 -12.7,2.922 10.46,-18.602 30.69,-31.25 53.87,-31.25 28.56,0 52.63,19.16 59.51,45.039 -6.82,-4.489 -15.06,-8.25 -24.59,-11.231 -11.79,-3.668 -25.54,-6.058 -39.74,-6.918"
         style="fill:#1e2328;fill-opacity:1;fill-rule:nonzero;stroke:none"
         id="path520" /><path
         d="m 2681.7,297.141 c -7.5,0 -13.6,6.101 -13.6,13.601 0,7.5 6.1,13.61 13.6,13.61 7.5,0 13.6,-6.11 13.6,-13.61 0,-7.5 -6.1,-13.601 -13.6,-13.601 z m -47.37,-9.082 c -10.21,0 -18.5,8.3 -18.5,18.492 0,10.211 8.29,18.5 18.5,18.5 10.19,0 18.49,-8.289 18.49,-18.5 0,-10.192 -8.3,-18.492 -18.49,-18.492 z m 21.59,65.14 c -33.53,0 -60.8,-26.66 -60.8,-59.429 0,-4.258 0.47,-8.489 1.37,-12.622 6.74,-4.816 27.06,-8.886 53.48,-7.296 28.79,1.73 52.97,9.57 66.72,21.578 -0.06,1.949 -0.21,3.91 -0.45,5.82 -3.81,29.621 -29.74,51.949 -60.32,51.949"
         style="fill:#1e2328;fill-opacity:1;fill-rule:nonzero;stroke:none"
         id="path522" /><path
         d="m 2815.95,334.531 c -2.94,1.16 -8.05,3.09 -13.82,2.367 -5.51,-0.679 -8.44,-3.386 -8.44,-10.058 v -8.66 h 22.28 v -17.168 h -22.28 v -54.551 h -19.31 v 54.551 h -13.4 v 17.168 h 13.4 v 8.879 c 0,16.812 8.95,27.832 25.68,27.832 6.42,0 11.57,-1.219 15.9,-3.082 l -0.01,-17.278"
         style="fill:#1e2328;fill-opacity:1;fill-rule:nonzero;stroke:none"
         id="path524" /><path
         d="m 2862.98,301.211 c -1.77,0.301 -3.58,0.469 -5.27,0.469 -8.95,0 -15.09,-5.481 -15.09,-16.141 v -39.078 h -19.32 v 71.719 h 18.72 v -7.848 c 4.52,6.738 11.41,9.777 20.22,9.777 4.14,0 8.47,-1.277 10.93,-3.367 l -10.19,-15.531"
         style="fill:#1e2328;fill-opacity:1;fill-rule:nonzero;stroke:none"
         id="path526" /><path
         d="m 2888.51,289.09 h 31.74 c -1.76,9.18 -7.32,14.359 -15.61,14.359 -9.1,0 -14.43,-5.469 -16.13,-14.359 z m 51.14,-6.66 c 0,-2.219 -0.15,-4.879 -0.37,-6.508 h -50.84 c 2.07,-10.363 9.32,-14.883 18.43,-14.883 6.21,0 12.94,2.512 18.12,6.883 l 11.33,-12.43 c -8.15,-7.472 -18.51,-10.883 -30.57,-10.883 -21.98,0 -37.22,14.95 -37.22,37.532 0,22.57 14.8,37.968 36.26,37.968 20.65,0 34.79,-15.32 34.86,-37.679"
         style="fill:#1e2328;fill-opacity:1;fill-rule:nonzero;stroke:none"
         id="path528" /><path
         d="m 2965.04,289.09 h 31.75 c -1.77,9.18 -7.33,14.359 -15.62,14.359 -9.1,0 -14.43,-5.469 -16.13,-14.359 z m 51.14,-6.66 c 0,-2.219 -0.14,-4.879 -0.37,-6.508 h -50.84 c 2.07,-10.363 9.32,-14.883 18.43,-14.883 6.21,0 12.95,2.512 18.13,6.883 l 11.32,-12.43 c -8.14,-7.472 -18.5,-10.883 -30.56,-10.883 -21.99,0 -37.23,14.95 -37.23,37.532 0,22.57 14.8,37.968 36.26,37.968 20.65,0 34.79,-15.32 34.86,-37.679"
         style="fill:#1e2328;fill-opacity:1;fill-rule:nonzero;stroke:none"
         id="path530" /><path
         d="m 3042.87,282.352 c 0,-11.313 7.47,-19.75 18.43,-19.75 11.4,0 18.5,8.808 18.5,19.75 0,10.957 -7.1,19.769 -18.5,19.769 -10.96,0 -18.43,-8.441 -18.43,-19.769 z m 56.77,0 c 0,-21.532 -14.95,-37.743 -34.71,-37.743 -9.63,0 -16.43,3.782 -21.09,9.332 v -37.082 h -19.25 V 318.18 h 18.88 v -7.918 c 4.66,5.84 11.54,9.847 21.38,9.847 19.84,0 34.79,-16.207 34.79,-37.757"
         style="fill:#1e2328;fill-opacity:1;fill-rule:nonzero;stroke:none"
         id="path532" /><path
         d="m 3128.09,246.461 h -19.32 v 71.719 h 19.32 z m 2.58,95.18 c 0,-6.95 -5.4,-12.282 -12.36,-12.282 -6.95,0 -12.28,5.332 -12.28,12.282 0,6.961 5.33,12.429 12.28,12.429 6.96,0 12.36,-5.468 12.36,-12.429"
         style="fill:#1e2328;fill-opacity:1;fill-rule:nonzero;stroke:none"
         id="path534" /><path
         d="m 3160.32,292.652 27.01,25.528 h 23.7 l -34.8,-33.75 35.01,-37.969 h -23.76 l -27.16,29.019 v -29.019 h -19.31 v 106.578 h 19.31 v -60.387"
         style="fill:#1e2328;fill-opacity:1;fill-rule:nonzero;stroke:none"
         id="path536" /><path
         d="m 1844.13,266.301 v 32.078 c -3.96,6.152 -12.46,11.422 -21.24,11.422 -14.21,0 -22.71,-11.711 -22.71,-27.391 0,-15.668 8.5,-27.238 22.71,-27.238 8.78,0 17.28,4.98 21.24,11.129 z m 0,-19.192 v 10.551 c -5.28,-7.18 -13.92,-12.308 -23.88,-12.308 -18.46,0 -31.5,14.058 -31.5,37.058 0,22.559 12.9,37.211 31.5,37.211 9.52,0 18.16,-4.691 23.88,-12.449 v 37.637 h 10.98 v -97.7 h -10.98"
         style="fill:#1e2328;fill-opacity:1;fill-rule:nonzero;stroke:none"
         id="path538" /><path
         d="m 1904.03,310.539 c -15.08,0 -22.56,-12.75 -23.14,-23.59 h 46.43 c -0.14,10.551 -7.17,23.59 -23.29,23.59 z m -34.71,-27.98 c 0,20.511 14.64,37.062 34.86,37.062 21.39,0 33.98,-16.699 33.98,-37.941 v -2.778 h -57.27 c 0.88,-13.332 10.25,-24.472 25.49,-24.472 8.05,0 16.26,3.23 21.82,8.941 l 5.28,-7.18 c -7.03,-7.031 -16.56,-10.839 -28.13,-10.839 -20.95,0 -36.03,15.089 -36.03,37.207"
         style="fill:#1e2328;fill-opacity:1;fill-rule:nonzero;stroke:none"
         id="path540" /><path
         d="m 1946.07,256.48 5.71,7.911 c 4.69,-5.422 13.63,-10.102 23.29,-10.102 10.84,0 16.7,5.121 16.7,12.16 0,17.133 -43.8,6.59 -43.8,32.813 0,10.976 9.53,20.359 26.37,20.359 12.01,0 20.51,-4.539 26.22,-10.25 l -5.13,-7.621 c -4.24,5.121 -12.01,8.93 -21.09,8.93 -9.67,0 -15.67,-4.828 -15.67,-11.129 0,-15.531 43.79,-5.27 43.79,-32.809 0,-11.871 -9.52,-21.39 -27.83,-21.39 -11.57,0 -21.38,3.519 -28.56,11.128"
         style="fill:#1e2328;fill-opacity:1;fill-rule:nonzero;stroke:none"
         id="path542" /><path
         d="m 2016.67,247.109 v 70.75 h 10.99 v -70.75 z m -1.9,88.18 c 0,4.102 3.37,7.473 7.32,7.473 4.11,0 7.47,-3.371 7.47,-7.473 0,-4.098 -3.36,-7.32 -7.47,-7.32 -3.95,0 -7.32,3.222 -7.32,7.32"
         style="fill:#1e2328;fill-opacity:1;fill-rule:nonzero;stroke:none"
         id="path544" /><path
         d="m 2097.08,267.469 v 30.91 c -3.8,6.152 -12.3,11.422 -21.08,11.422 -14.22,0 -22.71,-11.27 -22.71,-26.949 0,-15.532 8.49,-26.954 22.71,-26.954 8.78,0 17.28,5.422 21.08,11.571 z m -51.26,-38.52 5.57,8.199 c 5.86,-7.027 12.89,-9.668 22.99,-9.668 11.72,0 22.7,5.711 22.7,21.239 v 10.113 c -5.12,-7.184 -13.76,-12.602 -23.73,-12.602 -18.45,0 -31.48,13.77 -31.48,36.622 0,22.707 12.88,36.769 31.48,36.769 9.53,0 18.03,-4.691 23.73,-12.449 v 10.687 h 10.99 V 249.16 c 0,-23.441 -16.4,-30.762 -33.69,-30.762 -12.01,0 -20.21,2.344 -28.56,10.551"
         style="fill:#1e2328;fill-opacity:1;fill-rule:nonzero;stroke:none"
         id="path546" /><path
         d="m 2174.13,247.109 v 46.289 c 0,12.454 -6.29,16.403 -15.81,16.403 -8.65,0 -16.86,-5.27 -20.95,-10.981 v -51.711 h -10.99 v 70.75 h 10.99 v -10.25 c 4.98,5.86 14.64,12.012 25.19,12.012 14.79,0 22.56,-7.473 22.56,-22.851 v -49.661 h -10.99"
         style="fill:#1e2328;fill-opacity:1;fill-rule:nonzero;stroke:none"
         id="path548" /><path
         d="m 2234.04,310.539 c -15.08,0 -22.56,-12.75 -23.14,-23.59 h 46.43 c -0.15,10.551 -7.18,23.59 -23.29,23.59 z m -34.71,-27.98 c 0,20.511 14.64,37.062 34.86,37.062 21.38,0 33.98,-16.699 33.98,-37.941 v -2.778 h -57.27 c 0.88,-13.332 10.25,-24.472 25.49,-24.472 8.05,0 16.25,3.23 21.82,8.941 l 5.28,-7.18 c -7.03,-7.031 -16.56,-10.839 -28.13,-10.839 -20.95,0 -36.03,15.089 -36.03,37.207"
         style="fill:#1e2328;fill-opacity:1;fill-rule:nonzero;stroke:none"
         id="path550" /><path
         d="m 2333.5,266.301 v 32.078 c -3.96,6.152 -12.45,11.422 -21.24,11.422 -14.21,0 -22.7,-11.711 -22.7,-27.391 0,-15.668 8.49,-27.238 22.7,-27.238 8.79,0 17.28,4.98 21.24,11.129 z m 0,-19.192 v 10.551 c -5.27,-7.18 -13.92,-12.308 -23.88,-12.308 -18.45,0 -31.49,14.058 -31.49,37.058 0,22.559 12.89,37.211 31.49,37.211 9.52,0 18.17,-4.691 23.88,-12.449 v 37.637 h 10.99 v -97.7 h -10.99"
         style="fill:#1e2328;fill-opacity:1;fill-rule:nonzero;stroke:none"
         id="path552" /><path
         d="m 2429,255.172 c 14.35,0 22.85,11.57 22.85,27.238 0,15.68 -8.5,27.391 -22.85,27.391 -8.64,0 -17.29,-5.27 -21.09,-11.422 v -32.078 c 3.8,-6.149 12.45,-11.129 21.09,-11.129 z m -32.08,-8.063 v 97.7 h 10.99 v -37.637 c 5.71,7.758 14.2,12.449 23.87,12.449 18.46,0 31.5,-14.652 31.5,-37.211 0,-23 -13.04,-37.058 -31.5,-37.058 -9.96,0 -18.6,5.128 -23.87,12.308 v -10.551 h -10.99"
         style="fill:#1e2328;fill-opacity:1;fill-rule:nonzero;stroke:none"
         id="path554" /><path
         d="m 2475.28,229.379 c 1.61,-0.731 4.26,-1.168 6.01,-1.168 4.83,0 8.06,1.609 10.55,7.469 l 4.69,10.699 -29.6,71.48 h 11.87 l 23.58,-58.007 23.44,58.007 h 12.01 l -35.45,-85.109 c -4.25,-10.25 -11.42,-14.211 -20.8,-14.352 -2.34,0 -6,0.442 -8.05,1.024 l 1.75,9.957"
         style="fill:#1e2328;fill-opacity:1;fill-rule:nonzero;stroke:none"
         id="path556" /></g></g></svg>
