<?xml version="1.0" standalone="no"?>
<!DOCTYPE svg PUBLIC "-//W3C//DTD SVG 20010904//EN"
 "http://www.w3.org/TR/2001/REC-SVG-20010904/DTD/svg10.dtd">
<svg version="1.0" xmlns="http://www.w3.org/2000/svg"
 width="732.000000pt" height="415.000000pt" viewBox="0 0 732.000000 415.000000"
 preserveAspectRatio="xMidYMid meet">
<metadata>
Created by potrace 1.16, written by Peter Selinger 2001-2019
</metadata>
<g transform="translate(0.000000,415.000000) scale(0.100000,-0.100000)"
fill="#000000" stroke="none">
<path d="M0 3955 l0 -194 38 6 c20 3 42 9 47 13 6 4 30 11 55 15 81 13 99 36
60 75 -22 22 -26 40 -9 40 14 0 69 56 69 70 0 5 -4 10 -10 10 -5 0 -10 8 -10
18 0 26 -23 72 -35 70 -5 -1 -25 6 -44 16 -19 10 -63 27 -98 37 l-63 18 0
-194z"/>
<path d="M789 3879 c-8 -5 -30 -8 -49 -8 -58 1 -213 -29 -221 -43 -5 -7 -14
-13 -21 -14 -23 -2 -73 -17 -84 -25 -17 -14 -4 -81 17 -86 11 -3 19 -13 19
-22 0 -9 12 -27 25 -40 14 -13 25 -29 25 -37 0 -8 7 -14 16 -14 10 0 14 -6 11
-15 -4 -8 -1 -17 4 -21 6 -3 9 -15 6 -25 -3 -10 -1 -19 4 -21 5 -2 17 -26 28
-55 14 -39 17 -62 11 -88 -4 -20 -7 -47 -5 -61 2 -17 -6 -30 -27 -45 -24 -18
-45 -21 -143 -22 -63 -1 -115 -5 -115 -8 0 -3 -17 -5 -37 -5 -21 1 -44 -2 -51
-7 -8 -7 -19 -4 -31 7 -13 12 -21 14 -26 6 -4 -7 -32 -10 -73 -8 l-67 3 -3
-453 -2 -454 49 36 c27 20 54 36 60 36 6 0 11 3 11 8 0 4 8 12 18 17 23 13 84
52 222 143 61 39 114 72 117 72 3 0 20 11 37 23 17 13 58 39 91 57 33 18 63
39 68 46 4 7 21 15 37 19 17 4 30 10 30 15 0 5 10 12 23 16 12 4 24 10 27 13
3 4 23 16 45 27 71 36 110 59 113 67 2 4 9 7 17 7 7 0 18 7 25 15 7 8 21 15
31 15 11 0 19 3 19 8 0 15 224 137 306 167 27 9 60 22 73 29 34 16 300 14 381
-2 66 -14 202 -61 253 -87 16 -8 35 -15 42 -15 8 0 20 -6 27 -12 18 -17 74
-44 123 -59 22 -7 49 -18 60 -25 11 -7 39 -17 63 -24 25 -6 42 -17 42 -25 0
-8 9 -15 20 -15 11 0 20 -4 20 -10 0 -5 7 -10 15 -10 20 0 155 -60 177 -78 10
-8 24 -12 32 -9 10 4 13 1 9 -9 -12 -31 16 -8 139 116 70 71 137 135 147 142
10 7 37 30 61 52 l43 38 0 114 c0 83 -3 118 -13 127 -10 10 -12 9 -7 -5 5 -14
2 -16 -18 -8 -16 6 -25 5 -29 -3 -5 -9 -7 -9 -12 1 -3 6 -10 12 -15 12 -6 0
-7 -4 -4 -10 3 -6 -6 -11 -22 -12 -97 -5 -195 -4 -238 3 -27 5 -99 16 -160 24
-60 9 -152 25 -205 36 -52 11 -117 25 -145 30 -44 8 -182 48 -240 69 -11 4
-47 15 -80 25 -33 9 -68 21 -78 26 -9 5 -39 16 -65 25 -56 18 -88 32 -122 55
-14 9 -38 19 -54 23 -16 4 -62 23 -101 42 -40 19 -78 34 -84 34 -6 0 -11 5
-11 10 0 6 -10 10 -22 10 -12 0 -29 6 -37 13 -9 7 -41 21 -71 31 -30 10 -64
21 -75 26 -11 5 -36 11 -55 15 -109 20 -151 26 -201 30 -31 3 -68 9 -81 14
-15 5 -31 6 -39 0z"/>
<path d="M7260 3749 c-30 -4 -84 -15 -120 -23 -36 -9 -88 -16 -117 -16 -28 0
-55 -4 -58 -10 -3 -5 -40 -9 -81 -9 -45 0 -81 -4 -90 -12 -11 -9 -18 -9 -26
-1 -6 6 -24 9 -42 6 -151 -19 -210 -25 -266 -29 -36 -2 -114 -11 -175 -21 -60
-9 -139 -17 -176 -18 -36 -2 -71 -6 -77 -10 -7 -4 -20 -2 -29 6 -14 11 -16 11
-11 -4 6 -14 2 -15 -28 -7 -22 7 -40 6 -53 -1 -11 -5 -41 -10 -68 -10 -26 0
-100 -7 -163 -15 -63 -9 -146 -18 -185 -20 -38 -3 -128 -12 -200 -21 -71 -9
-156 -17 -187 -16 -32 0 -58 -5 -58 -10 0 -5 -13 -7 -30 -3 -20 4 -30 3 -30
-5 0 -8 -8 -10 -21 -7 -22 6 -353 -18 -367 -27 -5 -3 -73 -7 -153 -10 -149 -6
-294 -13 -389 -21 -34 -2 -49 -1 -40 5 8 5 12 11 9 14 -2 3 -26 -8 -52 -25
-52 -32 -50 -22 -47 -184 1 -94 9 -110 87 -168 31 -23 74 -58 96 -77 24 -21
38 -28 34 -18 -7 18 5 32 17 20 5 -4 27 -7 49 -8 23 0 83 -6 132 -12 50 -7
117 -12 151 -12 33 0 64 -3 68 -7 4 -5 26 -9 49 -9 57 -2 347 -36 462 -54 39
-6 114 -17 167 -25 102 -14 189 -30 248 -46 19 -5 71 -13 115 -19 44 -6 107
-17 140 -24 193 -44 458 -78 710 -92 28 -1 50 -3 50 -4 0 -1 24 -3 53 -4 53
-4 140 -15 312 -41 126 -20 320 -45 392 -51 l58 -4 0 585 c0 322 -1 584 -2
584 -2 -1 -28 -5 -58 -10z"/>
<path d="M3024 3421 c7 -11 91 -41 120 -42 17 -1 18 -2 4 -6 -17 -4 -26 -24
-10 -22 32 5 47 -26 17 -37 -8 -4 -15 -12 -15 -20 0 -21 -16 -17 -28 9 -10 20
-11 19 -11 -15 -1 -20 3 -38 7 -40 5 -1 18 -31 30 -65 20 -61 20 -62 1 -99
-10 -21 -22 -40 -27 -43 -8 -7 -32 -57 -32 -70 0 -4 24 15 53 44 49 47 54 56
55 98 1 29 13 68 31 104 22 43 27 60 18 66 -8 6 -4 7 11 4 24 -6 28 3 10 21
-15 15 -32 16 -23 2 3 -6 -1 -13 -9 -16 -9 -3 -13 -10 -10 -15 3 -5 1 -9 -4
-9 -11 0 -24 33 -27 68 l-2 23 96 -8 c207 -17 501 2 470 31 -2 2 -64 -3 -137
-12 -123 -14 -145 -14 -270 2 -119 14 -217 31 -300 51 -14 3 -21 2 -18 -4z"/>
<path d="M4285 2839 c39 -41 79 -92 90 -114 17 -35 20 -37 23 -17 2 12 10 22
18 22 8 0 39 14 69 31 50 28 62 31 125 27 107 -6 143 -52 120 -154 -25 -108
-9 -149 54 -137 42 7 110 27 176 52 92 35 187 22 224 -30 20 -29 21 -73 2 -88
-8 -7 -18 -25 -21 -41 -6 -27 -74 -100 -95 -100 -5 0 -10 -7 -10 -15 0 -8 -9
-15 -20 -15 -11 0 -20 -4 -20 -10 0 -14 1 -14 77 22 68 32 143 92 143 114 0 6
7 25 15 40 20 38 18 59 -8 120 -40 93 -105 166 -202 229 -69 44 -208 96 -310
115 -104 20 -455 18 -455 -3 0 -4 -15 0 -32 9 -27 14 -20 4 37 -57z"/>
<path d="M4465 2112 c-8 -9 -5 -286 4 -300 9 -15 58 -7 76 12 18 19 55 87 55
101 0 8 -11 22 -25 31 -14 9 -25 22 -25 30 0 15 64 83 95 100 11 7 16 15 12
20 -9 9 -183 15 -192 6z"/>
<path d="M4230 1692 l-35 -17 0 -80 0 -79 -40 -8 c-22 -5 -52 -13 -67 -19 -26
-11 -27 -13 -25 -85 1 -41 5 -74 8 -74 3 0 28 7 55 15 75 23 74 24 74 -61 0
-42 3 -74 8 -72 4 2 24 12 45 23 l37 19 0 80 c1 80 1 81 33 101 30 19 32 24
35 88 3 70 -1 76 -32 52 -11 -8 -23 -15 -28 -15 -4 0 -8 34 -8 75 0 83 -3 86
-60 57z"/>
<path d="M2840 1534 c0 -22 5 -104 10 -184 6 -80 11 -162 12 -183 1 -20 8 -43
15 -49 13 -10 14 5 7 106 l-7 117 24 -5 c138 -32 137 -32 132 -2 -5 22 -13 26
-79 37 -81 13 -77 8 -88 97 -5 30 -3 42 6 42 13 0 91 -20 136 -34 19 -6 22 -4
22 17 0 21 -8 26 -80 46 -45 12 -87 24 -95 28 -12 4 -15 -4 -15 -33z"/>
<path d="M3089 1472 c-1 -58 3 -278 6 -312 1 -14 3 -43 3 -66 l2 -40 118 -10
c130 -11 142 -10 142 16 0 14 -14 18 -87 25 -49 4 -98 7 -109 6 -20 0 -22 6
-28 87 -4 48 -7 142 -7 209 0 111 -2 121 -20 126 -17 5 -19 -1 -20 -41z"/>
<path d="M3665 1373 c0 -136 -10 -188 -48 -244 -19 -29 -29 -34 -68 -37 -105
-7 -146 83 -148 321 -1 75 -2 77 -25 77 -24 0 -24 -1 -20 -87 7 -160 15 -217
38 -269 27 -59 70 -94 126 -101 55 -8 80 1 121 41 59 58 73 130 70 344 -1 78
-2 82 -24 82 -22 0 -22 -2 -22 -127z"/>
<path d="M4480 1252 c-19 -16 -24 -28 -23 -62 2 -35 -1 -41 -14 -36 -14 6 -15
-8 -10 -134 3 -77 1 -142 -3 -145 -5 -3 -16 3 -26 12 -16 16 -16 16 -9 -7 16
-58 48 -111 61 -106 17 6 17 0 4 -82 -11 -67 0 -201 22 -254 12 -32 12 -32 38
-18 17 9 138 31 340 61 119 18 329 65 395 88 112 40 127 43 149 32 12 -6 45
-12 75 -13 42 -2 55 -7 58 -20 16 -72 15 -79 -8 -104 -12 -13 -26 -24 -31 -24
-5 0 -26 -11 -48 -25 l-40 -25 -52 25 c-76 36 -87 32 -41 -18 56 -60 87 -144
88 -232 0 -68 -22 -138 -49 -157 -30 -21 114 -2 169 22 11 5 36 14 57 20 48
15 165 133 178 180 5 19 10 56 12 82 2 35 8 48 20 52 23 5 32 29 24 61 -7 28
-48 55 -54 36 -8 -24 -24 -10 -19 18 9 44 -2 71 -29 71 -17 0 -22 -4 -18 -15
4 -8 1 -15 -5 -15 -6 0 -11 8 -11 19 0 15 -10 20 -47 26 -68 10 -93 22 -93 44
0 11 -9 26 -20 34 -20 14 -19 15 22 25 61 16 201 86 227 113 11 12 21 20 21
18 0 -3 20 13 45 36 87 81 134 219 121 349 -6 53 -11 65 -32 76 -20 11 -27 11
-43 -4 -10 -9 -21 -31 -25 -48 -10 -49 -115 -178 -145 -178 -5 0 -11 -4 -13
-8 -5 -14 -160 -102 -178 -102 -9 0 -20 -4 -25 -9 -39 -34 -297 -89 -353 -75
-11 3 -58 -5 -104 -19 -116 -35 -152 -44 -240 -58 -88 -13 -126 -8 -188 25
-32 17 -50 21 -62 15 -28 -15 -65 0 -78 32 -9 21 -10 67 -5 166 7 129 8 135
21 104 10 -23 19 -31 29 -27 10 4 19 -2 24 -16 8 -22 8 -22 18 -3 16 32 45
161 41 186 -3 21 -9 24 -49 27 -33 2 -52 -2 -69 -16z m1171 -1014 c4 -46 -22
-98 -50 -98 -9 0 -29 -9 -45 -19 -17 -11 -33 -18 -37 -16 -3 3 -14 -4 -24 -15
-28 -31 -37 -24 -30 23 8 51 30 87 53 88 9 0 40 11 67 24 59 28 65 29 66 13z"/>
<path d="M353 1253 c-27 -5 -73 -58 -73 -83 0 -12 16 -26 43 -39 24 -12 47
-21 51 -21 27 0 251 -113 334 -168 92 -61 116 -72 155 -72 31 0 36 4 51 43 9
23 16 54 16 68 0 30 -26 69 -46 69 -8 0 -14 4 -14 9 0 5 -17 12 -37 16 -21 4
-51 12 -68 20 -16 7 -50 18 -75 25 -25 7 -99 41 -166 76 -66 35 -127 63 -135
63 -8 -1 -24 -4 -36 -6z"/>
<path d="M2865 1019 c23 -105 153 -460 172 -466 4 -2 24 43 42 99 19 57 52
150 73 208 49 130 47 122 22 126 -20 3 -26 -11 -73 -154 -28 -86 -51 -163 -51
-169 0 -7 -6 -13 -12 -13 -17 0 -69 124 -116 274 -21 66 -44 122 -51 124 -10
3 -11 -3 -6 -29z"/>
<path d="M4003 997 c-63 -46 -96 -110 -108 -209 -12 -93 38 -204 102 -229 35
-13 86 12 121 60 29 40 69 147 59 158 -15 14 -35 -9 -41 -46 -7 -48 -71 -121
-105 -121 -73 0 -118 174 -72 275 20 45 73 95 100 95 30 0 60 -30 67 -66 6
-35 20 -40 37 -13 6 10 2 30 -14 64 -23 48 -26 50 -69 53 -35 2 -52 -3 -77
-21z"/>
<path d="M3258 893 c-49 -147 -98 -308 -100 -333 -2 -19 2 -25 16 -25 15 0 23
16 42 84 12 46 26 87 31 90 4 4 34 5 65 3 l57 -4 42 -104 c42 -102 51 -112 77
-95 11 6 9 17 -7 52 -11 24 -30 67 -42 94 -12 28 -45 108 -74 180 -31 79 -57
131 -66 133 -11 2 -23 -19 -41 -75z"/>
<path d="M3624 951 c-77 -36 -131 -140 -121 -235 6 -61 37 -140 69 -173 27
-29 80 -46 118 -38 59 13 127 90 148 168 10 36 10 37 -18 37 -24 0 -28 -5 -34
-37 -10 -59 -66 -113 -117 -113 -62 0 -119 92 -119 192 0 87 64 168 134 168
37 0 86 -46 86 -81 0 -29 12 -35 44 -23 21 8 20 16 -4 69 -35 77 -108 103
-186 66z"/>
<path d="M0 265 l0 -265 1385 0 1385 0 -12 22 c-27 47 -44 54 -180 72 -73 10
-191 27 -263 38 -71 10 -195 28 -275 38 -80 11 -181 28 -225 39 -97 24 -429
76 -578 90 -60 6 -136 15 -170 21 -34 5 -120 19 -192 30 -71 12 -188 35 -260
51 -71 17 -159 37 -195 44 -265 56 -406 85 -412 85 -5 0 -8 -119 -8 -265z"/>
</g>
</svg>
