<?xml version="1.0" standalone="no"?>
<!DOCTYPE svg PUBLIC "-//W3C//DTD SVG 20010904//EN"
 "http://www.w3.org/TR/2001/REC-SVG-20010904/DTD/svg10.dtd">
<svg version="1.0" xmlns="http://www.w3.org/2000/svg"
 width="626.000000pt" height="352.000000pt" viewBox="0 0 626.000000 352.000000"
 preserveAspectRatio="xMidYMid meet">
<metadata>
Created by potrace 1.16, written by Peter Selinger 2001-2019
</metadata>
<g transform="translate(0.000000,352.000000) scale(0.100000,-0.100000)"
fill="#000000" stroke="none">
<path d="M3447 2732 c-10 -11 -17 -35 -17 -58 0 -48 37 -90 87 -100 30 -6 32
-5 39 32 l7 39 11 -27 c27 -65 97 -101 142 -72 12 9 33 14 46 12 29 -4 37 -51
13 -78 -31 -35 11 -55 51 -25 27 21 30 19 48 -25 20 -50 42 -52 85 -5 25 28
39 35 69 35 41 0 62 14 62 42 0 14 -8 18 -39 18 -23 0 -41 5 -44 13 -2 7 -21
12 -46 12 -40 0 -44 2 -55 35 -9 29 -16 36 -43 38 -18 2 -41 -2 -53 -8 -17 -9
-20 -8 -20 9 0 25 -8 30 -56 36 -21 2 -49 15 -64 30 -21 20 -36 25 -76 25 -33
0 -57 7 -74 20 -31 25 -52 25 -73 2z"/>
<path d="M1630 2180 c-47 -25 -67 -29 -136 -30 -73 0 -83 -2 -104 -25 -19 -20
-24 -37 -25 -78 0 -40 -4 -54 -17 -59 -25 -10 -23 -59 3 -92 17 -21 24 -24 40
-15 11 6 33 8 48 4 l28 -6 5 76 c3 41 8 78 11 81 3 3 22 -11 42 -31 36 -35 40
-37 96 -33 56 3 59 2 59 -21 0 -20 2 -22 16 -10 29 24 44 68 44 127 0 60 -11
82 -42 82 -16 0 -17 3 -7 21 19 36 -3 39 -61 9z"/>
<path d="M619 2171 c-19 -20 -29 -40 -29 -59 0 -36 43 -92 71 -92 14 0 19 -7
19 -26 0 -16 -4 -23 -11 -18 -9 5 -10 -1 -5 -22 3 -16 9 -46 13 -66 3 -21 9
-38 13 -38 5 0 6 -10 4 -22 -4 -22 -4 -22 5 -3 15 36 39 48 77 42 30 -5 40 -1
74 29 37 33 70 103 70 146 0 10 6 18 14 18 17 0 62 -51 71 -81 6 -17 9 -19 16
-8 28 44 -7 132 -63 161 -40 21 -134 26 -166 9 -28 -15 -42 -14 -42 4 0 23
-42 55 -73 55 -18 0 -39 -10 -58 -29z"/>
<path d="M1045 1583 c4 -38 13 -105 19 -150 7 -45 9 -81 6 -80 -3 0 -34 -2
-68 -7 -80 -9 -186 -41 -202 -61 -24 -29 -28 -4 -9 78 24 108 38 227 27 233
-4 3 -8 2 -9 -3 -5 -62 -39 -235 -61 -313 -3 -8 -3 -12 -1 -7 8 13 23 7 23 -8
0 -28 30 -75 47 -75 31 0 -1 -18 -37 -22 -19 -2 36 -3 123 -3 129 0 159 -3
167 -15 26 -40 21 -41 -264 -38 -151 2 -272 0 -269 -4 2 -5 82 -8 178 -8 157
0 174 -2 178 -17 4 -17 5 -17 6 0 1 15 13 17 95 17 l94 0 12 -37 c13 -42 69
-145 98 -182 14 -17 24 -22 41 -16 21 6 22 10 15 76 -4 38 -3 69 2 69 10 0 54
-102 54 -125 0 -18 14 -19 40 -5 21 11 21 11 34 -69 7 -42 -10 -110 -30 -118
-19 -7 -18 -26 5 -54 l19 -24 16 55 c20 66 20 91 2 161 -14 54 -19 83 -32 206
l-7 62 89 4 89 3 -91 2 c-89 2 -92 3 -96 27 -5 25 -5 25 68 25 99 0 104 3 104
60 l0 48 -44 11 c-24 6 -51 13 -59 17 -14 5 -15 1 -7 -27 12 -40 47 -79 72
-79 11 0 16 -4 13 -10 -3 -5 -39 -10 -79 -10 l-74 0 -6 38 c-4 20 -14 60 -23
87 l-15 50 -68 -3 c-66 -3 -68 -3 -79 25 -8 19 -10 21 -7 6 3 -19 0 -23 -19
-23 -27 0 -29 6 -45 140 -17 145 -20 160 -31 160 -7 0 -8 -23 -4 -67z"/>
<path d="M2446 1482 c-3 -9 -13 -87 -22 -172 -18 -166 -26 -691 -11 -707 8 -8
204 -10 211 -2 2 2 0 139 -4 304 -10 346 -6 435 20 435 14 0 19 -11 24 -47 8
-66 24 -324 32 -525 l7 -166 42 -7 c24 -3 66 -3 94 1 l51 7 0 106 c0 273 -50
696 -91 774 -9 15 -27 17 -179 16 -149 0 -170 -2 -174 -17z"/>
<path d="M5189 1458 c0 -18 -1 -48 -2 -66 l-2 -32 126 0 126 0 2 65 2 65 -126
0 -125 0 -1 -32z"/>
<path d="M5538 1340 l4 -30 -438 -2 c-242 0 -424 -3 -406 -5 l32 -4 0 -429 0
-429 -127 -4 c-71 -1 214 -4 631 -5 418 -1 757 0 755 2 -4 3 -364 16 -476 16
l-63 0 0 105 c0 142 -19 140 -22 -2 -2 -102 -3 -99 -8 47 l-6 155 -2 -157 -2
-158 -115 0 -115 0 0 430 0 431 133 -1 c72 -1 156 -1 185 -1 l52 1 0 35 c0 19
-4 35 -8 35 -5 0 -7 -13 -4 -30z m-368 -470 l0 -430 -215 0 -215 0 0 430 0
430 215 0 215 0 0 -430z"/>
<path d="M2514 555 c-4 -8 -12 -15 -19 -15 -14 0 -25 -31 -25 -72 l0 -28 -337
-3 c-186 -1 65 -2 557 -2 492 0 757 1 588 2 -176 2 -308 7 -308 12 0 23 -59
76 -107 98 -62 27 -73 28 -73 9 0 -7 -9 -16 -20 -19 -14 -4 -20 -14 -20 -35 0
-17 -3 -37 -6 -46 -8 -20 -54 -21 -54 -2 0 26 -40 64 -95 90 -64 30 -74 31
-81 11z"/>
</g>
</svg>
